<?xml version="1.0" standalone="no"?>
<!DOCTYPE svg PUBLIC "-//W3C//DTD SVG 1.1//EN" "http://www.w3.org/Graphics/SVG/1.1/DTD/svg11.dtd" >
<svg xmlns="http://www.w3.org/2000/svg" xmlns:xlink="http://www.w3.org/1999/xlink" version="1.1">
<metadata>
Created by FontForge 20161116 at Tue May 17 13:54:35 2016
 By Jimmy Wärting
Copyright \(c\) 2016 by Fontfabric LLC. All rights reserved.
</metadata>
<defs>
<font id="Phenomena-Black" horiz-adv-x="0" >
  <font-face 
    font-family="Phenomena Black"
    font-weight="900"
    font-stretch="normal"
    units-per-em="1000"
    panose-1="0 0 10 0 0 0 0 0 0 0"
    ascent="800"
    descent="-200"
    x-height="500"
    cap-height="700"
    bbox="-580.116 -293 797 999"
    underline-thickness="50"
    underline-position="-100"
    stemh="130"
    stemv="138"
    unicode-range="U+0020-25CA"
  />
<missing-glyph horiz-adv-x="500" 
d="M410 800v-1000h-317v1000h317zM333 733h-165v-33h65v-37h-66v-33h166v33h-66v37h66v33zM267 604h-100v-104h166v34h-66v70zM233 570v-36h-33v36h33zM333 473h-166v-33h66v-37h-66v-33h100v70h66v33zM333 413h-33v-66h-133v-34h166v100zM333 291h-100v-56h34v23h33v-47
h-100v80h-33v-113h166v113zM333 118h-166v-113h166v113zM300 85v-47h-100v47h100zM333 -18h-166v-33h70l-70 -47v-33h166v33h-102l70 47h32v33z" />
    <glyph glyph-name=".notdef" horiz-adv-x="500" 
d="M410 800v-1000h-317v1000h317zM333 733h-165v-33h65v-37h-66v-33h166v33h-66v37h66v33zM267 604h-100v-104h166v34h-66v70zM233 570v-36h-33v36h33zM333 473h-166v-33h66v-37h-66v-33h100v70h66v33zM333 413h-33v-66h-133v-34h166v100zM333 291h-100v-56h34v23h33v-47
h-100v80h-33v-113h166v113zM333 118h-166v-113h166v113zM300 85v-47h-100v47h100zM333 -18h-166v-33h70l-70 -47v-33h166v33h-102l70 47h32v33z" />
    <glyph glyph-name="A" unicode="A" horiz-adv-x="444" 
d="M58 0c-13 0 -20 7 -20 20v499c0 116 74 193 184 193s184 -77 184 -193v-499c0 -13 -7 -20 -20 -20h-107c-13 0 -20 7 -20 20v182h-74v-182c0 -13 -7 -20 -20 -20h-107zM185 337h74v194c0 27 -14 43 -37 43s-37 -16 -37 -43v-194z" />
    <glyph glyph-name="Aacute" unicode="&#xc1;" horiz-adv-x="444" 
d="M169 769c-16 0 -22 11 -13 24l58 89c6 9 14 13 24 13h77c17 0 22 -12 11 -25l-76 -90c-7 -8 -15 -11 -25 -11h-56zM58 0c-13 0 -20 7 -20 20v499c0 116 74 193 184 193s184 -77 184 -193v-499c0 -13 -7 -20 -20 -20h-107c-13 0 -20 7 -20 20v182h-74v-182
c0 -13 -7 -20 -20 -20h-107zM185 337h74v194c0 27 -14 43 -37 43s-37 -16 -37 -43v-194z" />
    <glyph glyph-name="Abreve" unicode="&#x102;" horiz-adv-x="444" 
d="M222 767c-68 0 -115 41 -124 105c-1 14 7 21 20 21h50c12 0 16 -6 21 -18c6 -11 17 -18 33 -18s27 7 33 18c5 12 9 18 21 18h50c13 0 21 -8 20 -21c-9 -64 -56 -105 -124 -105zM58 0c-13 0 -20 7 -20 20v499c0 116 74 193 184 193s184 -77 184 -193v-499
c0 -13 -7 -20 -20 -20h-107c-13 0 -20 7 -20 20v182h-74v-182c0 -13 -7 -20 -20 -20h-107zM185 337h74v194c0 27 -14 43 -37 43s-37 -16 -37 -43v-194z" />
    <glyph glyph-name="Acircumflex" unicode="&#xc2;" horiz-adv-x="444" 
d="M346 793c9 -13 3 -24 -13 -24h-54c-10 0 -18 4 -24 12l-33 42l-34 -42c-6 -8 -14 -12 -24 -12h-54c-16 0 -22 11 -13 24l58 89c6 9 15 13 25 13h83c10 0 19 -4 25 -13zM58 0c-13 0 -20 7 -20 20v499c0 116 74 193 184 193s184 -77 184 -193v-499c0 -13 -7 -20 -20 -20
h-107c-13 0 -20 7 -20 20v182h-74v-182c0 -13 -7 -20 -20 -20h-107zM185 337h74v194c0 27 -14 43 -37 43s-37 -16 -37 -43v-194z" />
    <glyph glyph-name="Adieresis" unicode="&#xc4;" horiz-adv-x="444" 
d="M147 768c-35 0 -57 23 -57 57s22 57 57 57c33 0 56 -23 56 -57s-23 -57 -56 -57zM297 768c-33 0 -56 23 -56 57s23 57 56 57c35 0 57 -23 57 -57s-22 -57 -57 -57zM58 0c-13 0 -20 7 -20 20v499c0 116 74 193 184 193s184 -77 184 -193v-499c0 -13 -7 -20 -20 -20h-107
c-13 0 -20 7 -20 20v182h-74v-182c0 -13 -7 -20 -20 -20h-107zM185 337h74v194c0 27 -14 43 -37 43s-37 -16 -37 -43v-194z" />
    <glyph glyph-name="Agrave" unicode="&#xc0;" horiz-adv-x="444" 
d="M295 769h-56c-10 0 -18 3 -25 11l-76 90c-11 13 -6 25 11 25h77c10 0 18 -4 24 -13l58 -89c9 -13 3 -24 -13 -24zM58 0c-13 0 -20 7 -20 20v499c0 116 74 193 184 193s184 -77 184 -193v-499c0 -13 -7 -20 -20 -20h-107c-13 0 -20 7 -20 20v182h-74v-182
c0 -13 -7 -20 -20 -20h-107zM185 337h74v194c0 27 -14 43 -37 43s-37 -16 -37 -43v-194z" />
    <glyph glyph-name="Amacron" unicode="&#x100;" horiz-adv-x="444" 
d="M126 842c0 13 7 20 20 20h151c13 0 20 -7 20 -20v-40c0 -13 -7 -20 -20 -20h-151c-13 0 -20 7 -20 20v40zM58 0c-13 0 -20 7 -20 20v499c0 116 74 193 184 193s184 -77 184 -193v-499c0 -13 -7 -20 -20 -20h-107c-13 0 -20 7 -20 20v182h-74v-182c0 -13 -7 -20 -20 -20
h-107zM185 337h74v194c0 27 -14 43 -37 43s-37 -16 -37 -43v-194z" />
    <glyph glyph-name="Aogonek" unicode="&#x104;" horiz-adv-x="451" 
d="M370 -211c-99 0 -150 19 -150 93c0 46 16 86 40 118v202h-72v-182c0 -13 -7 -20 -20 -20h-110c-13 0 -20 7 -20 20v499c0 116 74 193 186 193s186 -77 186 -193v-493c0 -16 -6 -28 -22 -39c-28 -19 -44 -45 -44 -63c0 -20 14 -34 40 -34h9c13 0 20 -6 20 -19v-61
c0 -13 -7 -21 -19 -21h-24zM188 337h72v194c0 27 -13 43 -36 43s-36 -16 -36 -43v-194z" />
    <glyph glyph-name="Aring" unicode="&#xc5;" horiz-adv-x="444" 
d="M136 832c0 49 34 82 86 82s86 -33 86 -82c0 -51 -34 -84 -86 -84s-86 33 -86 84zM199 831c0 -14 9 -23 23 -23s23 9 23 23s-9 23 -23 23s-23 -9 -23 -23zM58 0c-13 0 -20 7 -20 20v499c0 116 74 193 184 193s184 -77 184 -193v-499c0 -13 -7 -20 -20 -20h-107
c-13 0 -20 7 -20 20v182h-74v-182c0 -13 -7 -20 -20 -20h-107zM185 337h74v194c0 27 -14 43 -37 43s-37 -16 -37 -43v-194z" />
    <glyph glyph-name="Atilde" unicode="&#xc3;" horiz-adv-x="444" 
d="M187 791c-5 0 -9 -2 -12 -7c-6 -11 -11 -17 -22 -17h-38c-13 0 -21 8 -20 21c1 20 21 79 84 79c41 0 61 -25 77 -25c6 0 11 3 14 7c4 6 7 17 21 17h39c12 0 20 -5 19 -21c-2 -29 -27 -79 -83 -79c-39 0 -60 25 -79 25zM58 0c-13 0 -20 7 -20 20v499c0 116 74 193 184 193
s184 -77 184 -193v-499c0 -13 -7 -20 -20 -20h-107c-13 0 -20 7 -20 20v182h-74v-182c0 -13 -7 -20 -20 -20h-107zM185 337h74v194c0 27 -14 43 -37 43s-37 -16 -37 -43v-194z" />
    <glyph glyph-name="AE" unicode="&#xc6;" horiz-adv-x="589" 
d="M58 0c-13 0 -20 7 -20 20v499c0 114 73 190 184 190c46 0 86 -15 116 -41c30 24 66 37 107 37h106c13 0 20 -7 20 -20v-95c0 -13 -7 -20 -20 -20h-86c-36 0 -57 -23 -57 -63v-113h118c13 0 20 -7 20 -20v-87c0 -13 -7 -20 -20 -20h-118v-74c0 -40 21 -63 57 -63h86
c13 0 20 -7 20 -20v-95c0 -13 -7 -20 -20 -20h-106c-112 0 -187 77 -187 193v72h-72v-240c0 -13 -7 -20 -20 -20h-108zM186 395h72v136c0 27 -13 43 -36 43s-36 -16 -36 -43v-136z" />
    <glyph glyph-name="B" unicode="B" horiz-adv-x="426" 
d="M348 362c36 -33 57 -78 57 -131v-40c0 -119 -74 -196 -183 -196h-123c-35 0 -61 26 -61 61v463c0 116 72 193 178 193c107 0 179 -77 179 -193v-37c1 -48 -17 -89 -47 -120zM185 534v-116h33c18 0 30 17 30 45v71c0 25 -13 41 -33 41c-19 0 -30 -16 -30 -41zM256 178v58
c0 33 -14 52 -38 52h-33v-160h33c24 0 38 19 38 50z" />
    <glyph glyph-name="C" unicode="C" horiz-adv-x="413" 
d="M218 -12c-111 0 -185 77 -185 193v338c0 116 74 193 185 193c105 0 174 -75 178 -203c0 -14 -6 -21 -19 -21h-108c-12 0 -20 7 -20 20c-1 46 -14 66 -35 66c-20 0 -33 -16 -33 -43v-362c0 -27 13 -43 33 -43c23 0 37 24 39 76c1 13 8 20 20 20h108c13 0 20 -8 19 -23
c-5 -133 -72 -211 -182 -211z" />
    <glyph glyph-name="Cacute" unicode="&#x106;" horiz-adv-x="413" 
d="M156 769c-16 0 -22 11 -13 24l58 89c6 9 14 13 24 13h77c17 0 22 -12 11 -25l-76 -90c-7 -8 -15 -11 -25 -11h-56zM218 -12c-111 0 -185 77 -185 193v338c0 116 74 193 185 193c105 0 174 -75 178 -203c0 -14 -6 -21 -19 -21h-108c-12 0 -20 7 -20 20
c-1 46 -14 66 -35 66c-20 0 -33 -16 -33 -43v-362c0 -27 13 -43 33 -43c23 0 37 24 39 76c1 13 8 20 20 20h108c13 0 20 -8 19 -23c-5 -133 -72 -211 -182 -211z" />
    <glyph glyph-name="Ccaron" unicode="&#x10c;" horiz-adv-x="413" 
d="M333 871l-58 -89c-6 -9 -15 -13 -25 -13h-83c-10 0 -19 4 -25 13l-58 89c-9 13 -3 24 13 24h54c10 0 18 -4 24 -12l34 -42l33 42c6 8 14 12 24 12h54c16 0 22 -11 13 -24zM218 -12c-111 0 -185 77 -185 193v338c0 116 74 193 185 193c105 0 174 -75 178 -203
c0 -14 -6 -21 -19 -21h-108c-12 0 -20 7 -20 20c-1 46 -14 66 -35 66c-20 0 -33 -16 -33 -43v-362c0 -27 13 -43 33 -43c23 0 37 24 39 76c1 13 8 20 20 20h108c13 0 20 -8 19 -23c-5 -133 -72 -211 -182 -211z" />
    <glyph glyph-name="Ccedilla" unicode="&#xc7;" horiz-adv-x="413" 
d="M381 222c13 0 20 -8 19 -23c-4 -119 -58 -193 -148 -208l-6 -35h5c39 -3 70 -33 70 -75c0 -59 -44 -93 -102 -93c-49 0 -88 28 -96 76c-3 13 6 21 19 21h26c11 0 15 -6 22 -16c6 -8 17 -13 29 -13c18 0 32 9 32 25c0 15 -14 25 -32 25c-13 0 -24 -1 -35 -3
c-5 -1 -9 0 -13 4l-5 4c-4 4 -5 7 -4 13l14 68c-87 17 -143 88 -143 189v338c0 116 74 193 185 193c105 0 174 -75 178 -203c0 -14 -6 -21 -19 -21h-108c-12 0 -20 7 -20 20c-1 46 -14 66 -35 66c-20 0 -33 -16 -33 -43v-362c0 -27 13 -43 33 -43c23 0 37 24 39 76
c1 13 8 20 20 20h108z" />
    <glyph glyph-name="Cdotaccent" unicode="&#x10a;" horiz-adv-x="413" 
d="M209 764c-44 0 -75 33 -75 75c0 43 31 75 75 75c42 0 75 -32 75 -75c0 -40 -33 -75 -75 -75zM218 -12c-111 0 -185 77 -185 193v338c0 116 74 193 185 193c105 0 174 -75 178 -203c0 -14 -6 -21 -19 -21h-108c-12 0 -20 7 -20 20c-1 46 -14 66 -35 66
c-20 0 -33 -16 -33 -43v-362c0 -27 13 -43 33 -43c23 0 37 24 39 76c1 13 8 20 20 20h108c13 0 20 -8 19 -23c-5 -133 -72 -211 -182 -211z" />
    <glyph glyph-name="D" unicode="D" horiz-adv-x="440" 
d="M102 -5c-39 0 -60 21 -60 60v590c0 39 21 60 60 60h120c111 0 185 -77 185 -193v-324c0 -116 -74 -193 -185 -193h-120zM189 130h23c33 0 47 16 47 53v334c0 37 -14 53 -47 53h-23v-440z" />
    <glyph glyph-name="Eth" unicode="&#xd0;" horiz-adv-x="465" 
d="M247 705c111 0 185 -77 185 -193v-324c0 -116 -74 -193 -185 -193h-120c-39 0 -60 21 -60 60v262h-30c-13 0 -20 7 -20 20v43c0 13 7 20 20 20h30v245c0 39 21 60 60 60h120zM284 183v334c0 37 -14 53 -47 53h-23v-170h21c13 0 20 -7 20 -20v-43c0 -13 -7 -20 -20 -20
h-21v-187h23c33 0 47 16 47 53z" />
    <glyph glyph-name="Dcaron" unicode="&#x10e;" horiz-adv-x="440" 
d="M348 871l-58 -89c-6 -9 -15 -13 -25 -13h-83c-10 0 -19 4 -25 13l-58 89c-9 13 -3 24 13 24h54c10 0 18 -4 24 -12l34 -42l33 42c6 8 14 12 24 12h54c16 0 22 -11 13 -24zM102 -5c-39 0 -60 21 -60 60v590c0 39 21 60 60 60h120c111 0 185 -77 185 -193v-324
c0 -116 -74 -193 -185 -193h-120zM189 130h23c33 0 47 16 47 53v334c0 37 -14 53 -47 53h-23v-440z" />
    <glyph glyph-name="Dcroat" unicode="&#x110;" horiz-adv-x="465" 
d="M247 705c111 0 185 -77 185 -193v-324c0 -116 -74 -193 -185 -193h-120c-39 0 -60 21 -60 60v262h-30c-13 0 -20 7 -20 20v43c0 13 7 20 20 20h30v245c0 39 21 60 60 60h120zM284 183v334c0 37 -14 53 -47 53h-23v-170h21c13 0 20 -7 20 -20v-43c0 -13 -7 -20 -20 -20
h-21v-187h23c33 0 47 16 47 53z" />
    <glyph glyph-name="E" unicode="E" horiz-adv-x="362" 
d="M218 -5c-111 0 -185 77 -185 193v324c0 116 74 193 185 193h106c13 0 20 -7 20 -20v-95c0 -13 -7 -20 -20 -20h-86c-36 0 -57 -23 -57 -63v-90h118c13 0 20 -7 20 -20v-90c0 -13 -7 -20 -20 -20h-118v-94c0 -40 21 -63 57 -63h86c13 0 20 -7 20 -20v-95
c0 -13 -7 -20 -20 -20h-106z" />
    <glyph glyph-name="Eacute" unicode="&#xc9;" horiz-adv-x="362" 
d="M147 769c-16 0 -22 11 -13 24l58 89c6 9 14 13 24 13h77c17 0 22 -12 11 -25l-76 -90c-7 -8 -15 -11 -25 -11h-56zM218 -5c-111 0 -185 77 -185 193v324c0 116 74 193 185 193h106c13 0 20 -7 20 -20v-95c0 -13 -7 -20 -20 -20h-86c-36 0 -57 -23 -57 -63v-90h118
c13 0 20 -7 20 -20v-90c0 -13 -7 -20 -20 -20h-118v-94c0 -40 21 -63 57 -63h86c13 0 20 -7 20 -20v-95c0 -13 -7 -20 -20 -20h-106z" />
    <glyph glyph-name="Ecaron" unicode="&#x11a;" horiz-adv-x="362" 
d="M324 871l-58 -89c-6 -9 -15 -13 -25 -13h-83c-10 0 -19 4 -25 13l-58 89c-9 13 -3 24 13 24h54c10 0 18 -4 24 -12l34 -42l33 42c6 8 14 12 24 12h54c16 0 22 -11 13 -24zM218 -5c-111 0 -185 77 -185 193v324c0 116 74 193 185 193h106c13 0 20 -7 20 -20v-95
c0 -13 -7 -20 -20 -20h-86c-36 0 -57 -23 -57 -63v-90h118c13 0 20 -7 20 -20v-90c0 -13 -7 -20 -20 -20h-118v-94c0 -40 21 -63 57 -63h86c13 0 20 -7 20 -20v-95c0 -13 -7 -20 -20 -20h-106z" />
    <glyph glyph-name="Ecircumflex" unicode="&#xca;" horiz-adv-x="362" 
d="M324 793c9 -13 3 -24 -13 -24h-54c-10 0 -18 4 -24 12l-33 42l-34 -42c-6 -8 -14 -12 -24 -12h-54c-16 0 -22 11 -13 24l58 89c6 9 15 13 25 13h83c10 0 19 -4 25 -13zM218 -5c-111 0 -185 77 -185 193v324c0 116 74 193 185 193h106c13 0 20 -7 20 -20v-95
c0 -13 -7 -20 -20 -20h-86c-36 0 -57 -23 -57 -63v-90h118c13 0 20 -7 20 -20v-90c0 -13 -7 -20 -20 -20h-118v-94c0 -40 21 -63 57 -63h86c13 0 20 -7 20 -20v-95c0 -13 -7 -20 -20 -20h-106z" />
    <glyph glyph-name="Edieresis" unicode="&#xcb;" horiz-adv-x="362" 
d="M125 768c-35 0 -57 23 -57 57s22 57 57 57c33 0 56 -23 56 -57s-23 -57 -56 -57zM275 768c-33 0 -56 23 -56 57s23 57 56 57c35 0 57 -23 57 -57s-22 -57 -57 -57zM218 -5c-111 0 -185 77 -185 193v324c0 116 74 193 185 193h106c13 0 20 -7 20 -20v-95
c0 -13 -7 -20 -20 -20h-86c-36 0 -57 -23 -57 -63v-90h118c13 0 20 -7 20 -20v-90c0 -13 -7 -20 -20 -20h-118v-94c0 -40 21 -63 57 -63h86c13 0 20 -7 20 -20v-95c0 -13 -7 -20 -20 -20h-106z" />
    <glyph glyph-name="Edotaccent" unicode="&#x116;" horiz-adv-x="362" 
d="M200 764c-44 0 -75 33 -75 75c0 43 31 75 75 75c42 0 75 -32 75 -75c0 -40 -33 -75 -75 -75zM218 -5c-111 0 -185 77 -185 193v324c0 116 74 193 185 193h106c13 0 20 -7 20 -20v-95c0 -13 -7 -20 -20 -20h-86c-36 0 -57 -23 -57 -63v-90h118c13 0 20 -7 20 -20v-90
c0 -13 -7 -20 -20 -20h-118v-94c0 -40 21 -63 57 -63h86c13 0 20 -7 20 -20v-95c0 -13 -7 -20 -20 -20h-106z" />
    <glyph glyph-name="Egrave" unicode="&#xc8;" horiz-adv-x="362" 
d="M273 769h-56c-10 0 -18 3 -25 11l-76 90c-11 13 -6 25 11 25h77c10 0 18 -4 24 -13l58 -89c9 -13 3 -24 -13 -24zM218 -5c-111 0 -185 77 -185 193v324c0 116 74 193 185 193h106c13 0 20 -7 20 -20v-95c0 -13 -7 -20 -20 -20h-86c-36 0 -57 -23 -57 -63v-90h118
c13 0 20 -7 20 -20v-90c0 -13 -7 -20 -20 -20h-118v-94c0 -40 21 -63 57 -63h86c13 0 20 -7 20 -20v-95c0 -13 -7 -20 -20 -20h-106z" />
    <glyph glyph-name="Emacron" unicode="&#x112;" horiz-adv-x="362" 
d="M104 842c0 13 7 20 20 20h151c13 0 20 -7 20 -20v-40c0 -13 -7 -20 -20 -20h-151c-13 0 -20 7 -20 20v40zM218 -5c-111 0 -185 77 -185 193v324c0 116 74 193 185 193h106c13 0 20 -7 20 -20v-95c0 -13 -7 -20 -20 -20h-86c-36 0 -57 -23 -57 -63v-90h118
c13 0 20 -7 20 -20v-90c0 -13 -7 -20 -20 -20h-118v-94c0 -40 21 -63 57 -63h86c13 0 20 -7 20 -20v-95c0 -13 -7 -20 -20 -20h-106z" />
    <glyph glyph-name="Eogonek" unicode="&#x118;" horiz-adv-x="364" 
d="M325 -110c13 0 20 -6 20 -19v-61c0 -12 -7 -20 -19 -20c-8 -1 -16 -1 -24 -1c-99 0 -150 19 -150 93c0 44 18 83 46 114c-100 8 -165 83 -165 192v324c0 116 74 193 185 193h106c13 0 20 -7 20 -20v-95c0 -13 -7 -20 -20 -20h-86c-36 0 -57 -23 -57 -63v-90h118
c13 0 20 -7 20 -20v-90c0 -13 -7 -20 -20 -20h-118v-94c0 -40 21 -63 57 -63h86c13 0 20 -7 20 -20v-95c0 -13 -7 -20 -20 -20h-3c-29 -23 -45 -51 -45 -71s14 -34 40 -34h9z" />
    <glyph glyph-name="F" unicode="F" horiz-adv-x="346" 
d="M58 0c-13 0 -20 7 -20 20v487c0 116 74 193 185 193h90c13 0 20 -7 20 -20v-95c0 -13 -7 -20 -20 -20h-70c-36 0 -57 -23 -57 -63v-82h108c13 0 20 -7 20 -20v-95c0 -13 -7 -20 -20 -20h-108v-265c0 -13 -7 -20 -20 -20h-108z" />
    <glyph glyph-name="G" unicode="G" horiz-adv-x="428" 
d="M218 -12c-111 0 -185 76 -185 190v344c0 114 73 190 181 190c104 0 181 -77 183 -203c0 -14 -6 -21 -19 -21h-107c-12 0 -20 7 -21 20c-2 51 -17 67 -36 67c-21 0 -33 -15 -33 -41v-368c0 -26 16 -41 40 -41s39 15 39 41v99h-23c-13 0 -20 7 -20 20v85c0 13 7 20 20 20
h108c39 0 60 -21 60 -60v-152c0 -114 -75 -190 -187 -190z" />
    <glyph glyph-name="Gbreve" unicode="&#x11e;" horiz-adv-x="428" 
d="M216 767c-68 0 -115 41 -124 105c-1 14 7 21 20 21h50c12 0 16 -6 21 -18c6 -11 17 -18 33 -18s27 7 33 18c5 12 9 18 21 18h50c13 0 21 -8 20 -21c-9 -64 -56 -105 -124 -105zM218 -12c-111 0 -185 76 -185 190v344c0 114 73 190 181 190c104 0 181 -77 183 -203
c0 -14 -6 -21 -19 -21h-107c-12 0 -20 7 -21 20c-2 51 -17 67 -36 67c-21 0 -33 -15 -33 -41v-368c0 -26 16 -41 40 -41s39 15 39 41v99h-23c-13 0 -20 7 -20 20v85c0 13 7 20 20 20h108c39 0 60 -21 60 -60v-152c0 -114 -75 -190 -187 -190z" />
    <glyph glyph-name="Gcommaaccent" unicode="&#x122;" horiz-adv-x="428" 
d="M218 -12c-111 0 -185 76 -185 190v344c0 114 73 190 181 190c104 0 181 -77 183 -203c0 -14 -6 -21 -19 -21h-107c-12 0 -20 7 -21 20c-2 51 -17 67 -36 67c-21 0 -33 -15 -33 -41v-368c0 -26 16 -41 40 -41s39 15 39 41v99h-23c-13 0 -20 7 -20 20v85c0 13 7 20 20 20
h108c39 0 60 -21 60 -60v-152c0 -114 -75 -190 -187 -190zM156 -71c1 12 8 19 20 19h79c13 0 21 -9 18 -22l-40 -201c-2 -12 -9 -18 -21 -18h-46c-13 0 -21 7 -20 21z" />
    <glyph glyph-name="Gdotaccent" unicode="&#x120;" horiz-adv-x="428" 
d="M216 764c-44 0 -75 33 -75 75c0 43 31 75 75 75c42 0 75 -32 75 -75c0 -40 -33 -75 -75 -75zM218 -12c-111 0 -185 76 -185 190v344c0 114 73 190 181 190c104 0 181 -77 183 -203c0 -14 -6 -21 -19 -21h-107c-12 0 -20 7 -21 20c-2 51 -17 67 -36 67
c-21 0 -33 -15 -33 -41v-368c0 -26 16 -41 40 -41s39 15 39 41v99h-23c-13 0 -20 7 -20 20v85c0 13 7 20 20 20h108c39 0 60 -21 60 -60v-152c0 -114 -75 -190 -187 -190z" />
    <glyph glyph-name="H" unicode="H" horiz-adv-x="444" 
d="M256 680c0 13 7 20 20 20h106c13 0 20 -7 20 -20v-660c0 -13 -7 -20 -20 -20h-106c-13 0 -20 7 -20 20v265h-68v-265c0 -13 -7 -20 -20 -20h-106c-13 0 -20 7 -20 20v660c0 13 7 20 20 20h106c13 0 20 -7 20 -20v-260h68v260z" />
    <glyph glyph-name="Hbar" unicode="&#x126;" horiz-adv-x="524" 
d="M487 587c13 0 20 -7 20 -20v-56c0 -13 -7 -20 -20 -20h-45v-471c0 -13 -7 -20 -20 -20h-106c-13 0 -20 7 -20 20v265h-68v-265c0 -13 -7 -20 -20 -20h-106c-13 0 -20 7 -20 20v471h-45c-13 0 -20 7 -20 20v56c0 13 7 20 20 20h45v93c0 13 7 20 20 20h106
c13 0 20 -7 20 -20v-93h68v93c0 13 7 20 20 20h106c13 0 20 -7 20 -20v-93h45zM296 420v71h-68v-71h68z" />
    <glyph glyph-name="I" unicode="I" horiz-adv-x="230" 
d="M42 680c0 13 7 20 20 20h106c13 0 20 -7 20 -20v-660c0 -13 -7 -20 -20 -20h-106c-13 0 -20 7 -20 20v660z" />
    <glyph glyph-name="Iacute" unicode="&#xcd;" horiz-adv-x="230" 
d="M59 769c-16 0 -22 11 -13 24l58 89c6 9 14 13 24 13h77c17 0 22 -12 11 -25l-76 -90c-7 -8 -15 -11 -25 -11h-56zM42 680c0 13 7 20 20 20h106c13 0 20 -7 20 -20v-660c0 -13 -7 -20 -20 -20h-106c-13 0 -20 7 -20 20v660z" />
    <glyph glyph-name="Icircumflex" unicode="&#xce;" horiz-adv-x="273" 
d="M261 793c9 -13 3 -24 -13 -24h-54c-10 0 -18 4 -24 12l-33 42l-34 -42c-6 -8 -14 -12 -24 -12h-54c-16 0 -22 11 -13 24l58 89c6 9 15 13 25 13h83c10 0 19 -4 25 -13zM67 680c0 13 7 20 20 20h106c13 0 20 -7 20 -20v-660c0 -13 -7 -20 -20 -20h-106c-13 0 -20 7 -20 20
v660z" />
    <glyph glyph-name="Idieresis" unicode="&#xcf;" horiz-adv-x="274" 
d="M62 768c-35 0 -57 23 -57 57s22 57 57 57c33 0 56 -23 56 -57s-23 -57 -56 -57zM212 768c-33 0 -56 23 -56 57s23 57 56 57c35 0 57 -23 57 -57s-22 -57 -57 -57zM67 680c0 13 7 20 20 20h106c13 0 20 -7 20 -20v-660c0 -13 -7 -20 -20 -20h-106c-13 0 -20 7 -20 20v660z
" />
    <glyph glyph-name="Idotaccent" unicode="&#x130;" horiz-adv-x="230" 
d="M116 764c-44 0 -75 33 -75 75c0 43 31 75 75 75c42 0 75 -32 75 -75c0 -40 -33 -75 -75 -75zM42 680c0 13 7 20 20 20h106c13 0 20 -7 20 -20v-660c0 -13 -7 -20 -20 -20h-106c-13 0 -20 7 -20 20v660z" />
    <glyph glyph-name="Igrave" unicode="&#xcc;" horiz-adv-x="230" 
d="M189 769h-56c-10 0 -18 3 -25 11l-76 90c-11 13 -6 25 11 25h77c10 0 18 -4 24 -13l58 -89c9 -13 3 -24 -13 -24zM42 680c0 13 7 20 20 20h106c13 0 20 -7 20 -20v-660c0 -13 -7 -20 -20 -20h-106c-13 0 -20 7 -20 20v660z" />
    <glyph glyph-name="Imacron" unicode="&#x12a;" horiz-adv-x="230" 
d="M20 842c0 13 7 20 20 20h151c13 0 20 -7 20 -20v-40c0 -13 -7 -20 -20 -20h-151c-13 0 -20 7 -20 20v40zM42 680c0 13 7 20 20 20h106c13 0 20 -7 20 -20v-660c0 -13 -7 -20 -20 -20h-106c-13 0 -20 7 -20 20v660z" />
    <glyph glyph-name="Iogonek" unicode="&#x12e;" horiz-adv-x="222" 
d="M184 -110c13 0 20 -6 20 -19v-61c0 -12 -7 -18 -19 -20c-8 -1 -16 -1 -24 -1c-98 0 -153 23 -153 93c0 46 20 86 50 118c-13 0 -20 7 -20 20v660c0 13 7 20 20 20h106c13 0 20 -7 20 -20v-660c0 -13 -7 -20 -20 -20c-20 -24 -32 -54 -32 -76c0 -20 15 -34 43 -34h9z" />
    <glyph glyph-name="J" unicode="J" horiz-adv-x="412" 
d="M190 -12c-114 0 -179 83 -182 213c0 14 6 21 19 21h108c12 0 19 -7 20 -20c2 -51 15 -77 37 -77s35 15 35 48v508c0 13 7 20 20 20h107c13 0 20 -7 20 -20v-493c0 -124 -62 -200 -184 -200z" />
    <glyph glyph-name="K" unicode="K" horiz-adv-x="447" 
d="M62 0c-13 0 -20 7 -20 20v660c0 13 7 20 20 20h106c13 0 20 -7 20 -20v-266h37l42 268c2 13 10 18 22 18h106c14 0 21 -9 18 -22l-62 -311c38 -31 56 -84 56 -146v-201c0 -13 -7 -20 -20 -20h-108c-13 0 -20 7 -20 20v206c0 37 -14 53 -48 53h-23v-259
c0 -13 -7 -20 -20 -20h-106z" />
    <glyph glyph-name="Kcommaaccent" unicode="&#x136;" horiz-adv-x="447" 
d="M62 0c-13 0 -20 7 -20 20v660c0 13 7 20 20 20h106c13 0 20 -7 20 -20v-266h37l42 268c2 13 10 18 22 18h106c14 0 21 -9 18 -22l-62 -311c38 -31 56 -84 56 -146v-201c0 -13 -7 -20 -20 -20h-108c-13 0 -20 7 -20 20v206c0 37 -14 53 -48 53h-23v-259
c0 -13 -7 -20 -20 -20h-106zM164 -71c1 12 8 19 20 19h79c13 0 21 -9 18 -22l-40 -201c-2 -12 -9 -18 -21 -18h-46c-13 0 -21 7 -20 21z" />
    <glyph glyph-name="L" unicode="L" horiz-adv-x="363" 
d="M227 130h108c13 0 20 -7 20 -20v-95c0 -13 -7 -20 -20 -20h-123c-112 0 -174 78 -174 184v501c0 13 7 20 20 20h109c13 0 20 -7 20 -20v-492c0 -42 20 -58 40 -58z" />
    <glyph glyph-name="Lacute" unicode="&#x139;" horiz-adv-x="363" 
d="M60 769c-16 0 -22 11 -13 24l58 89c6 9 14 13 24 13h77c17 0 22 -12 11 -25l-76 -90c-7 -8 -15 -11 -25 -11h-56zM227 130h108c13 0 20 -7 20 -20v-95c0 -13 -7 -20 -20 -20h-123c-112 0 -174 78 -174 184v501c0 13 7 20 20 20h109c13 0 20 -7 20 -20v-492
c0 -42 20 -58 40 -58z" />
    <glyph glyph-name="Lcaron" unicode="&#x13d;" horiz-adv-x="365" 
d="M212 -5c-112 0 -174 78 -174 184v501c0 13 7 20 20 20h109c13 0 20 -7 20 -20v-492c0 -42 20 -58 40 -58h108c13 0 20 -7 20 -20v-95c0 -13 -7 -20 -20 -20h-123zM250 474c-13 0 -21 7 -20 21l10 186c1 12 8 19 20 19h80c13 0 20 -9 18 -22l-32 -186
c-2 -12 -9 -18 -21 -18h-55z" />
    <glyph glyph-name="Lcommaaccent" unicode="&#x13b;" horiz-adv-x="363" 
d="M227 130h108c13 0 20 -7 20 -20v-95c0 -13 -7 -20 -20 -20h-123c-112 0 -174 78 -174 184v501c0 13 7 20 20 20h109c13 0 20 -7 20 -20v-492c0 -42 20 -58 40 -58zM124 -71c1 12 8 19 20 19h79c13 0 21 -9 18 -22l-40 -201c-2 -12 -9 -18 -21 -18h-46c-13 0 -21 7 -20 21
z" />
    <glyph glyph-name="Lslash" unicode="&#x141;" horiz-adv-x="414" 
d="M388 130c13 0 20 -7 20 -20v-95c0 -13 -7 -20 -20 -20h-123c-112 0 -174 78 -174 184v95l-55 -21c-14 -5 -23 1 -23 16v78c0 11 6 19 16 23l62 24v286c0 13 7 20 20 20h109c13 0 20 -7 20 -20v-229l90 34c14 5 23 -1 23 -16v-78c0 -11 -6 -19 -16 -23l-97 -37v-143
c0 -42 20 -58 40 -58h108z" />
    <glyph glyph-name="M" unicode="M" horiz-adv-x="642" 
d="M426 712c107 0 178 -77 178 -193v-499c0 -13 -7 -20 -20 -20h-105c-13 0 -20 7 -20 20v511c0 27 -12 43 -33 43s-33 -16 -33 -43v-511c0 -13 -7 -20 -20 -20h-104c-13 0 -20 7 -20 20v511c0 27 -12 43 -33 43s-33 -16 -33 -43v-511c0 -13 -7 -20 -20 -20h-105
c-13 0 -20 7 -20 20v499c0 116 71 193 178 193c42 0 76 -13 105 -35c29 22 63 35 105 35z" />
    <glyph glyph-name="N" unicode="N" horiz-adv-x="444" 
d="M58 0c-13 0 -20 7 -20 20v500c0 115 73 192 184 192s184 -77 184 -192v-500c0 -13 -7 -20 -20 -20h-107c-13 0 -20 7 -20 20v512c0 27 -13 43 -37 43s-37 -16 -37 -43v-512c0 -13 -7 -20 -20 -20h-107z" />
    <glyph glyph-name="Nacute" unicode="&#x143;" horiz-adv-x="444" 
d="M169 769c-16 0 -22 11 -13 24l58 89c6 9 14 13 24 13h77c17 0 22 -12 11 -25l-76 -90c-7 -8 -15 -11 -25 -11h-56zM58 0c-13 0 -20 7 -20 20v500c0 115 73 192 184 192s184 -77 184 -192v-500c0 -13 -7 -20 -20 -20h-107c-13 0 -20 7 -20 20v512c0 27 -13 43 -37 43
s-37 -16 -37 -43v-512c0 -13 -7 -20 -20 -20h-107z" />
    <glyph glyph-name="Ncaron" unicode="&#x147;" horiz-adv-x="444" 
d="M346 871l-58 -89c-6 -9 -15 -13 -25 -13h-83c-10 0 -19 4 -25 13l-58 89c-9 13 -3 24 13 24h54c10 0 18 -4 24 -12l34 -42l33 42c6 8 14 12 24 12h54c16 0 22 -11 13 -24zM58 0c-13 0 -20 7 -20 20v500c0 115 73 192 184 192s184 -77 184 -192v-500c0 -13 -7 -20 -20 -20
h-107c-13 0 -20 7 -20 20v512c0 27 -13 43 -37 43s-37 -16 -37 -43v-512c0 -13 -7 -20 -20 -20h-107z" />
    <glyph glyph-name="Ncommaaccent" unicode="&#x145;" horiz-adv-x="444" 
d="M58 0c-13 0 -20 7 -20 20v500c0 115 73 192 184 192s184 -77 184 -192v-500c0 -13 -7 -20 -20 -20h-107c-13 0 -20 7 -20 20v512c0 27 -13 43 -37 43s-37 -16 -37 -43v-512c0 -13 -7 -20 -20 -20h-107zM163 -71c1 12 8 19 20 19h79c13 0 21 -9 18 -22l-40 -201
c-2 -12 -9 -18 -21 -18h-46c-13 0 -21 7 -20 21z" />
    <glyph glyph-name="Eng" unicode="&#x14a;" horiz-adv-x="444" 
d="M192 -205c-17 0 -24 7 -24 20v90c0 13 9 20 19 20c49 0 72 24 72 64v543c0 27 -13 43 -37 43s-37 -16 -37 -43v-512c0 -13 -7 -20 -20 -20h-107c-13 0 -20 7 -20 20v500c0 115 73 192 184 192s184 -77 184 -192v-512c0 -136 -77 -213 -214 -213z" />
    <glyph glyph-name="Ntilde" unicode="&#xd1;" horiz-adv-x="444" 
d="M187 791c-5 0 -9 -2 -12 -7c-6 -11 -11 -17 -22 -17h-38c-13 0 -21 8 -20 21c1 20 21 79 84 79c41 0 61 -25 77 -25c6 0 11 3 14 7c4 6 7 17 21 17h39c12 0 20 -5 19 -21c-2 -29 -27 -79 -83 -79c-39 0 -60 25 -79 25zM58 0c-13 0 -20 7 -20 20v500c0 115 73 192 184 192
s184 -77 184 -192v-500c0 -13 -7 -20 -20 -20h-107c-13 0 -20 7 -20 20v512c0 27 -13 43 -37 43s-37 -16 -37 -43v-512c0 -13 -7 -20 -20 -20h-107z" />
    <glyph glyph-name="O" unicode="O" horiz-adv-x="442" 
d="M221 -12c-112 0 -188 77 -188 193v338c0 116 76 193 188 193s188 -77 188 -193v-338c0 -116 -76 -193 -188 -193zM221 125c25 0 40 16 40 44v362c0 28 -15 44 -40 44s-40 -16 -40 -44v-362c0 -28 15 -44 40 -44z" />
    <glyph glyph-name="Oacute" unicode="&#xd3;" horiz-adv-x="442" 
d="M167 769c-16 0 -22 11 -13 24l58 89c6 9 14 13 24 13h77c17 0 22 -12 11 -25l-76 -90c-7 -8 -15 -11 -25 -11h-56zM221 -12c-112 0 -188 77 -188 193v338c0 116 76 193 188 193s188 -77 188 -193v-338c0 -116 -76 -193 -188 -193zM221 125c25 0 40 16 40 44v362
c0 28 -15 44 -40 44s-40 -16 -40 -44v-362c0 -28 15 -44 40 -44z" />
    <glyph glyph-name="Ocircumflex" unicode="&#xd4;" horiz-adv-x="442" 
d="M344 793c9 -13 3 -24 -13 -24h-54c-10 0 -18 4 -24 12l-33 42l-34 -42c-6 -8 -14 -12 -24 -12h-54c-16 0 -22 11 -13 24l58 89c6 9 15 13 25 13h83c10 0 19 -4 25 -13zM221 -12c-112 0 -188 77 -188 193v338c0 116 76 193 188 193s188 -77 188 -193v-338
c0 -116 -76 -193 -188 -193zM221 125c25 0 40 16 40 44v362c0 28 -15 44 -40 44s-40 -16 -40 -44v-362c0 -28 15 -44 40 -44z" />
    <glyph glyph-name="Odieresis" unicode="&#xd6;" horiz-adv-x="442" 
d="M145 768c-35 0 -57 23 -57 57s22 57 57 57c33 0 56 -23 56 -57s-23 -57 -56 -57zM295 768c-33 0 -56 23 -56 57s23 57 56 57c35 0 57 -23 57 -57s-22 -57 -57 -57zM221 -12c-112 0 -188 77 -188 193v338c0 116 76 193 188 193s188 -77 188 -193v-338
c0 -116 -76 -193 -188 -193zM221 125c25 0 40 16 40 44v362c0 28 -15 44 -40 44s-40 -16 -40 -44v-362c0 -28 15 -44 40 -44z" />
    <glyph glyph-name="Ograve" unicode="&#xd2;" horiz-adv-x="442" 
d="M293 769h-56c-10 0 -18 3 -25 11l-76 90c-11 13 -6 25 11 25h77c10 0 18 -4 24 -13l58 -89c9 -13 3 -24 -13 -24zM221 -12c-112 0 -188 77 -188 193v338c0 116 76 193 188 193s188 -77 188 -193v-338c0 -116 -76 -193 -188 -193zM221 125c25 0 40 16 40 44v362
c0 28 -15 44 -40 44s-40 -16 -40 -44v-362c0 -28 15 -44 40 -44z" />
    <glyph glyph-name="Ohungarumlaut" unicode="&#x150;" horiz-adv-x="442" 
d="M97 769c-16 0 -22 11 -13 24l58 89c6 9 14 13 24 13h77c17 0 22 -12 11 -25l-76 -90c-7 -8 -15 -11 -25 -11h-56zM257 769c-16 0 -22 11 -13 24l58 89c6 9 14 13 24 13h77c17 0 22 -12 11 -25l-76 -90c-7 -8 -15 -11 -25 -11h-56zM221 -12c-112 0 -188 77 -188 193v338
c0 116 76 193 188 193s188 -77 188 -193v-338c0 -116 -76 -193 -188 -193zM221 125c25 0 40 16 40 44v362c0 28 -15 44 -40 44s-40 -16 -40 -44v-362c0 -28 15 -44 40 -44z" />
    <glyph glyph-name="Omacron" unicode="&#x14c;" horiz-adv-x="442" 
d="M124 842c0 13 7 20 20 20h151c13 0 20 -7 20 -20v-40c0 -13 -7 -20 -20 -20h-151c-13 0 -20 7 -20 20v40zM221 -12c-112 0 -188 77 -188 193v338c0 116 76 193 188 193s188 -77 188 -193v-338c0 -116 -76 -193 -188 -193zM221 125c25 0 40 16 40 44v362
c0 28 -15 44 -40 44s-40 -16 -40 -44v-362c0 -28 15 -44 40 -44z" />
    <glyph glyph-name="Oslash" unicode="&#xd8;" horiz-adv-x="444" 
d="M347 669c40 -34 63 -86 63 -150v-338c0 -116 -76 -193 -188 -193c-26 0 -51 4 -73 12l-8 -28c-3 -12 -11 -17 -22 -17h-35c-14 0 -21 10 -17 23l19 63c-33 34 -52 82 -52 140v338c0 116 76 193 188 193c21 0 41 -3 60 -8l7 24c3 12 11 17 22 17h35c14 0 21 -10 17 -23z
M262 169v362c0 28 -15 44 -40 44s-40 -16 -40 -44v-362c0 -28 15 -44 40 -44s40 16 40 44z" />
    <glyph glyph-name="Otilde" unicode="&#xd5;" horiz-adv-x="442" 
d="M185 791c-5 0 -9 -2 -12 -7c-6 -11 -11 -17 -22 -17h-38c-13 0 -21 8 -20 21c1 20 21 79 84 79c41 0 61 -25 77 -25c6 0 11 3 14 7c4 6 7 17 21 17h39c12 0 20 -5 19 -21c-2 -29 -27 -79 -83 -79c-39 0 -60 25 -79 25zM221 -12c-112 0 -188 77 -188 193v338
c0 116 76 193 188 193s188 -77 188 -193v-338c0 -116 -76 -193 -188 -193zM221 125c25 0 40 16 40 44v362c0 28 -15 44 -40 44s-40 -16 -40 -44v-362c0 -28 15 -44 40 -44z" />
    <glyph glyph-name="OE" unicode="&#x152;" horiz-adv-x="581" 
d="M218 -12c-110 0 -185 77 -185 193v338c0 116 75 193 185 193c46 0 86 -17 116 -47c29 25 66 40 107 40h102c13 0 20 -7 20 -20v-95c0 -13 -7 -20 -20 -20h-82c-38 0 -60 -23 -60 -63v-90h117c13 0 20 -7 20 -20v-90c0 -13 -7 -20 -20 -20h-117v-94c0 -40 22 -63 60 -63
h82c13 0 20 -7 20 -20v-95c0 -13 -7 -20 -20 -20h-102c-41 0 -78 16 -107 45c-30 -34 -69 -52 -116 -52zM218 125c24 0 38 16 38 44v362c0 28 -14 44 -38 44s-39 -16 -39 -44v-362c0 -28 15 -44 39 -44z" />
    <glyph glyph-name="P" unicode="P" horiz-adv-x="423" 
d="M58 0c-13 0 -20 7 -20 20v499c0 116 73 193 181 193c112 0 188 -77 188 -193v-91c0 -116 -74 -193 -185 -193h-37v-215c0 -13 -7 -20 -20 -20h-107zM185 370h27c33 0 47 16 47 53v108c0 27 -14 43 -38 43c-22 0 -36 -16 -36 -43v-161z" />
    <glyph glyph-name="Thorn" unicode="&#xde;" horiz-adv-x="427" 
d="M62 0c-13 0 -20 7 -20 20v660c0 13 7 20 20 20h107c13 0 20 -7 20 -20v-106h37c111 0 185 -77 185 -193v-58c0 -116 -74 -193 -185 -193h-37v-110c0 -13 -7 -20 -20 -20h-107zM189 265h27c33 0 47 16 47 53v68c0 37 -14 53 -47 53h-27v-174z" />
    <glyph glyph-name="Q" unicode="Q" horiz-adv-x="450" 
d="M425 48c10 -10 9 -19 0 -28l-58 -56c-9 -9 -19 -9 -28 0l-39 39c-23 -10 -49 -15 -78 -15c-112 0 -188 77 -188 193v338c0 116 76 193 188 193s188 -77 188 -193v-338c0 -36 -8 -69 -21 -97zM182 169c0 -28 15 -44 40 -44s40 16 40 44v362c0 28 -15 44 -40 44
s-40 -16 -40 -44v-362z" />
    <glyph glyph-name="R" unicode="R" horiz-adv-x="453" 
d="M58 0c-13 0 -20 7 -20 20v499c0 116 73 193 182 193c113 0 189 -77 189 -193v-91c0 -67 -24 -120 -66 -154l91 -254c4 -12 -7 -20 -20 -20h-114c-13 0 -16 8 -20 20l-69 215h-25v-215c0 -13 -7 -20 -20 -20h-108zM186 370h27c33 0 47 16 47 53v108c0 27 -14 43 -38 43
c-22 0 -36 -16 -36 -43v-161z" />
    <glyph glyph-name="Racute" unicode="&#x154;" horiz-adv-x="453" 
d="M172 769c-16 0 -22 11 -13 24l58 89c6 9 14 13 24 13h77c17 0 22 -12 11 -25l-76 -90c-7 -8 -15 -11 -25 -11h-56zM58 0c-13 0 -20 7 -20 20v499c0 116 73 193 182 193c113 0 189 -77 189 -193v-91c0 -67 -24 -120 -66 -154l91 -254c4 -12 -7 -20 -20 -20h-114
c-13 0 -16 8 -20 20l-69 215h-25v-215c0 -13 -7 -20 -20 -20h-108zM186 370h27c33 0 47 16 47 53v108c0 27 -14 43 -38 43c-22 0 -36 -16 -36 -43v-161z" />
    <glyph glyph-name="Rcaron" unicode="&#x158;" horiz-adv-x="453" 
d="M349 871l-58 -89c-6 -9 -15 -13 -25 -13h-83c-10 0 -19 4 -25 13l-58 89c-9 13 -3 24 13 24h54c10 0 18 -4 24 -12l34 -42l33 42c6 8 14 12 24 12h54c16 0 22 -11 13 -24zM58 0c-13 0 -20 7 -20 20v499c0 116 73 193 182 193c113 0 189 -77 189 -193v-91
c0 -67 -24 -120 -66 -154l91 -254c4 -12 -7 -20 -20 -20h-114c-13 0 -16 8 -20 20l-69 215h-25v-215c0 -13 -7 -20 -20 -20h-108zM186 370h27c33 0 47 16 47 53v108c0 27 -14 43 -38 43c-22 0 -36 -16 -36 -43v-161z" />
    <glyph glyph-name="Rcommaaccent" unicode="&#x156;" horiz-adv-x="453" 
d="M58 0c-13 0 -20 7 -20 20v499c0 116 73 193 182 193c113 0 189 -77 189 -193v-91c0 -67 -24 -120 -66 -154l91 -254c4 -12 -7 -20 -20 -20h-114c-13 0 -16 8 -20 20l-69 215h-25v-215c0 -13 -7 -20 -20 -20h-108zM186 370h27c33 0 47 16 47 53v108c0 27 -14 43 -38 43
c-22 0 -36 -16 -36 -43v-161zM166 -71c1 12 8 19 20 19h79c13 0 21 -9 18 -22l-40 -201c-2 -12 -9 -18 -21 -18h-46c-13 0 -21 7 -20 21z" />
    <glyph glyph-name="S" unicode="S" horiz-adv-x="412" 
d="M206 -12c-113 0 -182 79 -186 213c0 14 6 21 19 21h107c12 0 19 -7 20 -20c2 -53 16 -77 43 -77c23 0 35 17 35 42c0 127 -218 191 -218 377c0 107 71 168 174 168c110 0 178 -75 182 -203c0 -14 -6 -21 -19 -21h-106c-12 0 -20 7 -20 21c-1 46 -13 67 -34 67
c-19 0 -31 -10 -31 -32c0 -110 220 -177 220 -377c0 -112 -75 -179 -186 -179z" />
    <glyph glyph-name="Sacute" unicode="&#x15a;" horiz-adv-x="412" 
d="M149 769c-16 0 -22 11 -13 24l58 89c6 9 14 13 24 13h77c17 0 22 -12 11 -25l-76 -90c-7 -8 -15 -11 -25 -11h-56zM206 -12c-113 0 -182 79 -186 213c0 14 6 21 19 21h107c12 0 19 -7 20 -20c2 -53 16 -77 43 -77c23 0 35 17 35 42c0 127 -218 191 -218 377
c0 107 71 168 174 168c110 0 178 -75 182 -203c0 -14 -6 -21 -19 -21h-106c-12 0 -20 7 -20 21c-1 46 -13 67 -34 67c-19 0 -31 -10 -31 -32c0 -110 220 -177 220 -377c0 -112 -75 -179 -186 -179z" />
    <glyph glyph-name="Scaron" unicode="&#x160;" horiz-adv-x="412" 
d="M326 871l-58 -89c-6 -9 -15 -13 -25 -13h-83c-10 0 -19 4 -25 13l-58 89c-9 13 -3 24 13 24h54c10 0 18 -4 24 -12l34 -42l33 42c6 8 14 12 24 12h54c16 0 22 -11 13 -24zM206 -12c-113 0 -182 79 -186 213c0 14 6 21 19 21h107c12 0 19 -7 20 -20c2 -53 16 -77 43 -77
c23 0 35 17 35 42c0 127 -218 191 -218 377c0 107 71 168 174 168c110 0 178 -75 182 -203c0 -14 -6 -21 -19 -21h-106c-12 0 -20 7 -20 21c-1 46 -13 67 -34 67c-19 0 -31 -10 -31 -32c0 -110 220 -177 220 -377c0 -112 -75 -179 -186 -179z" />
    <glyph glyph-name="Scedilla" unicode="&#x15e;" horiz-adv-x="412" 
d="M392 167c0 -103 -63 -168 -160 -178l-6 -33h5c39 -3 70 -33 70 -75c0 -59 -44 -93 -102 -93c-49 0 -88 28 -96 76c-3 13 6 21 19 21h26c11 0 15 -6 22 -16c6 -8 17 -13 29 -13c18 0 32 9 32 25c0 15 -14 25 -32 25c-13 0 -24 -1 -35 -3c-5 -1 -9 0 -13 4l-5 4
c-4 4 -5 7 -4 13l15 70c-84 20 -134 94 -137 207c0 14 6 21 19 21h107c12 0 19 -7 20 -20c2 -53 16 -77 43 -77c23 0 35 17 35 42c0 127 -218 191 -218 377c0 107 71 168 174 168c110 0 178 -75 182 -203c0 -14 -6 -21 -19 -21h-106c-12 0 -20 7 -20 21c-1 46 -13 67 -34 67
c-19 0 -31 -10 -31 -32c0 -110 220 -177 220 -377z" />
    <glyph glyph-name="Scommaaccent" unicode="&#x218;" horiz-adv-x="412" 
d="M206 -12c-113 0 -182 79 -186 213c0 14 6 21 19 21h107c12 0 19 -7 20 -20c2 -53 16 -77 43 -77c23 0 35 17 35 42c0 127 -218 191 -218 377c0 107 71 168 174 168c110 0 178 -75 182 -203c0 -14 -6 -21 -19 -21h-106c-12 0 -20 7 -20 21c-1 46 -13 67 -34 67
c-19 0 -31 -10 -31 -32c0 -110 220 -177 220 -377c0 -112 -75 -179 -186 -179zM143 -71c1 12 8 19 20 19h79c13 0 21 -9 18 -22l-40 -201c-2 -12 -9 -18 -21 -18h-46c-13 0 -21 7 -20 21z" />
    <glyph glyph-name="T" unicode="T" horiz-adv-x="376" 
d="M348 700c13 0 20 -7 20 -20v-95c0 -13 -7 -20 -20 -20h-87v-545c0 -13 -7 -20 -20 -20h-106c-13 0 -20 7 -20 20v545h-87c-13 0 -20 7 -20 20v95c0 13 7 20 20 20h320z" />
    <glyph glyph-name="Tbar" unicode="&#x166;" horiz-adv-x="380" 
d="M350 700c13 0 20 -7 20 -20v-95c0 -13 -7 -20 -20 -20h-87v-137h57c13 0 20 -7 20 -20v-56c0 -13 -7 -20 -20 -20h-57v-312c0 -13 -7 -20 -20 -20h-106c-13 0 -20 7 -20 20v312h-57c-13 0 -20 7 -20 20v56c0 13 7 20 20 20h57v137h-87c-13 0 -20 7 -20 20v95
c0 13 7 20 20 20h320z" />
    <glyph glyph-name="Tcaron" unicode="&#x164;" horiz-adv-x="376" 
d="M312 871l-58 -89c-6 -9 -15 -13 -25 -13h-83c-10 0 -19 4 -25 13l-58 89c-9 13 -3 24 13 24h54c10 0 18 -4 24 -12l34 -42l33 42c6 8 14 12 24 12h54c16 0 22 -11 13 -24zM348 700c13 0 20 -7 20 -20v-95c0 -13 -7 -20 -20 -20h-87v-545c0 -13 -7 -20 -20 -20h-106
c-13 0 -20 7 -20 20v545h-87c-13 0 -20 7 -20 20v95c0 13 7 20 20 20h320z" />
    <glyph glyph-name="uni0162" unicode="&#x162;" horiz-adv-x="376" 
d="M348 700c13 0 20 -7 20 -20v-95c0 -13 -7 -20 -20 -20h-87v-545c0 -13 -7 -20 -20 -20h-106c-13 0 -20 7 -20 20v545h-87c-13 0 -20 7 -20 20v95c0 13 7 20 20 20h320zM129 -71c1 12 8 19 20 19h79c13 0 21 -9 18 -22l-40 -201c-2 -12 -9 -18 -21 -18h-46
c-13 0 -21 7 -20 21z" />
    <glyph glyph-name="uni021A" unicode="&#x21a;" horiz-adv-x="376" 
d="M348 700c13 0 20 -7 20 -20v-95c0 -13 -7 -20 -20 -20h-87v-545c0 -13 -7 -20 -20 -20h-106c-13 0 -20 7 -20 20v545h-87c-13 0 -20 7 -20 20v95c0 13 7 20 20 20h320zM129 -71c1 12 8 19 20 19h79c13 0 21 -9 18 -22l-40 -201c-2 -12 -9 -18 -21 -18h-46
c-13 0 -21 7 -20 21z" />
    <glyph glyph-name="U" unicode="U" horiz-adv-x="444" 
d="M58 700h107c13 0 20 -7 20 -20v-512c0 -27 13 -43 37 -43s37 16 37 43v512c0 13 7 20 20 20h107c13 0 20 -7 20 -20v-500c0 -115 -73 -192 -184 -192s-184 77 -184 192v500c0 13 7 20 20 20z" />
    <glyph glyph-name="Uacute" unicode="&#xda;" horiz-adv-x="444" 
d="M169 769c-16 0 -22 11 -13 24l58 89c6 9 14 13 24 13h77c17 0 22 -12 11 -25l-76 -90c-7 -8 -15 -11 -25 -11h-56zM58 700h107c13 0 20 -7 20 -20v-512c0 -27 13 -43 37 -43s37 16 37 43v512c0 13 7 20 20 20h107c13 0 20 -7 20 -20v-500c0 -115 -73 -192 -184 -192
s-184 77 -184 192v500c0 13 7 20 20 20z" />
    <glyph glyph-name="Ucircumflex" unicode="&#xdb;" horiz-adv-x="444" 
d="M346 793c9 -13 3 -24 -13 -24h-54c-10 0 -18 4 -24 12l-33 42l-34 -42c-6 -8 -14 -12 -24 -12h-54c-16 0 -22 11 -13 24l58 89c6 9 15 13 25 13h83c10 0 19 -4 25 -13zM58 700h107c13 0 20 -7 20 -20v-512c0 -27 13 -43 37 -43s37 16 37 43v512c0 13 7 20 20 20h107
c13 0 20 -7 20 -20v-500c0 -115 -73 -192 -184 -192s-184 77 -184 192v500c0 13 7 20 20 20z" />
    <glyph glyph-name="Udieresis" unicode="&#xdc;" horiz-adv-x="444" 
d="M147 768c-35 0 -57 23 -57 57s22 57 57 57c33 0 56 -23 56 -57s-23 -57 -56 -57zM297 768c-33 0 -56 23 -56 57s23 57 56 57c35 0 57 -23 57 -57s-22 -57 -57 -57zM58 700h107c13 0 20 -7 20 -20v-512c0 -27 13 -43 37 -43s37 16 37 43v512c0 13 7 20 20 20h107
c13 0 20 -7 20 -20v-500c0 -115 -73 -192 -184 -192s-184 77 -184 192v500c0 13 7 20 20 20z" />
    <glyph glyph-name="Ugrave" unicode="&#xd9;" horiz-adv-x="444" 
d="M295 769h-56c-10 0 -18 3 -25 11l-76 90c-11 13 -6 25 11 25h77c10 0 18 -4 24 -13l58 -89c9 -13 3 -24 -13 -24zM58 700h107c13 0 20 -7 20 -20v-512c0 -27 13 -43 37 -43s37 16 37 43v512c0 13 7 20 20 20h107c13 0 20 -7 20 -20v-500c0 -115 -73 -192 -184 -192
s-184 77 -184 192v500c0 13 7 20 20 20z" />
    <glyph glyph-name="Uhungarumlaut" unicode="&#x170;" horiz-adv-x="444" 
d="M99 769c-16 0 -22 11 -13 24l58 89c6 9 14 13 24 13h77c17 0 22 -12 11 -25l-76 -90c-7 -8 -15 -11 -25 -11h-56zM259 769c-16 0 -22 11 -13 24l58 89c6 9 14 13 24 13h77c17 0 22 -12 11 -25l-76 -90c-7 -8 -15 -11 -25 -11h-56zM58 700h107c13 0 20 -7 20 -20v-512
c0 -27 13 -43 37 -43s37 16 37 43v512c0 13 7 20 20 20h107c13 0 20 -7 20 -20v-500c0 -115 -73 -192 -184 -192s-184 77 -184 192v500c0 13 7 20 20 20z" />
    <glyph glyph-name="Umacron" unicode="&#x16a;" horiz-adv-x="444" 
d="M126 842c0 13 7 20 20 20h151c13 0 20 -7 20 -20v-40c0 -13 -7 -20 -20 -20h-151c-13 0 -20 7 -20 20v40zM58 700h107c13 0 20 -7 20 -20v-512c0 -27 13 -43 37 -43s37 16 37 43v512c0 13 7 20 20 20h107c13 0 20 -7 20 -20v-500c0 -115 -73 -192 -184 -192
s-184 77 -184 192v500c0 13 7 20 20 20z" />
    <glyph glyph-name="Uogonek" unicode="&#x172;" horiz-adv-x="444" 
d="M259 680c0 13 7 20 20 20h107c13 0 20 -7 20 -20v-500c0 -77 -35 -118 -70 -158c-27 -30 -47 -58 -47 -90c0 -27 15 -45 51 -42c13 1 20 -6 20 -19v-61c0 -12 -7 -19 -19 -20c-123 -9 -174 18 -174 92c0 41 16 77 40 106h-4c-101 9 -165 83 -165 192v500c0 13 7 20 20 20
h107c13 0 20 -7 20 -20v-512c0 -27 13 -43 37 -43s37 16 37 43v512z" />
    <glyph glyph-name="Uring" unicode="&#x16e;" horiz-adv-x="444" 
d="M136 832c0 49 34 82 86 82s86 -33 86 -82c0 -51 -34 -84 -86 -84s-86 33 -86 84zM199 831c0 -14 9 -23 23 -23s23 9 23 23s-9 23 -23 23s-23 -9 -23 -23zM58 700h107c13 0 20 -7 20 -20v-512c0 -27 13 -43 37 -43s37 16 37 43v512c0 13 7 20 20 20h107c13 0 20 -7 20 -20
v-500c0 -115 -73 -192 -184 -192s-184 77 -184 192v500c0 13 7 20 20 20z" />
    <glyph glyph-name="V" unicode="V" horiz-adv-x="422" 
d="M404 700c13 0 20 -7 18 -21l-103 -628c-5 -37 -27 -56 -64 -56h-87c-37 0 -59 20 -64 56l-104 628c-2 14 5 21 18 21h111c12 0 20 -6 21 -19l61 -492l61 492c2 13 9 19 21 19h111z" />
    <glyph glyph-name="W" unicode="W" horiz-adv-x="642" 
d="M584 700c13 0 20 -7 20 -20v-499c0 -116 -71 -193 -178 -193c-42 0 -77 13 -106 35c-28 -22 -62 -35 -104 -35c-107 0 -178 77 -178 193v499c0 13 7 20 20 20h105c13 0 20 -7 20 -20v-511c0 -27 12 -43 33 -43s33 16 33 43v511c0 13 7 20 20 20h104c13 0 20 -7 20 -20
v-511c0 -27 12 -43 33 -43s33 16 33 43v511c0 13 7 20 20 20h105z" />
    <glyph glyph-name="Wacute" unicode="&#x1e82;" horiz-adv-x="642" 
d="M268 769c-16 0 -22 11 -13 24l58 89c6 9 14 13 24 13h77c17 0 22 -12 11 -25l-76 -90c-7 -8 -15 -11 -25 -11h-56zM584 700c13 0 20 -7 20 -20v-499c0 -116 -71 -193 -178 -193c-42 0 -77 13 -106 35c-28 -22 -62 -35 -104 -35c-107 0 -178 77 -178 193v499
c0 13 7 20 20 20h105c13 0 20 -7 20 -20v-511c0 -27 12 -43 33 -43s33 16 33 43v511c0 13 7 20 20 20h104c13 0 20 -7 20 -20v-511c0 -27 12 -43 33 -43s33 16 33 43v511c0 13 7 20 20 20h105z" />
    <glyph glyph-name="Wcircumflex" unicode="&#x174;" horiz-adv-x="642" 
d="M209 769c-16 0 -22 11 -13 24l58 89c6 9 15 13 25 13h83c10 0 19 -4 25 -13l58 -89c9 -13 3 -24 -13 -24h-54c-10 0 -18 4 -24 12l-33 42l-34 -42c-6 -8 -14 -12 -24 -12h-54zM584 700c13 0 20 -7 20 -20v-499c0 -116 -71 -193 -178 -193c-42 0 -77 13 -106 35
c-28 -22 -62 -35 -104 -35c-107 0 -178 77 -178 193v499c0 13 7 20 20 20h105c13 0 20 -7 20 -20v-511c0 -27 12 -43 33 -43s33 16 33 43v511c0 13 7 20 20 20h104c13 0 20 -7 20 -20v-511c0 -27 12 -43 33 -43s33 16 33 43v511c0 13 7 20 20 20h105z" />
    <glyph glyph-name="Wdieresis" unicode="&#x1e84;" horiz-adv-x="642" 
d="M246 768c-35 0 -57 23 -57 57s22 57 57 57c33 0 56 -23 56 -57s-23 -57 -56 -57zM396 768c-33 0 -56 23 -56 57s23 57 56 57c35 0 57 -23 57 -57s-22 -57 -57 -57zM584 700c13 0 20 -7 20 -20v-499c0 -116 -71 -193 -178 -193c-42 0 -77 13 -106 35
c-28 -22 -62 -35 -104 -35c-107 0 -178 77 -178 193v499c0 13 7 20 20 20h105c13 0 20 -7 20 -20v-511c0 -27 12 -43 33 -43s33 16 33 43v511c0 13 7 20 20 20h104c13 0 20 -7 20 -20v-511c0 -27 12 -43 33 -43s33 16 33 43v511c0 13 7 20 20 20h105z" />
    <glyph glyph-name="Wgrave" unicode="&#x1e80;" horiz-adv-x="642" 
d="M313 780l-76 90c-11 13 -6 25 11 25h77c10 0 18 -4 24 -13l58 -89c9 -13 3 -24 -13 -24h-56c-10 0 -18 3 -25 11zM584 700c13 0 20 -7 20 -20v-499c0 -116 -71 -193 -178 -193c-42 0 -77 13 -106 35c-28 -22 -62 -35 -104 -35c-107 0 -178 77 -178 193v499
c0 13 7 20 20 20h105c13 0 20 -7 20 -20v-511c0 -27 12 -43 33 -43s33 16 33 43v511c0 13 7 20 20 20h104c13 0 20 -7 20 -20v-511c0 -27 12 -43 33 -43s33 16 33 43v511c0 13 7 20 20 20h105z" />
    <glyph glyph-name="X" unicode="X" horiz-adv-x="430" 
d="M397 680v-202c0 -49 -17 -92 -49 -124c32 -32 49 -75 49 -124v-210c0 -13 -7 -20 -20 -20h-107c-13 0 -20 7 -20 20v222c0 27 -13 43 -35 43s-35 -16 -35 -43v-222c0 -13 -7 -20 -20 -20h-107c-13 0 -20 7 -20 20v210c0 49 17 92 49 124c-32 32 -49 75 -49 124v202
c0 13 7 20 20 20h107c13 0 20 -7 20 -20v-214c0 -27 13 -43 35 -43s35 16 35 43v214c0 13 7 20 20 20h107c13 0 20 -7 20 -20z" />
    <glyph glyph-name="Y" unicode="Y" horiz-adv-x="420" 
d="M157 0c-13 0 -20 7 -20 20v210c-67 27 -109 92 -109 180v270c0 13 7 20 20 20h106c13 0 20 -7 20 -20v-282c0 -27 13 -43 36 -43s36 16 36 43v282c0 13 7 20 20 20h106c13 0 20 -7 20 -20v-270c0 -88 -42 -153 -109 -180v-210c0 -13 -7 -20 -20 -20h-106z" />
    <glyph glyph-name="Yacute" unicode="&#xdd;" horiz-adv-x="420" 
d="M157 769c-16 0 -22 11 -13 24l58 89c6 9 14 13 24 13h77c17 0 22 -12 11 -25l-76 -90c-7 -8 -15 -11 -25 -11h-56zM157 0c-13 0 -20 7 -20 20v210c-67 27 -109 92 -109 180v270c0 13 7 20 20 20h106c13 0 20 -7 20 -20v-282c0 -27 13 -43 36 -43s36 16 36 43v282
c0 13 7 20 20 20h106c13 0 20 -7 20 -20v-270c0 -88 -42 -153 -109 -180v-210c0 -13 -7 -20 -20 -20h-106z" />
    <glyph glyph-name="Ycircumflex" unicode="&#x176;" horiz-adv-x="420" 
d="M334 793c9 -13 3 -24 -13 -24h-54c-10 0 -18 4 -24 12l-33 42l-34 -42c-6 -8 -14 -12 -24 -12h-54c-16 0 -22 11 -13 24l58 89c6 9 15 13 25 13h83c10 0 19 -4 25 -13zM157 0c-13 0 -20 7 -20 20v210c-67 27 -109 92 -109 180v270c0 13 7 20 20 20h106c13 0 20 -7 20 -20
v-282c0 -27 13 -43 36 -43s36 16 36 43v282c0 13 7 20 20 20h106c13 0 20 -7 20 -20v-270c0 -88 -42 -153 -109 -180v-210c0 -13 -7 -20 -20 -20h-106z" />
    <glyph glyph-name="Ydieresis" unicode="&#x178;" horiz-adv-x="420" 
d="M135 768c-35 0 -57 23 -57 57s22 57 57 57c33 0 56 -23 56 -57s-23 -57 -56 -57zM285 768c-33 0 -56 23 -56 57s23 57 56 57c35 0 57 -23 57 -57s-22 -57 -57 -57zM157 0c-13 0 -20 7 -20 20v210c-67 27 -109 92 -109 180v270c0 13 7 20 20 20h106c13 0 20 -7 20 -20
v-282c0 -27 13 -43 36 -43s36 16 36 43v282c0 13 7 20 20 20h106c13 0 20 -7 20 -20v-270c0 -88 -42 -153 -109 -180v-210c0 -13 -7 -20 -20 -20h-106z" />
    <glyph glyph-name="Ygrave" unicode="&#x1ef2;" horiz-adv-x="420" 
d="M283 769h-56c-10 0 -18 3 -25 11l-76 90c-11 13 -6 25 11 25h77c10 0 18 -4 24 -13l58 -89c9 -13 3 -24 -13 -24zM157 0c-13 0 -20 7 -20 20v210c-67 27 -109 92 -109 180v270c0 13 7 20 20 20h106c13 0 20 -7 20 -20v-282c0 -27 13 -43 36 -43s36 16 36 43v282
c0 13 7 20 20 20h106c13 0 20 -7 20 -20v-270c0 -88 -42 -153 -109 -180v-210c0 -13 -7 -20 -20 -20h-106z" />
    <glyph glyph-name="Z" unicode="Z" horiz-adv-x="408" 
d="M177 135h191c13 0 20 -7 20 -20v-95c0 -13 -7 -20 -20 -20h-279c-44 0 -68 24 -68 68v17c0 35 3 58 16 85l189 395h-163c-13 0 -20 7 -20 20v95c0 13 7 20 20 20h248c44 0 70 -20 70 -64v-18c0 -34 0 -58 -14 -85z" />
    <glyph glyph-name="Zacute" unicode="&#x179;" horiz-adv-x="408" 
d="M147 769c-16 0 -22 11 -13 24l58 89c6 9 14 13 24 13h77c17 0 22 -12 11 -25l-76 -90c-7 -8 -15 -11 -25 -11h-56zM177 135h191c13 0 20 -7 20 -20v-95c0 -13 -7 -20 -20 -20h-279c-44 0 -68 24 -68 68v17c0 35 3 58 16 85l189 395h-163c-13 0 -20 7 -20 20v95
c0 13 7 20 20 20h248c44 0 70 -20 70 -64v-18c0 -34 0 -58 -14 -85z" />
    <glyph glyph-name="Zcaron" unicode="&#x17d;" horiz-adv-x="408" 
d="M324 871l-58 -89c-6 -9 -15 -13 -25 -13h-83c-10 0 -19 4 -25 13l-58 89c-9 13 -3 24 13 24h54c10 0 18 -4 24 -12l34 -42l33 42c6 8 14 12 24 12h54c16 0 22 -11 13 -24zM177 135h191c13 0 20 -7 20 -20v-95c0 -13 -7 -20 -20 -20h-279c-44 0 -68 24 -68 68v17
c0 35 3 58 16 85l189 395h-163c-13 0 -20 7 -20 20v95c0 13 7 20 20 20h248c44 0 70 -20 70 -64v-18c0 -34 0 -58 -14 -85z" />
    <glyph glyph-name="Zdotaccent" unicode="&#x17b;" horiz-adv-x="408" 
d="M200 758c-44 0 -75 33 -75 75c0 43 31 75 75 75c42 0 75 -32 75 -75c0 -40 -33 -75 -75 -75zM177 135h191c13 0 20 -7 20 -20v-95c0 -13 -7 -20 -20 -20h-279c-44 0 -68 24 -68 68v17c0 35 3 58 16 85l189 395h-163c-13 0 -20 7 -20 20v95c0 13 7 20 20 20h248
c44 0 70 -20 70 -64v-18c0 -34 0 -58 -14 -85z" />
    <glyph glyph-name="uni0162.ss01" horiz-adv-x="380" 
d="M350 700c13 0 20 -7 20 -20v-95c0 -13 -7 -20 -20 -20h-87v-545c0 -13 -7 -20 -20 -20h-14l-8 -44h5c39 -3 70 -33 70 -75c0 -59 -44 -93 -102 -93c-49 0 -88 28 -96 76c-3 13 6 21 19 21h26c11 0 15 -6 22 -16c6 -8 17 -13 29 -13c18 0 32 9 32 25c0 15 -14 25 -32 25
c-13 0 -24 -1 -35 -3c-5 -1 -9 0 -13 4l-5 4c-4 4 -5 7 -4 13l16 76h-16c-13 0 -20 7 -20 20v545h-87c-13 0 -20 7 -20 20v95c0 13 7 20 20 20h320z" />
    <glyph glyph-name="a" unicode="a" horiz-adv-x="390" 
d="M198 -12c-106 0 -176 69 -176 171c0 91 68 154 167 154h34v35c0 21 -10 34 -29 34c-22 0 -28 -13 -29 -28c-1 -12 -7 -14 -20 -14h-97c-13 0 -20 7 -19 20c8 92 73 152 167 152c99 0 165 -69 165 -173v-187c0 -99 -59 -164 -163 -164zM196 119c18 0 27 12 27 32v43h-25
c-24 0 -37 -13 -37 -35c0 -25 13 -40 35 -40z" />
    <glyph glyph-name="aacute" unicode="&#xe1;" horiz-adv-x="390" 
d="M278 684c17 0 21 -11 11 -24l-72 -90c-6 -8 -14 -12 -24 -12h-57c-16 0 -21 10 -13 24l53 88c5 9 13 14 24 14h78zM198 -12c-106 0 -176 69 -176 171c0 91 68 154 167 154h34v35c0 21 -10 34 -29 34c-22 0 -28 -13 -29 -28c-1 -12 -7 -14 -20 -14h-97c-13 0 -20 7 -19 20
c8 92 73 152 167 152c99 0 165 -69 165 -173v-187c0 -99 -59 -164 -163 -164zM196 119c18 0 27 12 27 32v43h-25c-24 0 -37 -13 -37 -35c0 -25 13 -40 35 -40z" />
    <glyph glyph-name="abreve" unicode="&#x103;" horiz-adv-x="390" 
d="M194 559c-68 0 -115 41 -124 105c-1 14 7 21 20 21h50c12 0 16 -6 21 -18c6 -11 17 -18 33 -18s27 7 33 18c5 12 9 18 21 18h50c13 0 21 -8 20 -21c-9 -64 -56 -105 -124 -105zM198 -12c-106 0 -176 69 -176 171c0 91 68 154 167 154h34v35c0 21 -10 34 -29 34
c-22 0 -28 -13 -29 -28c-1 -12 -7 -14 -20 -14h-97c-13 0 -20 7 -19 20c8 92 73 152 167 152c99 0 165 -69 165 -173v-187c0 -99 -59 -164 -163 -164zM196 119c18 0 27 12 27 32v43h-25c-24 0 -37 -13 -37 -35c0 -25 13 -40 35 -40z" />
    <glyph glyph-name="acircumflex" unicode="&#xe2;" horiz-adv-x="390" 
d="M85 559c-16 0 -22 11 -14 24l57 89c6 10 14 13 24 13h83c10 0 18 -3 24 -13l57 -89c8 -13 2 -24 -14 -24h-54c-10 0 -18 3 -24 12l-30 42l-31 -42c-6 -9 -14 -12 -24 -12h-54zM198 -12c-106 0 -176 69 -176 171c0 91 68 154 167 154h34v35c0 21 -10 34 -29 34
c-22 0 -28 -13 -29 -28c-1 -12 -7 -14 -20 -14h-97c-13 0 -20 7 -19 20c8 92 73 152 167 152c99 0 165 -69 165 -173v-187c0 -99 -59 -164 -163 -164zM196 119c18 0 27 12 27 32v43h-25c-24 0 -37 -13 -37 -35c0 -25 13 -40 35 -40z" />
    <glyph glyph-name="adieresis" unicode="&#xe4;" horiz-adv-x="390" 
d="M119 568c-35 0 -57 23 -57 57s22 57 57 57c33 0 56 -23 56 -57s-23 -57 -56 -57zM269 568c-33 0 -56 23 -56 57s23 57 56 57c35 0 57 -23 57 -57s-22 -57 -57 -57zM198 -12c-106 0 -176 69 -176 171c0 91 68 154 167 154h34v35c0 21 -10 34 -29 34c-22 0 -28 -13 -29 -28
c-1 -12 -7 -14 -20 -14h-97c-13 0 -20 7 -19 20c8 92 73 152 167 152c99 0 165 -69 165 -173v-187c0 -99 -59 -164 -163 -164zM196 119c18 0 27 12 27 32v43h-25c-24 0 -37 -13 -37 -35c0 -25 13 -40 35 -40z" />
    <glyph glyph-name="agrave" unicode="&#xe0;" horiz-adv-x="390" 
d="M89 685h78c11 0 19 -5 24 -14l53 -88c8 -14 3 -24 -13 -24h-57c-10 0 -18 4 -24 12l-72 90c-10 13 -6 24 11 24zM198 -12c-106 0 -176 69 -176 171c0 91 68 154 167 154h34v35c0 21 -10 34 -29 34c-22 0 -28 -13 -29 -28c-1 -12 -7 -14 -20 -14h-97c-13 0 -20 7 -19 20
c8 92 73 152 167 152c99 0 165 -69 165 -173v-187c0 -99 -59 -164 -163 -164zM196 119c18 0 27 12 27 32v43h-25c-24 0 -37 -13 -37 -35c0 -25 13 -40 35 -40z" />
    <glyph glyph-name="amacron" unicode="&#x101;" horiz-adv-x="390" 
d="M98 639c0 13 7 20 20 20h151c13 0 20 -7 20 -20v-40c0 -13 -7 -20 -20 -20h-151c-13 0 -20 7 -20 20v40zM198 -12c-106 0 -176 69 -176 171c0 91 68 154 167 154h34v35c0 21 -10 34 -29 34c-22 0 -28 -13 -29 -28c-1 -12 -7 -14 -20 -14h-97c-13 0 -20 7 -19 20
c8 92 73 152 167 152c99 0 165 -69 165 -173v-187c0 -99 -59 -164 -163 -164zM196 119c18 0 27 12 27 32v43h-25c-24 0 -37 -13 -37 -35c0 -25 13 -40 35 -40z" />
    <glyph glyph-name="aogonek" unicode="&#x105;" horiz-adv-x="391" 
d="M324 -210c-94 -9 -174 10 -174 92c0 40 16 76 40 106h-8c-97 7 -160 75 -160 171c0 91 68 154 168 154h34v35c0 21 -10 34 -29 34c-23 0 -30 -11 -31 -23s-7 -14 -20 -14h-97c-13 0 -20 7 -19 20c8 89 74 147 169 147c99 0 165 -69 165 -173v-187c0 -53 -15 -95 -43 -125
c-29 -33 -45 -67 -45 -95c0 -23 14 -42 49 -42c13 0 20 -6 20 -19v-61c0 -12 -7 -19 -19 -20zM195 119c20 0 29 12 29 32v43h-28c-22 0 -35 -13 -35 -35c0 -25 13 -40 34 -40z" />
    <glyph glyph-name="aring" unicode="&#xe5;" horiz-adv-x="390" 
d="M108 628c0 49 34 82 86 82s86 -33 86 -82c0 -51 -34 -84 -86 -84s-86 33 -86 84zM171 627c0 -14 9 -23 23 -23s23 9 23 23s-9 23 -23 23s-23 -9 -23 -23zM198 -12c-106 0 -176 69 -176 171c0 91 68 154 167 154h34v35c0 21 -10 34 -29 34c-22 0 -28 -13 -29 -28
c-1 -12 -7 -14 -20 -14h-97c-13 0 -20 7 -19 20c8 92 73 152 167 152c99 0 165 -69 165 -173v-187c0 -99 -59 -164 -163 -164zM196 119c18 0 27 12 27 32v43h-25c-24 0 -37 -13 -37 -35c0 -25 13 -40 35 -40z" />
    <glyph glyph-name="atilde" unicode="&#xe3;" horiz-adv-x="390" 
d="M158 591c-5 0 -9 -2 -12 -7c-6 -11 -11 -17 -22 -17h-38c-13 0 -21 8 -20 21c1 20 21 79 84 79c41 0 61 -25 77 -25c6 0 11 3 14 7c4 6 7 17 21 17h39c12 0 20 -5 19 -21c-2 -29 -27 -79 -83 -79c-39 0 -60 25 -79 25zM198 -12c-106 0 -176 69 -176 171
c0 91 68 154 167 154h34v35c0 21 -10 34 -29 34c-22 0 -28 -13 -29 -28c-1 -12 -7 -14 -20 -14h-97c-13 0 -20 7 -19 20c8 92 73 152 167 152c99 0 165 -69 165 -173v-187c0 -99 -59 -164 -163 -164zM196 119c18 0 27 12 27 32v43h-25c-24 0 -37 -13 -37 -35
c0 -25 13 -40 35 -40z" />
    <glyph glyph-name="ae" unicode="&#xe6;" horiz-adv-x="587" 
d="M199 -12c-107 0 -177 69 -177 171c0 91 68 154 168 154h34v35c0 21 -10 34 -29 34c-23 0 -30 -11 -31 -23s-7 -14 -20 -14h-97c-13 0 -20 7 -19 20c8 89 74 147 169 147c38 0 71 -12 97 -34c27 22 61 34 100 34c97 2 171 -65 171 -167c0 -95 -68 -158 -168 -158h-34v-35
c0 -21 10 -34 29 -34c14 0 24 6 28 18c4 13 9 19 21 19h99c13 0 20 -7 19 -20c-8 -89 -74 -147 -169 -147c-36 0 -68 11 -93 31c-26 -20 -59 -31 -98 -31zM363 308h34c18 0 29 11 29 34c0 28 -12 40 -32 40s-31 -13 -31 -34v-40zM195 119c20 0 29 12 29 32v43h-28
c-22 0 -35 -13 -35 -35c0 -25 13 -40 34 -40z" />
    <glyph glyph-name="b" unicode="b" horiz-adv-x="402" 
d="M231 512c87 0 142 -69 142 -173v-178c0 -104 -68 -173 -170 -173s-170 69 -170 173v519c0 13 7 20 20 20h98c13 0 20 -7 20 -20v-183c14 10 33 15 60 15zM235 152v196c0 21 -12 34 -32 34s-32 -13 -32 -34v-196c0 -21 12 -34 32 -34s32 13 32 34z" />
    <glyph glyph-name="c" unicode="c" horiz-adv-x="388" 
d="M200 -12c-102 0 -171 69 -171 173v178c0 104 68 173 168 173c96 0 161 -61 169 -162c1 -14 -6 -21 -19 -21h-101c-12 0 -18 7 -20 20c-4 25 -14 33 -29 33c-18 0 -29 -13 -29 -34v-196c0 -21 11 -34 30 -34c16 0 27 9 31 36c2 13 8 20 20 20h101c13 0 20 -8 19 -23
c-8 -102 -74 -163 -169 -163z" />
    <glyph glyph-name="cacute" unicode="&#x107;" horiz-adv-x="388" 
d="M282 684c17 0 21 -11 11 -24l-72 -90c-6 -8 -14 -12 -24 -12h-57c-16 0 -21 10 -13 24l53 88c5 9 13 14 24 14h78zM200 -12c-102 0 -171 69 -171 173v178c0 104 68 173 168 173c96 0 161 -61 169 -162c1 -14 -6 -21 -19 -21h-101c-12 0 -18 7 -20 20c-4 25 -14 33 -29 33
c-18 0 -29 -13 -29 -34v-196c0 -21 11 -34 30 -34c16 0 27 9 31 36c2 13 8 20 20 20h101c13 0 20 -8 19 -23c-8 -102 -74 -163 -169 -163z" />
    <glyph glyph-name="ccaron" unicode="&#x10d;" horiz-adv-x="388" 
d="M89 685h54c10 0 18 -3 24 -12l31 -42l30 42c6 9 14 12 24 12h54c16 0 22 -11 14 -24l-57 -89c-6 -10 -14 -13 -24 -13h-83c-10 0 -18 3 -24 13l-57 89c-8 13 -2 24 14 24zM200 -12c-102 0 -171 69 -171 173v178c0 104 68 173 168 173c96 0 161 -61 169 -162
c1 -14 -6 -21 -19 -21h-101c-12 0 -18 7 -20 20c-4 25 -14 33 -29 33c-18 0 -29 -13 -29 -34v-196c0 -21 11 -34 30 -34c16 0 27 9 31 36c2 13 8 20 20 20h101c13 0 20 -8 19 -23c-8 -102 -74 -163 -169 -163z" />
    <glyph glyph-name="ccedilla" unicode="&#xe7;" horiz-adv-x="388" 
d="M350 174c13 0 20 -8 19 -23c-7 -91 -61 -150 -140 -161l-6 -34h5c39 -3 70 -33 70 -75c0 -59 -44 -93 -102 -93c-49 0 -88 28 -96 76c-3 13 6 21 19 21h26c11 0 15 -6 22 -16c6 -8 17 -13 29 -13c18 0 32 9 32 25c0 15 -14 25 -32 25c-13 0 -24 -1 -35 -3
c-5 -1 -9 0 -13 4l-5 4c-4 4 -5 7 -4 13l15 69c-76 18 -125 81 -125 168v178c0 104 68 173 168 173c96 0 161 -61 169 -162c1 -14 -6 -21 -19 -21h-101c-12 0 -18 7 -20 20c-4 25 -14 33 -29 33c-18 0 -29 -13 -29 -34v-196c0 -21 11 -34 30 -34c16 0 27 9 31 36
c2 13 8 20 20 20h101z" />
    <glyph glyph-name="cdotaccent" unicode="&#x10b;" horiz-adv-x="388" 
d="M198 558c-44 0 -75 33 -75 75c0 43 31 75 75 75c42 0 75 -32 75 -75c0 -40 -33 -75 -75 -75zM200 -12c-102 0 -171 69 -171 173v178c0 104 68 173 168 173c96 0 161 -61 169 -162c1 -14 -6 -21 -19 -21h-101c-12 0 -18 7 -20 20c-4 25 -14 33 -29 33
c-18 0 -29 -13 -29 -34v-196c0 -21 11 -34 30 -34c16 0 27 9 31 36c2 13 8 20 20 20h101c13 0 20 -8 19 -23c-8 -102 -74 -163 -169 -163z" />
    <glyph glyph-name="d" unicode="d" horiz-adv-x="402" 
d="M349 700c13 0 20 -7 20 -20v-519c0 -104 -68 -173 -170 -173s-170 69 -170 173v178c0 104 55 173 142 173c27 0 46 -5 60 -15v183c0 13 7 20 20 20h98zM231 152v196c0 21 -12 34 -32 34s-32 -13 -32 -34v-196c0 -21 12 -34 32 -34s32 13 32 34z" />
    <glyph glyph-name="eth" unicode="&#xf0;" horiz-adv-x="406" 
d="M339 620c19 -33 30 -76 30 -127v-332c0 -104 -68 -173 -170 -173s-170 69 -170 173v168c0 104 55 173 142 173c27 0 46 -5 60 -15v21c0 18 -3 33 -9 45l-72 -41c-10 -6 -15 6 -15 15v26c0 8 6 13 15 18l30 17c-10 3 -20 4 -31 4h-29c-13 0 -20 7 -20 20v80
c0 13 7 20 20 20h34c64 0 116 -17 152 -51l44 25c10 6 15 -6 15 -15v-25c0 -9 -6 -14 -15 -19zM231 152v186c0 21 -12 34 -32 34s-32 -13 -32 -34v-186c0 -21 12 -34 32 -34s32 13 32 34z" />
    <glyph glyph-name="dcaron" unicode="&#x10f;" horiz-adv-x="540" 
d="M511 707c13 0 21 -9 18 -22l-40 -201c-2 -12 -9 -18 -21 -18h-46c-13 0 -21 7 -20 21l10 201c1 12 8 19 20 19h79zM349 700c13 0 20 -7 20 -20v-519c0 -104 -68 -173 -170 -173s-170 69 -170 173v178c0 104 55 173 142 173c27 0 46 -5 60 -15v183c0 13 7 20 20 20h98z
M231 152v196c0 21 -12 34 -32 34s-32 -13 -32 -34v-196c0 -21 12 -34 32 -34s32 13 32 34z" />
    <glyph glyph-name="dcroat" unicode="&#x111;" horiz-adv-x="426" 
d="M406 642c11 0 20 -9 20 -20v-26c0 -11 -9 -20 -20 -20h-37v-415c0 -104 -68 -173 -170 -173s-170 69 -170 173v178c0 104 55 173 142 173c27 0 46 -5 60 -15v79h-69c-11 0 -20 9 -20 20v26c0 11 9 20 20 20h69v38c0 13 7 20 20 20h98c13 0 20 -7 20 -20v-38h37zM231 152
v196c0 21 -12 34 -32 34s-32 -13 -32 -34v-196c0 -21 12 -34 32 -34s32 13 32 34z" />
    <glyph glyph-name="e" unicode="e" horiz-adv-x="392" 
d="M195 -12c-99 0 -166 69 -166 173v184c3 101 70 167 170 167c97 2 171 -65 171 -167c0 -95 -68 -158 -168 -158h-34v-35c0 -21 10 -34 29 -34c14 0 23 8 28 22c3 13 9 19 21 19h99c13 0 20 -7 19 -20c-8 -91 -74 -151 -169 -151zM168 308h34c18 0 29 11 29 34
c0 28 -12 40 -32 40s-31 -13 -31 -34v-40z" />
    <glyph glyph-name="eacute" unicode="&#xe9;" horiz-adv-x="392" 
d="M281 684c17 0 21 -11 11 -24l-72 -90c-6 -8 -14 -12 -24 -12h-57c-16 0 -21 10 -13 24l53 88c5 9 13 14 24 14h78zM195 -12c-99 0 -166 69 -166 173v184c3 101 70 167 170 167c97 2 171 -65 171 -167c0 -95 -68 -158 -168 -158h-34v-35c0 -21 10 -34 29 -34
c14 0 23 8 28 22c3 13 9 19 21 19h99c13 0 20 -7 19 -20c-8 -91 -74 -151 -169 -151zM168 308h34c18 0 29 11 29 34c0 28 -12 40 -32 40s-31 -13 -31 -34v-40z" />
    <glyph glyph-name="ecaron" unicode="&#x11b;" horiz-adv-x="392" 
d="M88 685h54c10 0 18 -3 24 -12l31 -42l30 42c6 9 14 12 24 12h54c16 0 22 -11 14 -24l-57 -89c-6 -10 -14 -13 -24 -13h-83c-10 0 -18 3 -24 13l-57 89c-8 13 -2 24 14 24zM195 -12c-99 0 -166 69 -166 173v184c3 101 70 167 170 167c97 2 171 -65 171 -167
c0 -95 -68 -158 -168 -158h-34v-35c0 -21 10 -34 29 -34c14 0 23 8 28 22c3 13 9 19 21 19h99c13 0 20 -7 19 -20c-8 -91 -74 -151 -169 -151zM168 308h34c18 0 29 11 29 34c0 28 -12 40 -32 40s-31 -13 -31 -34v-40z" />
    <glyph glyph-name="ecircumflex" unicode="&#xea;" horiz-adv-x="392" 
d="M88 559c-16 0 -22 11 -14 24l57 89c6 10 14 13 24 13h83c10 0 18 -3 24 -13l57 -89c8 -13 2 -24 -14 -24h-54c-10 0 -18 3 -24 12l-30 42l-31 -42c-6 -9 -14 -12 -24 -12h-54zM195 -12c-99 0 -166 69 -166 173v184c3 101 70 167 170 167c97 2 171 -65 171 -167
c0 -95 -68 -158 -168 -158h-34v-35c0 -21 10 -34 29 -34c14 0 23 8 28 22c3 13 9 19 21 19h99c13 0 20 -7 19 -20c-8 -91 -74 -151 -169 -151zM168 308h34c18 0 29 11 29 34c0 28 -12 40 -32 40s-31 -13 -31 -34v-40z" />
    <glyph glyph-name="edieresis" unicode="&#xeb;" horiz-adv-x="392" 
d="M122 568c-35 0 -57 23 -57 57s22 57 57 57c33 0 56 -23 56 -57s-23 -57 -56 -57zM272 568c-33 0 -56 23 -56 57s23 57 56 57c35 0 57 -23 57 -57s-22 -57 -57 -57zM195 -12c-99 0 -166 69 -166 173v184c3 101 70 167 170 167c97 2 171 -65 171 -167
c0 -95 -68 -158 -168 -158h-34v-35c0 -21 10 -34 29 -34c14 0 23 8 28 22c3 13 9 19 21 19h99c13 0 20 -7 19 -20c-8 -91 -74 -151 -169 -151zM168 308h34c18 0 29 11 29 34c0 28 -12 40 -32 40s-31 -13 -31 -34v-40z" />
    <glyph glyph-name="edotaccent" unicode="&#x117;" horiz-adv-x="392" 
d="M197 558c-44 0 -75 33 -75 75c0 43 31 75 75 75c42 0 75 -32 75 -75c0 -40 -33 -75 -75 -75zM195 -12c-99 0 -166 69 -166 173v184c3 101 70 167 170 167c97 2 171 -65 171 -167c0 -95 -68 -158 -168 -158h-34v-35c0 -21 10 -34 29 -34c14 0 23 8 28 22c3 13 9 19 21 19
h99c13 0 20 -7 19 -20c-8 -91 -74 -151 -169 -151zM168 308h34c18 0 29 11 29 34c0 28 -12 40 -32 40s-31 -13 -31 -34v-40z" />
    <glyph glyph-name="egrave" unicode="&#xe8;" horiz-adv-x="392" 
d="M92 685h78c11 0 19 -5 24 -14l53 -88c8 -14 3 -24 -13 -24h-57c-10 0 -18 4 -24 12l-72 90c-10 13 -6 24 11 24zM195 -12c-99 0 -166 69 -166 173v184c3 101 70 167 170 167c97 2 171 -65 171 -167c0 -95 -68 -158 -168 -158h-34v-35c0 -21 10 -34 29 -34
c14 0 23 8 28 22c3 13 9 19 21 19h99c13 0 20 -7 19 -20c-8 -91 -74 -151 -169 -151zM168 308h34c18 0 29 11 29 34c0 28 -12 40 -32 40s-31 -13 -31 -34v-40z" />
    <glyph glyph-name="emacron" unicode="&#x113;" horiz-adv-x="392" 
d="M101 639c0 13 7 20 20 20h151c13 0 20 -7 20 -20v-40c0 -13 -7 -20 -20 -20h-151c-13 0 -20 7 -20 20v40zM195 -12c-99 0 -166 69 -166 173v184c3 101 70 167 170 167c97 2 171 -65 171 -167c0 -95 -68 -158 -168 -158h-34v-35c0 -21 10 -34 29 -34c14 0 23 8 28 22
c3 13 9 19 21 19h99c13 0 20 -7 19 -20c-8 -91 -74 -151 -169 -151zM168 308h34c18 0 29 11 29 34c0 28 -12 40 -32 40s-31 -13 -31 -34v-40z" />
    <glyph glyph-name="eogonek" unicode="&#x119;" horiz-adv-x="392" 
d="M277 -210c-75 -14 -174 9 -174 97c0 35 17 79 43 109c-3 0 -9 1 -14 2c-65 13 -103 85 -103 163v184c0 97 70 167 171 167c98 0 170 -65 170 -165c0 -98 -68 -160 -168 -160h-34v-35c0 -22 10 -34 30 -34c16 0 24 14 27 32c2 12 7 19 21 19h99c16 0 19 -9 19 -23
c1 -66 -48 -108 -86 -140c-30 -25 -57 -48 -57 -81c0 -34 31 -35 55 -35c11 0 20 -3 20 -19v-61c0 -13 -7 -18 -19 -20zM168 308h34c18 0 29 10 29 35c0 26 -12 39 -32 39s-31 -13 -31 -34v-40z" />
    <glyph glyph-name="f" unicode="f" horiz-adv-x="318" 
d="M284 500c13 0 20 -7 20 -20v-84c0 -13 -7 -20 -20 -20h-70v-356c0 -13 -7 -20 -20 -20h-98c-13 0 -20 7 -20 20v356h-48c-13 0 -20 7 -20 20v84c0 13 7 20 20 20h48c0 130 71 205 192 205c13 0 20 -7 20 -20v-90c0 -13 -7 -20 -20 -20c-36 0 -54 -19 -54 -59v-16h70z" />
    <glyph glyph-name="g" unicode="g" horiz-adv-x="404" 
d="M200 512c102 0 171 -69 171 -173v-378c0 -109 -64 -173 -171 -173c-100 0 -163 62 -170 168c-1 14 6 21 19 21h100c12 0 18 -7 21 -20c3 -26 14 -39 30 -39c20 0 32 13 32 34v80c-15 -8 -33 -13 -51 -13c-85 0 -152 69 -152 173v147c0 104 69 173 171 173zM200 149
c20 0 32 13 32 34v164c0 22 -12 35 -32 35s-32 -13 -32 -35v-164c0 -21 12 -34 32 -34z" />
    <glyph glyph-name="gbreve" unicode="&#x11f;" horiz-adv-x="404" 
d="M200 559c-68 0 -115 41 -124 105c-1 14 7 21 20 21h50c12 0 16 -6 21 -18c6 -11 17 -18 33 -18s27 7 33 18c5 12 9 18 21 18h50c13 0 21 -8 20 -21c-9 -64 -56 -105 -124 -105zM200 512c102 0 171 -69 171 -173v-378c0 -109 -64 -173 -171 -173c-100 0 -163 62 -170 168
c-1 14 6 21 19 21h100c12 0 18 -7 21 -20c3 -26 14 -39 30 -39c20 0 32 13 32 34v80c-15 -8 -33 -13 -51 -13c-85 0 -152 69 -152 173v147c0 104 69 173 171 173zM200 149c20 0 32 13 32 34v164c0 22 -12 35 -32 35s-32 -13 -32 -35v-164c0 -21 12 -34 32 -34z" />
    <glyph glyph-name="gcommaaccent" unicode="&#x123;" horiz-adv-x="402" 
d="M143 581l-10 156c-1 14 7 21 20 21h50c12 0 18 -6 21 -18l34 -156c3 -13 -5 -22 -18 -22h-77c-12 0 -19 7 -20 19zM200 512c102 0 171 -69 171 -173v-378c0 -109 -64 -173 -171 -173c-100 0 -163 62 -170 168c-1 14 6 21 19 21h100c12 0 18 -7 21 -20
c3 -26 14 -39 30 -39c20 0 32 13 32 34v80c-15 -8 -33 -13 -51 -13c-85 0 -152 69 -152 173v147c0 104 69 173 171 173zM200 149c20 0 32 13 32 34v164c0 22 -12 35 -32 35s-32 -13 -32 -35v-164c0 -21 12 -34 32 -34z" />
    <glyph glyph-name="gdotaccent" unicode="&#x121;" horiz-adv-x="404" 
d="M200 558c-44 0 -75 33 -75 75c0 43 31 75 75 75c42 0 75 -32 75 -75c0 -40 -33 -75 -75 -75zM200 512c102 0 171 -69 171 -173v-378c0 -109 -64 -173 -171 -173c-100 0 -163 62 -170 168c-1 14 6 21 19 21h100c12 0 18 -7 21 -20c3 -26 14 -39 30 -39c20 0 32 13 32 34
v80c-15 -8 -33 -13 -51 -13c-85 0 -152 69 -152 173v147c0 104 69 173 171 173zM200 149c20 0 32 13 32 34v164c0 22 -12 35 -32 35s-32 -13 -32 -35v-164c0 -21 12 -34 32 -34z" />
    <glyph glyph-name="h" unicode="h" horiz-adv-x="407" 
d="M57 0c-13 0 -20 7 -20 20v660c0 13 7 20 20 20h98c13 0 20 -7 20 -20v-178c16 6 32 10 46 10c90 0 153 -69 153 -173v-319c0 -13 -7 -20 -20 -20h-99c-13 0 -20 7 -20 20v328c0 21 -11 34 -30 34s-30 -13 -30 -34v-328c0 -13 -7 -20 -20 -20h-98z" />
    <glyph glyph-name="hbar" unicode="&#x127;" horiz-adv-x="440" 
d="M90 0c-13 0 -20 7 -20 20v538h-42c-13 0 -20 7 -20 20v41c0 13 7 20 20 20h42v41c0 13 7 20 20 20h98c13 0 20 -7 20 -20v-41h104c13 0 20 -7 20 -20v-41c0 -13 -7 -20 -20 -20h-104v-68c13 7 32 12 46 12c90 0 153 -69 153 -173v-309c0 -13 -7 -20 -20 -20h-99
c-13 0 -20 7 -20 20v318c0 21 -11 34 -30 34s-30 -13 -30 -34v-318c0 -13 -7 -20 -20 -20h-98z" />
    <glyph glyph-name="i" unicode="i" horiz-adv-x="212" 
d="M106 558c-44 0 -75 33 -75 75c0 43 31 75 75 75c42 0 75 -32 75 -75c0 -40 -33 -75 -75 -75zM57 0c-13 0 -20 7 -20 20v460c0 13 7 20 20 20h98c13 0 20 -7 20 -20v-460c0 -13 -7 -20 -20 -20h-98z" />
    <glyph glyph-name="dotlessi" unicode="&#x131;" horiz-adv-x="212" 
d="M57 0c-13 0 -20 7 -20 20v460c0 13 7 20 20 20h98c13 0 20 -7 20 -20v-460c0 -13 -7 -20 -20 -20h-98z" />
    <glyph glyph-name="iacute" unicode="&#xed;" horiz-adv-x="212" 
d="M190 684c17 0 21 -11 11 -24l-72 -90c-6 -8 -14 -12 -24 -12h-57c-16 0 -21 10 -13 24l53 88c5 9 13 14 24 14h78zM57 0c-13 0 -20 7 -20 20v460c0 13 7 20 20 20h98c13 0 20 -7 20 -20v-460c0 -13 -7 -20 -20 -20h-98z" />
    <glyph glyph-name="icircumflex" unicode="&#xee;" horiz-adv-x="253" 
d="M27 559c-16 0 -22 11 -14 24l57 89c6 10 14 13 24 13h83c10 0 18 -3 24 -13l57 -89c8 -13 2 -24 -14 -24h-54c-10 0 -18 3 -24 12l-30 42l-31 -42c-6 -9 -14 -12 -24 -12h-54zM87 0c-13 0 -20 7 -20 20v460c0 13 7 20 20 20h98c13 0 20 -7 20 -20v-460
c0 -13 -7 -20 -20 -20h-98z" />
    <glyph glyph-name="idieresis" unicode="&#xef;" horiz-adv-x="248" 
d="M55 570c-33 0 -54 21 -55 55c1 34 22 55 55 55c32 0 54 -21 54 -55s-22 -55 -54 -55zM193 570c-32 0 -54 21 -54 55s22 55 54 55c33 0 54 -21 55 -55c-1 -34 -22 -55 -55 -55zM76 0c-13 0 -20 7 -20 20v460c0 13 7 20 20 20h98c13 0 20 -7 20 -20v-460
c0 -13 -7 -20 -20 -20h-98z" />
    <glyph glyph-name="i.loclTRK" horiz-adv-x="212" 
d="M106 558c-44 0 -75 33 -75 75c0 43 31 75 75 75c42 0 75 -32 75 -75c0 -40 -33 -75 -75 -75zM57 0c-13 0 -20 7 -20 20v460c0 13 7 20 20 20h98c13 0 20 -7 20 -20v-460c0 -13 -7 -20 -20 -20h-98z" />
    <glyph glyph-name="igrave" unicode="&#xec;" horiz-adv-x="212" 
d="M1 685h78c11 0 19 -5 24 -14l53 -88c8 -14 3 -24 -13 -24h-57c-10 0 -18 4 -24 12l-72 90c-10 13 -6 24 11 24zM57 0c-13 0 -20 7 -20 20v460c0 13 7 20 20 20h98c13 0 20 -7 20 -20v-460c0 -13 -7 -20 -20 -20h-98z" />
    <glyph glyph-name="imacron" unicode="&#x12b;" horiz-adv-x="191" 
d="M0 639c0 13 7 20 20 20h151c13 0 20 -7 20 -20v-40c0 -13 -7 -20 -20 -20h-151c-13 0 -20 7 -20 20v40zM46 0c-13 0 -20 7 -20 20v460c0 13 7 20 20 20h98c13 0 20 -7 20 -20v-460c0 -13 -7 -20 -20 -20h-98z" />
    <glyph glyph-name="iogonek" unicode="&#x12f;" horiz-adv-x="234" 
d="M115 558c-43 0 -74 33 -74 75c0 43 32 75 75 75c42 0 75 -32 75 -74c0 -41 -32 -76 -76 -76zM135 -212c-95 0 -135 39 -135 89c0 46 21 91 50 123v480c0 13 7 20 20 20h99c13 0 20 -7 20 -20v-464c0 -13 -11 -22 -24 -32c-30 -23 -41 -43 -41 -57c0 -26 31 -32 55 -33h3
c13 0 21 -7 21 -20v-61c0 -20 -20 -25 -68 -25z" />
    <glyph glyph-name="j" unicode="j" horiz-adv-x="279" 
d="M167 558c-44 0 -75 33 -75 75c0 43 31 75 75 75c42 0 75 -32 75 -75c0 -40 -33 -75 -75 -75zM20 -205c-13 0 -20 7 -20 20v90c0 13 7 20 20 20h19c39 0 62 24 62 64v491c0 13 7 20 20 20h98c13 0 20 -7 20 -20v-472c0 -136 -74 -213 -195 -213h-24z" />
    <glyph glyph-name="k" unicode="k" horiz-adv-x="400" 
d="M311 284c39 -30 61 -78 61 -138v-126c0 -13 -7 -20 -20 -20h-99c-13 0 -20 7 -20 20v135c0 21 -11 34 -30 34h-28v-169c0 -13 -7 -20 -20 -20h-98c-13 0 -20 7 -20 20v660c0 13 7 20 20 20h98c13 0 20 -7 20 -20v-361h12l53 164c4 12 12 17 23 17h100c14 0 22 -9 17 -23z
" />
    <glyph glyph-name="kcommaaccent" unicode="&#x137;" horiz-adv-x="400" 
d="M311 284c39 -30 61 -78 61 -138v-126c0 -13 -7 -20 -20 -20h-99c-13 0 -20 7 -20 20v135c0 21 -11 34 -30 34h-28v-169c0 -13 -7 -20 -20 -20h-98c-13 0 -20 7 -20 20v660c0 13 7 20 20 20h98c13 0 20 -7 20 -20v-361h12l53 164c4 12 12 17 23 17h100c14 0 22 -9 17 -23z
M131 -71c1 12 8 19 20 19h79c13 0 21 -9 18 -22l-40 -201c-2 -12 -9 -18 -21 -18h-46c-13 0 -21 7 -20 21z" />
    <glyph glyph-name="l" unicode="l" horiz-adv-x="212" 
d="M57 0c-13 0 -20 7 -20 20v660c0 13 7 20 20 20h98c13 0 20 -7 20 -20v-660c0 -13 -7 -20 -20 -20h-98z" />
    <glyph glyph-name="lacute" unicode="&#x13a;" horiz-adv-x="230" 
d="M58 769c-16 0 -22 11 -13 24l58 89c6 9 14 13 24 13h77c17 0 22 -12 11 -25l-76 -90c-7 -8 -15 -11 -25 -11h-56zM57 0c-13 0 -20 7 -20 20v660c0 13 7 20 20 20h98c13 0 20 -7 20 -20v-660c0 -13 -7 -20 -20 -20h-98z" />
    <glyph glyph-name="lcaron" unicode="&#x13e;" horiz-adv-x="356" 
d="M57 0c-13 0 -20 7 -20 20v660c0 13 7 20 20 20h98c13 0 20 -7 20 -20v-660c0 -13 -7 -20 -20 -20h-98zM238 474c-13 0 -21 7 -20 21l10 186c1 12 8 19 20 19h80c13 0 20 -9 18 -22l-32 -186c-2 -12 -9 -18 -21 -18h-55z" />
    <glyph glyph-name="lcommaaccent" unicode="&#x13c;" horiz-adv-x="212" 
d="M57 0c-13 0 -20 7 -20 20v660c0 13 7 20 20 20h98c13 0 20 -7 20 -20v-660c0 -13 -7 -20 -20 -20h-98zM41 -71c1 12 8 19 20 19h79c13 0 21 -9 18 -22l-40 -201c-2 -12 -9 -18 -21 -18h-46c-13 0 -21 7 -20 21z" />
    <glyph glyph-name="lslash" unicode="&#x142;" horiz-adv-x="254" 
d="M231 501c14 5 23 -1 23 -16v-64c0 -11 -6 -19 -16 -23l-42 -17v-361c0 -13 -7 -20 -20 -20h-98c-13 0 -20 7 -20 20v305l-35 -14c-14 -5 -23 1 -23 16v64c0 11 6 19 16 23l42 17v249c0 13 7 20 20 20h98c13 0 20 -7 20 -20v-193z" />
    <glyph glyph-name="m" unicode="m" horiz-adv-x="586" 
d="M389 512c98 0 164 -69 164 -173v-319c0 -13 -7 -20 -20 -20h-96c-13 0 -20 7 -20 20v328c0 21 -10 34 -28 34s-28 -13 -28 -34v-328c0 -13 -7 -20 -20 -20h-96c-13 0 -20 7 -20 20v328c0 21 -10 34 -28 34s-28 -13 -28 -34v-328c0 -13 -7 -20 -20 -20h-96
c-13 0 -20 7 -20 20v319c0 104 66 173 164 173c37 0 70 -12 96 -33c26 21 59 33 96 33z" />
    <glyph glyph-name="n" unicode="n" horiz-adv-x="402" 
d="M53 0c-13 0 -20 7 -20 20v319c0 104 67 173 168 173s168 -69 168 -173v-319c0 -13 -7 -20 -20 -20h-98c-13 0 -20 7 -20 20v328c0 21 -11 34 -30 34s-30 -13 -30 -34v-328c0 -13 -7 -20 -20 -20h-98z" />
    <glyph glyph-name="nacute" unicode="&#x144;" horiz-adv-x="402" 
d="M285 684c17 0 21 -11 11 -24l-72 -90c-6 -8 -14 -12 -24 -12h-57c-16 0 -21 10 -13 24l53 88c5 9 13 14 24 14h78zM53 0c-13 0 -20 7 -20 20v319c0 104 67 173 168 173s168 -69 168 -173v-319c0 -13 -7 -20 -20 -20h-98c-13 0 -20 7 -20 20v328c0 21 -11 34 -30 34
s-30 -13 -30 -34v-328c0 -13 -7 -20 -20 -20h-98z" />
    <glyph glyph-name="ncaron" unicode="&#x148;" horiz-adv-x="402" 
d="M92 685h54c10 0 18 -3 24 -12l31 -42l30 42c6 9 14 12 24 12h54c16 0 22 -11 14 -24l-57 -89c-6 -10 -14 -13 -24 -13h-83c-10 0 -18 3 -24 13l-57 89c-8 13 -2 24 14 24zM53 0c-13 0 -20 7 -20 20v319c0 104 67 173 168 173s168 -69 168 -173v-319c0 -13 -7 -20 -20 -20
h-98c-13 0 -20 7 -20 20v328c0 21 -11 34 -30 34s-30 -13 -30 -34v-328c0 -13 -7 -20 -20 -20h-98z" />
    <glyph glyph-name="ncommaaccent" unicode="&#x146;" horiz-adv-x="400" 
d="M53 0c-13 0 -20 7 -20 20v319c0 104 67 173 168 173s168 -69 168 -173v-319c0 -13 -7 -20 -20 -20h-98c-13 0 -20 7 -20 20v328c0 21 -11 34 -30 34s-30 -13 -30 -34v-328c0 -13 -7 -20 -20 -20h-98zM151 -71c1 12 8 19 20 19h79c13 0 21 -9 18 -22l-40 -201
c-2 -12 -9 -18 -21 -18h-46c-13 0 -21 7 -20 21z" />
    <glyph glyph-name="eng" unicode="&#x14b;" horiz-adv-x="402" 
d="M162 -212c-13 0 -20 7 -20 20v90c0 13 7 20 20 20c47 0 69 27 69 71v359c0 21 -11 34 -30 34s-30 -13 -30 -34v-328c0 -13 -7 -20 -20 -20h-98c-13 0 -20 7 -20 20v319c0 104 67 173 168 173s168 -69 168 -173v-331c0 -140 -73 -220 -207 -220z" />
    <glyph glyph-name="ntilde" unicode="&#xf1;" horiz-adv-x="402" 
d="M165 591c-5 0 -9 -2 -12 -7c-6 -11 -11 -17 -22 -17h-38c-13 0 -21 8 -20 21c1 20 21 79 84 79c41 0 61 -25 77 -25c6 0 11 3 14 7c4 6 7 17 21 17h39c12 0 20 -5 19 -21c-2 -29 -27 -79 -83 -79c-39 0 -60 25 -79 25zM53 0c-13 0 -20 7 -20 20v319c0 104 67 173 168 173
s168 -69 168 -173v-319c0 -13 -7 -20 -20 -20h-98c-13 0 -20 7 -20 20v328c0 21 -11 34 -30 34s-30 -13 -30 -34v-328c0 -13 -7 -20 -20 -20h-98z" />
    <glyph glyph-name="o" unicode="o" horiz-adv-x="400" 
d="M200 -12c-102 0 -171 69 -171 173v178c0 104 69 173 171 173s171 -69 171 -173v-178c0 -104 -69 -173 -171 -173zM200 118c20 0 32 13 32 34v196c0 21 -12 34 -32 34s-32 -13 -32 -34v-196c0 -21 12 -34 32 -34z" />
    <glyph glyph-name="oacute" unicode="&#xf3;" horiz-adv-x="400" 
d="M286 684c17 0 21 -11 11 -24l-72 -90c-6 -8 -14 -12 -24 -12h-57c-16 0 -21 10 -13 24l53 88c5 9 13 14 24 14h78zM200 -12c-102 0 -171 69 -171 173v178c0 104 69 173 171 173s171 -69 171 -173v-178c0 -104 -69 -173 -171 -173zM200 118c20 0 32 13 32 34v196
c0 21 -12 34 -32 34s-32 -13 -32 -34v-196c0 -21 12 -34 32 -34z" />
    <glyph glyph-name="ocircumflex" unicode="&#xf4;" horiz-adv-x="400" 
d="M93 559c-16 0 -22 11 -14 24l57 89c6 10 14 13 24 13h83c10 0 18 -3 24 -13l57 -89c8 -13 2 -24 -14 -24h-54c-10 0 -18 3 -24 12l-30 42l-31 -42c-6 -9 -14 -12 -24 -12h-54zM200 -12c-102 0 -171 69 -171 173v178c0 104 69 173 171 173s171 -69 171 -173v-178
c0 -104 -69 -173 -171 -173zM200 118c20 0 32 13 32 34v196c0 21 -12 34 -32 34s-32 -13 -32 -34v-196c0 -21 12 -34 32 -34z" />
    <glyph glyph-name="odieresis" unicode="&#xf6;" horiz-adv-x="400" 
d="M127 568c-35 0 -57 23 -57 57s22 57 57 57c33 0 56 -23 56 -57s-23 -57 -56 -57zM277 568c-33 0 -56 23 -56 57s23 57 56 57c35 0 57 -23 57 -57s-22 -57 -57 -57zM200 -12c-102 0 -171 69 -171 173v178c0 104 69 173 171 173s171 -69 171 -173v-178
c0 -104 -69 -173 -171 -173zM200 118c20 0 32 13 32 34v196c0 21 -12 34 -32 34s-32 -13 -32 -34v-196c0 -21 12 -34 32 -34z" />
    <glyph glyph-name="ograve" unicode="&#xf2;" horiz-adv-x="400" 
d="M97 685h78c11 0 19 -5 24 -14l53 -88c8 -14 3 -24 -13 -24h-57c-10 0 -18 4 -24 12l-72 90c-10 13 -6 24 11 24zM200 -12c-102 0 -171 69 -171 173v178c0 104 69 173 171 173s171 -69 171 -173v-178c0 -104 -69 -173 -171 -173zM200 118c20 0 32 13 32 34v196
c0 21 -12 34 -32 34s-32 -13 -32 -34v-196c0 -21 12 -34 32 -34z" />
    <glyph glyph-name="ohungarumlaut" unicode="&#x151;" horiz-adv-x="400" 
d="M226 685c17 0 21 -11 11 -24l-72 -90c-6 -8 -14 -12 -24 -12h-44c-16 0 -21 10 -13 24l53 88c5 9 13 14 24 14h65zM367 685c17 0 21 -11 11 -24l-72 -90c-6 -8 -14 -12 -24 -12h-44c-16 0 -21 10 -13 24l53 88c5 9 13 14 24 14h65zM200 -12c-102 0 -171 69 -171 173v178
c0 104 69 173 171 173s171 -69 171 -173v-178c0 -104 -69 -173 -171 -173zM200 118c20 0 32 13 32 34v196c0 21 -12 34 -32 34s-32 -13 -32 -34v-196c0 -21 12 -34 32 -34z" />
    <glyph glyph-name="omacron" unicode="&#x14d;" horiz-adv-x="400" 
d="M106 639c0 13 7 20 20 20h151c13 0 20 -7 20 -20v-40c0 -13 -7 -20 -20 -20h-151c-13 0 -20 7 -20 20v40zM200 -12c-102 0 -171 69 -171 173v178c0 104 69 173 171 173s171 -69 171 -173v-178c0 -104 -69 -173 -171 -173zM200 118c20 0 32 13 32 34v196
c0 21 -12 34 -32 34s-32 -13 -32 -34v-196c0 -21 12 -34 32 -34z" />
    <glyph glyph-name="oslash" unicode="&#xf8;" horiz-adv-x="404" 
d="M303 482c43 -30 68 -80 68 -143v-178c0 -104 -69 -173 -171 -173c-12 0 -23 1 -34 3l-5 -19c-3 -12 -12 -17 -23 -17h-33c-14 0 -21 9 -17 22l11 40c-44 29 -70 80 -70 144v178c0 104 69 173 171 173c12 0 24 -1 36 -3l5 19c3 12 12 17 23 17h33c14 0 21 -9 17 -22z
M232 152v196c0 21 -12 34 -32 34s-32 -13 -32 -34v-196c0 -21 12 -34 32 -34s32 13 32 34z" />
    <glyph glyph-name="otilde" unicode="&#xf5;" horiz-adv-x="400" 
d="M166 591c-5 0 -9 -2 -12 -7c-6 -11 -11 -17 -22 -17h-38c-13 0 -21 8 -20 21c1 20 21 79 84 79c41 0 61 -25 77 -25c6 0 11 3 14 7c4 6 7 17 21 17h39c12 0 20 -5 19 -21c-2 -29 -27 -79 -83 -79c-39 0 -60 25 -79 25zM200 -12c-102 0 -171 69 -171 173v178
c0 104 69 173 171 173s171 -69 171 -173v-178c0 -104 -69 -173 -171 -173zM200 118c20 0 32 13 32 34v196c0 21 -12 34 -32 34s-32 -13 -32 -34v-196c0 -21 12 -34 32 -34z" />
    <glyph glyph-name="oe" unicode="&#x153;" horiz-adv-x="595" 
d="M200 -12c-102 0 -171 69 -171 173v178c0 104 69 173 171 173c39 0 73 -13 100 -37c26 24 62 37 102 37c97 2 171 -65 171 -167c0 -95 -68 -158 -168 -158h-34v-35c0 -21 10 -34 29 -34c14 0 24 6 28 18c4 13 9 19 21 19h99c13 0 20 -7 19 -20c-8 -89 -74 -147 -169 -147
c-39 0 -72 13 -98 37c-27 -24 -61 -37 -100 -37zM200 118c20 0 32 13 32 34v196c0 21 -12 34 -32 34s-32 -13 -32 -34v-196c0 -21 12 -34 32 -34zM371 308h34c18 0 29 11 29 34c0 28 -12 40 -32 40s-31 -13 -31 -34v-40z" />
    <glyph glyph-name="p" unicode="p" horiz-adv-x="404" 
d="M204 512c102 0 171 -69 171 -173v-178c0 -104 -68 -173 -147 -173c-19 0 -38 4 -56 13v-181c0 -13 -7 -20 -20 -20h-99c-13 0 -20 7 -20 20v519c0 104 69 173 171 173zM236 152v196c0 21 -12 34 -32 34s-32 -13 -32 -34v-196c0 -21 12 -34 32 -34s32 13 32 34z" />
    <glyph glyph-name="thorn" unicode="&#xfe;" horiz-adv-x="406" 
d="M57 -200c-13 0 -20 7 -20 20v860c0 13 7 20 20 20h98c13 0 20 -7 20 -20v-183c14 10 33 15 60 15c87 0 142 -69 142 -173v-178c0 -104 -68 -173 -146 -173c-19 0 -38 4 -56 13v-181c0 -13 -7 -20 -20 -20h-98zM207 118c20 0 32 13 32 34v196c0 21 -12 34 -32 34
s-32 -13 -32 -34v-196c0 -21 12 -34 32 -34z" />
    <glyph glyph-name="q" unicode="q" horiz-adv-x="404" 
d="M200 512c102 0 171 -69 171 -173v-519c0 -13 -7 -20 -20 -20h-99c-13 0 -20 7 -20 20v181c-18 -9 -37 -13 -56 -13c-79 0 -147 69 -147 173v178c0 104 69 173 171 173zM200 118c20 0 32 13 32 34v196c0 21 -12 34 -32 34s-32 -13 -32 -34v-196c0 -21 12 -34 32 -34z" />
    <glyph glyph-name="r" unicode="r" horiz-adv-x="280" 
d="M53 0c-13 0 -20 7 -20 20v267c0 136 74 213 195 213h24c13 0 20 -7 20 -20v-90c0 -13 -7 -20 -20 -20h-19c-39 0 -62 -24 -62 -64v-286c0 -13 -7 -20 -20 -20h-98z" />
    <glyph glyph-name="racute" unicode="&#x155;" horiz-adv-x="280" 
d="M235 684c17 0 21 -11 11 -24l-72 -90c-6 -8 -14 -12 -24 -12h-57c-16 0 -21 10 -13 24l53 88c5 9 13 14 24 14h78zM53 0c-13 0 -20 7 -20 20v267c0 136 74 213 195 213h24c13 0 20 -7 20 -20v-90c0 -13 -7 -20 -20 -20h-19c-39 0 -62 -24 -62 -64v-286
c0 -13 -7 -20 -20 -20h-98z" />
    <glyph glyph-name="rcaron" unicode="&#x159;" horiz-adv-x="280" 
d="M42 685h54c10 0 18 -3 24 -12l31 -42l30 42c6 9 14 12 24 12h54c16 0 22 -11 14 -24l-57 -89c-6 -10 -14 -13 -24 -13h-83c-10 0 -18 3 -24 13l-57 89c-8 13 -2 24 14 24zM53 0c-13 0 -20 7 -20 20v267c0 136 74 213 195 213h24c13 0 20 -7 20 -20v-90
c0 -13 -7 -20 -20 -20h-19c-39 0 -62 -24 -62 -64v-286c0 -13 -7 -20 -20 -20h-98z" />
    <glyph glyph-name="rcommaaccent" unicode="&#x157;" horiz-adv-x="280" 
d="M53 0c-13 0 -20 7 -20 20v267c0 136 74 213 195 213h24c13 0 20 -7 20 -20v-90c0 -13 -7 -20 -20 -20h-19c-39 0 -62 -24 -62 -64v-286c0 -13 -7 -20 -20 -20h-98zM52 -71c1 12 8 19 20 19h79c13 0 21 -9 18 -22l-40 -201c-2 -12 -9 -18 -21 -18h-46c-13 0 -21 7 -20 21z
" />
    <glyph glyph-name="s" unicode="s" horiz-adv-x="392" 
d="M201 -12c-119 0 -178 87 -179 162c0 11 1 24 19 24h98c9 0 18 -4 22 -18c5 -19 12 -38 36 -38c21 0 34 15 34 31c0 63 -203 56 -203 214c0 93 70 149 166 149c121 0 165 -90 166 -146c0 -9 -1 -21 -19 -21h-98c-13 0 -18 8 -21 19c-4 12 -13 19 -28 19
c-17 0 -27 -10 -27 -24c0 -61 203 -54 203 -215c0 -94 -69 -156 -169 -156z" />
    <glyph glyph-name="sacute" unicode="&#x15b;" horiz-adv-x="392" 
d="M294 684c17 0 21 -11 11 -24l-72 -90c-6 -8 -14 -12 -24 -12h-57c-16 0 -21 10 -13 24l53 88c5 9 13 14 24 14h78zM201 -12c-119 0 -178 87 -179 162c0 11 1 24 19 24h98c9 0 18 -4 22 -18c5 -19 12 -38 36 -38c21 0 34 15 34 31c0 63 -203 56 -203 214
c0 93 70 149 166 149c121 0 165 -90 166 -146c0 -9 -1 -21 -19 -21h-98c-13 0 -18 8 -21 19c-4 12 -13 19 -28 19c-17 0 -27 -10 -27 -24c0 -61 203 -54 203 -215c0 -94 -69 -156 -169 -156z" />
    <glyph glyph-name="scaron" unicode="&#x161;" horiz-adv-x="392" 
d="M101 685h54c10 0 18 -3 24 -12l31 -42l30 42c6 9 14 12 24 12h54c16 0 22 -11 14 -24l-57 -89c-6 -10 -14 -13 -24 -13h-83c-10 0 -18 3 -24 13l-57 89c-8 13 -2 24 14 24zM201 -12c-119 0 -178 87 -179 162c0 11 1 24 19 24h98c9 0 18 -4 22 -18c5 -19 12 -38 36 -38
c21 0 34 15 34 31c0 63 -203 56 -203 214c0 93 70 149 166 149c121 0 165 -90 166 -146c0 -9 -1 -21 -19 -21h-98c-13 0 -18 8 -21 19c-4 12 -13 19 -28 19c-17 0 -27 -10 -27 -24c0 -61 203 -54 203 -215c0 -94 -69 -156 -169 -156z" />
    <glyph glyph-name="scedilla" unicode="&#x15f;" horiz-adv-x="392" 
d="M370 144c0 -81 -51 -138 -129 -152l-6 -36h5c39 -3 70 -33 70 -75c0 -59 -44 -93 -102 -93c-49 0 -88 28 -96 76c-3 13 6 21 19 21h26c11 0 15 -6 22 -16c6 -8 17 -13 29 -13c18 0 32 9 32 25c0 15 -14 25 -32 25c-13 0 -24 -1 -35 -3c-5 -1 -9 0 -13 4l-5 4
c-4 4 -5 7 -4 13l14 67c-95 15 -142 92 -143 159c0 11 1 24 19 24h98c9 0 18 -4 22 -18c5 -19 12 -38 36 -38c21 0 34 15 34 31c0 63 -203 56 -203 214c0 93 70 149 166 149c121 0 165 -90 166 -146c0 -9 -1 -21 -19 -21h-98c-13 0 -18 8 -21 19c-4 12 -13 19 -28 19
c-17 0 -27 -10 -27 -24c0 -61 203 -54 203 -215z" />
    <glyph glyph-name="scommaaccent" unicode="&#x219;" horiz-adv-x="392" 
d="M201 -12c-119 0 -178 87 -179 162c0 11 1 24 19 24h98c9 0 18 -4 22 -18c5 -19 12 -38 36 -38c21 0 34 15 34 31c0 63 -203 56 -203 214c0 93 70 149 166 149c121 0 165 -90 166 -146c0 -9 -1 -21 -19 -21h-98c-13 0 -18 8 -21 19c-4 12 -13 19 -28 19
c-17 0 -27 -10 -27 -24c0 -61 203 -54 203 -215c0 -94 -69 -156 -169 -156zM151 -71c1 12 8 19 20 19h79c13 0 21 -9 18 -22l-40 -201c-2 -12 -9 -18 -21 -18h-46c-13 0 -21 7 -20 21z" />
    <glyph glyph-name="germandbls" unicode="&#xdf;" horiz-adv-x="406" 
d="M58 0c-13 0 -20 7 -20 20v519c0 104 67 173 167 173c101 0 169 -69 169 -173v-76c0 -40 -15 -75 -45 -102c36 -28 56 -70 56 -119v-74c0 -103 -70 -172 -168 -173h-2c-10 0 -16 6 -16 16v98c0 10 6 16 16 16h2c23 0 30 14 30 36v91c0 22 -11 39 -29 39h-6
c-8 0 -13 6 -13 16v92c0 10 5 16 13 16h3c13 0 21 14 21 32v101c0 21 -11 34 -31 34c-18 0 -29 -13 -29 -34v-528c0 -13 -7 -20 -20 -20h-98z" />
    <glyph glyph-name="t" unicode="t" horiz-adv-x="316" 
d="M282 125c13 0 20 -7 20 -20v-90c0 -13 -7 -20 -20 -20h-21c-116 0 -188 75 -188 193v188h-45c-13 0 -20 7 -20 20v84c0 13 7 20 20 20h45v128c0 13 7 20 20 20h98c13 0 20 -7 20 -20v-128h60c13 0 20 -7 20 -20v-84c0 -13 -7 -20 -20 -20h-60v-190c0 -42 19 -61 62 -61h9
z" />
    <glyph glyph-name="tbar" unicode="&#x167;" horiz-adv-x="316" 
d="M282 125c13 0 20 -7 20 -20v-90c0 -13 -7 -20 -20 -20h-14c-121 0 -195 77 -195 203v34h-29c-13 0 -20 7 -20 20v46c0 13 7 20 20 20h29v58h-45c-13 0 -20 7 -20 20v84c0 13 7 20 20 20h45v128c0 13 7 20 20 20h98c13 0 20 -7 20 -20v-128h60c13 0 20 -7 20 -20v-84
c0 -13 -7 -20 -20 -20h-60v-58h44c13 0 20 -7 20 -20v-46c0 -13 -7 -20 -20 -20h-44v-46c0 -37 23 -61 62 -61h9z" />
    <glyph glyph-name="tcaron" unicode="&#x165;" horiz-adv-x="381" 
d="M348 727c13 0 21 -9 18 -22l-33 -156c-3 -12 -9 -18 -21 -18h-52c-13 0 -21 7 -20 21l10 156c1 12 8 19 20 19h78zM282 125c13 0 20 -7 20 -20v-90c0 -13 -7 -20 -20 -20h-21c-116 0 -188 75 -188 193v188h-45c-13 0 -20 7 -20 20v84c0 13 7 20 20 20h45v128
c0 13 7 20 20 20h98c13 0 20 -7 20 -20v-128h60c13 0 20 -7 20 -20v-84c0 -13 -7 -20 -20 -20h-60v-190c0 -42 19 -61 62 -61h9z" />
    <glyph glyph-name="uni0163" unicode="&#x163;" horiz-adv-x="316" 
d="M282 125c13 0 20 -7 20 -20v-90c0 -13 -7 -20 -20 -20h-21c-116 0 -188 75 -188 193v188h-45c-13 0 -20 7 -20 20v84c0 13 7 20 20 20h45v128c0 13 7 20 20 20h98c13 0 20 -7 20 -20v-128h60c13 0 20 -7 20 -20v-84c0 -13 -7 -20 -20 -20h-60v-190c0 -42 19 -61 62 -61h9
zM224 -52c13 0 21 -9 18 -22l-40 -201c-2 -12 -9 -18 -21 -18h-46c-13 0 -21 7 -20 21l10 201c1 12 8 19 20 19h79z" />
    <glyph glyph-name="uni021B" unicode="&#x21b;" horiz-adv-x="316" 
d="M282 125c13 0 20 -7 20 -20v-90c0 -13 -7 -20 -20 -20h-21c-116 0 -188 75 -188 193v188h-45c-13 0 -20 7 -20 20v84c0 13 7 20 20 20h45v128c0 13 7 20 20 20h98c13 0 20 -7 20 -20v-128h60c13 0 20 -7 20 -20v-84c0 -13 -7 -20 -20 -20h-60v-190c0 -42 19 -61 62 -61h9
zM224 -52c13 0 21 -9 18 -22l-40 -201c-2 -12 -9 -18 -21 -18h-46c-13 0 -21 7 -20 21l10 201c1 12 8 19 20 19h79z" />
    <glyph glyph-name="u" unicode="u" horiz-adv-x="402" 
d="M53 500h98c13 0 20 -7 20 -20v-328c0 -21 11 -34 30 -34s30 13 30 34v328c0 13 7 20 20 20h98c13 0 20 -7 20 -20v-319c0 -104 -67 -173 -168 -173s-168 69 -168 173v319c0 13 7 20 20 20z" />
    <glyph glyph-name="uacute" unicode="&#xfa;" horiz-adv-x="402" 
d="M284 684c17 0 21 -11 11 -24l-72 -90c-6 -8 -14 -12 -24 -12h-57c-16 0 -21 10 -13 24l53 88c5 9 13 14 24 14h78zM53 500h98c13 0 20 -7 20 -20v-328c0 -21 11 -34 30 -34s30 13 30 34v328c0 13 7 20 20 20h98c13 0 20 -7 20 -20v-319c0 -104 -67 -173 -168 -173
s-168 69 -168 173v319c0 13 7 20 20 20z" />
    <glyph glyph-name="ucircumflex" unicode="&#xfb;" horiz-adv-x="402" 
d="M91 559c-16 0 -22 11 -14 24l57 89c6 10 14 13 24 13h83c10 0 18 -3 24 -13l57 -89c8 -13 2 -24 -14 -24h-54c-10 0 -18 3 -24 12l-30 42l-31 -42c-6 -9 -14 -12 -24 -12h-54zM53 500h98c13 0 20 -7 20 -20v-328c0 -21 11 -34 30 -34s30 13 30 34v328c0 13 7 20 20 20h98
c13 0 20 -7 20 -20v-319c0 -104 -67 -173 -168 -173s-168 69 -168 173v319c0 13 7 20 20 20z" />
    <glyph glyph-name="udieresis" unicode="&#xfc;" horiz-adv-x="402" 
d="M125 568c-35 0 -57 23 -57 57s22 57 57 57c33 0 56 -23 56 -57s-23 -57 -56 -57zM275 568c-33 0 -56 23 -56 57s23 57 56 57c35 0 57 -23 57 -57s-22 -57 -57 -57zM53 500h98c13 0 20 -7 20 -20v-328c0 -21 11 -34 30 -34s30 13 30 34v328c0 13 7 20 20 20h98
c13 0 20 -7 20 -20v-319c0 -104 -67 -173 -168 -173s-168 69 -168 173v319c0 13 7 20 20 20z" />
    <glyph glyph-name="ugrave" unicode="&#xf9;" horiz-adv-x="402" 
d="M95 685h78c11 0 19 -5 24 -14l53 -88c8 -14 3 -24 -13 -24h-57c-10 0 -18 4 -24 12l-72 90c-10 13 -6 24 11 24zM53 500h98c13 0 20 -7 20 -20v-328c0 -21 11 -34 30 -34s30 13 30 34v328c0 13 7 20 20 20h98c13 0 20 -7 20 -20v-319c0 -104 -67 -173 -168 -173
s-168 69 -168 173v319c0 13 7 20 20 20z" />
    <glyph glyph-name="uhungarumlaut" unicode="&#x171;" horiz-adv-x="402" 
d="M224 685c17 0 21 -11 11 -24l-72 -90c-6 -8 -14 -12 -24 -12h-44c-16 0 -21 10 -13 24l53 88c5 9 13 14 24 14h65zM365 685c17 0 21 -11 11 -24l-72 -90c-6 -8 -14 -12 -24 -12h-44c-16 0 -21 10 -13 24l53 88c5 9 13 14 24 14h65zM53 500h98c13 0 20 -7 20 -20v-328
c0 -21 11 -34 30 -34s30 13 30 34v328c0 13 7 20 20 20h98c13 0 20 -7 20 -20v-319c0 -104 -67 -173 -168 -173s-168 69 -168 173v319c0 13 7 20 20 20z" />
    <glyph glyph-name="umacron" unicode="&#x16b;" horiz-adv-x="402" 
d="M104 639c0 13 7 20 20 20h151c13 0 20 -7 20 -20v-40c0 -13 -7 -20 -20 -20h-151c-13 0 -20 7 -20 20v40zM53 500h98c13 0 20 -7 20 -20v-328c0 -21 11 -34 30 -34s30 13 30 34v328c0 13 7 20 20 20h98c13 0 20 -7 20 -20v-319c0 -104 -67 -173 -168 -173
s-168 69 -168 173v319c0 13 7 20 20 20z" />
    <glyph glyph-name="uogonek" unicode="&#x173;" horiz-adv-x="402" 
d="M314 -210c-89 -8 -169 10 -169 92c0 41 16 77 40 107c-6 0 -11 1 -17 2c-82 14 -135 78 -135 170v319c0 13 7 20 20 20h98c13 0 20 -7 20 -20v-328c0 -21 11 -34 30 -34s30 13 30 34v328c0 13 7 20 20 20h98c13 0 20 -7 20 -20v-319c0 -56 -19 -102 -53 -132
c-30 -35 -47 -74 -47 -105c0 -27 20 -36 48 -34c14 1 21 -6 21 -19v-61c0 -12 -7 -19 -24 -20z" />
    <glyph glyph-name="uring" unicode="&#x16f;" horiz-adv-x="402" 
d="M114 628c0 49 34 82 86 82s86 -33 86 -82c0 -51 -34 -84 -86 -84s-86 33 -86 84zM177 627c0 -14 9 -23 23 -23s23 9 23 23s-9 23 -23 23s-23 -9 -23 -23zM53 500h98c13 0 20 -7 20 -20v-328c0 -21 11 -34 30 -34s30 13 30 34v328c0 13 7 20 20 20h98c13 0 20 -7 20 -20
v-319c0 -104 -67 -173 -168 -173s-168 69 -168 173v319c0 13 7 20 20 20z" />
    <glyph glyph-name="v" unicode="v" horiz-adv-x="407" 
d="M260 482c2 13 10 18 22 18h104c14 0 20 -9 17 -22l-99 -430c-8 -36 -29 -53 -65 -53h-70c-36 0 -57 18 -65 53l-100 430c-3 13 3 22 17 22h105c12 0 20 -5 22 -18l55 -355z" />
    <glyph glyph-name="w" unicode="w" horiz-adv-x="586" 
d="M389 -12c-37 0 -70 12 -96 33c-26 -21 -59 -33 -96 -33c-98 0 -164 69 -164 173v319c0 13 7 20 20 20h96c13 0 20 -7 20 -20v-328c0 -21 10 -34 28 -34s28 13 28 34v328c0 13 7 20 20 20h96c13 0 20 -7 20 -20v-328c0 -21 10 -34 28 -34s28 13 28 34v328c0 13 7 20 20 20
h96c13 0 20 -7 20 -20v-319c0 -104 -66 -173 -164 -173z" />
    <glyph glyph-name="wacute" unicode="&#x1e83;" horiz-adv-x="586" 
d="M396 684c17 0 21 -11 11 -24l-72 -90c-6 -8 -14 -12 -24 -12h-57c-16 0 -21 10 -13 24l53 88c5 9 13 14 24 14h78zM389 -12c-37 0 -70 12 -96 33c-26 -21 -59 -33 -96 -33c-98 0 -164 69 -164 173v319c0 13 7 20 20 20h96c13 0 20 -7 20 -20v-328c0 -21 10 -34 28 -34
s28 13 28 34v328c0 13 7 20 20 20h96c13 0 20 -7 20 -20v-328c0 -21 10 -34 28 -34s28 13 28 34v328c0 13 7 20 20 20h96c13 0 20 -7 20 -20v-319c0 -104 -66 -173 -164 -173z" />
    <glyph glyph-name="wcircumflex" unicode="&#x175;" horiz-adv-x="586" 
d="M203 559c-16 0 -22 11 -14 24l57 89c6 10 14 13 24 13h83c10 0 18 -3 24 -13l57 -89c8 -13 2 -24 -14 -24h-54c-10 0 -18 3 -24 12l-30 42l-31 -42c-6 -9 -14 -12 -24 -12h-54zM389 -12c-37 0 -70 12 -96 33c-26 -21 -59 -33 -96 -33c-98 0 -164 69 -164 173v319
c0 13 7 20 20 20h96c13 0 20 -7 20 -20v-328c0 -21 10 -34 28 -34s28 13 28 34v328c0 13 7 20 20 20h96c13 0 20 -7 20 -20v-328c0 -21 10 -34 28 -34s28 13 28 34v328c0 13 7 20 20 20h96c13 0 20 -7 20 -20v-319c0 -104 -66 -173 -164 -173z" />
    <glyph glyph-name="wdieresis" unicode="&#x1e85;" horiz-adv-x="586" 
d="M237 568c-35 0 -57 23 -57 57s22 57 57 57c33 0 56 -23 56 -57s-23 -57 -56 -57zM387 568c-33 0 -56 23 -56 57s23 57 56 57c35 0 57 -23 57 -57s-22 -57 -57 -57zM389 -12c-37 0 -70 12 -96 33c-26 -21 -59 -33 -96 -33c-98 0 -164 69 -164 173v319c0 13 7 20 20 20h96
c13 0 20 -7 20 -20v-328c0 -21 10 -34 28 -34s28 13 28 34v328c0 13 7 20 20 20h96c13 0 20 -7 20 -20v-328c0 -21 10 -34 28 -34s28 13 28 34v328c0 13 7 20 20 20h96c13 0 20 -7 20 -20v-319c0 -104 -66 -173 -164 -173z" />
    <glyph glyph-name="wgrave" unicode="&#x1e81;" horiz-adv-x="586" 
d="M207 685h78c11 0 19 -5 24 -14l53 -88c8 -14 3 -24 -13 -24h-57c-10 0 -18 4 -24 12l-72 90c-10 13 -6 24 11 24zM389 -12c-37 0 -70 12 -96 33c-26 -21 -59 -33 -96 -33c-98 0 -164 69 -164 173v319c0 13 7 20 20 20h96c13 0 20 -7 20 -20v-328c0 -21 10 -34 28 -34
s28 13 28 34v328c0 13 7 20 20 20h96c13 0 20 -7 20 -20v-328c0 -21 10 -34 28 -34s28 13 28 34v328c0 13 7 20 20 20h96c13 0 20 -7 20 -20v-319c0 -104 -66 -173 -164 -173z" />
    <glyph glyph-name="x" unicode="x" horiz-adv-x="396" 
d="M49 0c-13 0 -20 7 -20 20v119c0 43 18 79 52 108c-34 29 -52 65 -52 108v125c0 13 7 20 20 20h99c13 0 20 -7 20 -20v-134c0 -21 11 -34 30 -34s30 13 30 34v134c0 13 7 20 20 20h99c13 0 20 -7 20 -20v-125c0 -43 -18 -79 -52 -108c34 -29 52 -65 52 -108v-119
c0 -13 -7 -20 -20 -20h-99c-13 0 -20 7 -20 20v128c0 21 -11 34 -30 34s-30 -13 -30 -34v-128c0 -13 -7 -20 -20 -20h-99z" />
    <glyph glyph-name="y" unicode="y" horiz-adv-x="406" 
d="M349 500c13 0 20 -7 20 -20v-519c0 -109 -62 -173 -168 -173c-99 0 -160 62 -167 168c-1 14 6 21 19 21h99c12 0 18 -7 21 -20c3 -26 13 -39 28 -39c19 0 30 13 30 34v83c-12 -9 -29 -15 -49 -15c-84 0 -149 69 -149 173v287c0 13 7 20 20 20h98c13 0 20 -7 20 -20v-296
c0 -21 11 -34 30 -34s30 13 30 34v296c0 13 7 20 20 20h98z" />
    <glyph glyph-name="yacute" unicode="&#xfd;" horiz-adv-x="406" 
d="M147 558c-16 0 -21 10 -13 24l53 88c5 9 13 14 24 14h78c17 0 21 -11 11 -24l-72 -90c-6 -8 -14 -12 -24 -12h-57zM349 500c13 0 20 -7 20 -20v-519c0 -109 -62 -173 -168 -173c-99 0 -160 62 -167 168c-1 14 6 21 19 21h99c12 0 18 -7 21 -20c3 -26 13 -39 28 -39
c19 0 30 13 30 34v83c-12 -9 -29 -15 -49 -15c-84 0 -149 69 -149 173v287c0 13 7 20 20 20h98c13 0 20 -7 20 -20v-296c0 -21 11 -34 30 -34s30 13 30 34v296c0 13 7 20 20 20h98z" />
    <glyph glyph-name="ycircumflex" unicode="&#x177;" horiz-adv-x="406" 
d="M96 559c-16 0 -22 11 -14 24l57 89c6 10 14 13 24 13h83c10 0 18 -3 24 -13l57 -89c8 -13 2 -24 -14 -24h-54c-10 0 -18 3 -24 12l-30 42l-31 -42c-6 -9 -14 -12 -24 -12h-54zM349 500c13 0 20 -7 20 -20v-519c0 -109 -62 -173 -168 -173c-99 0 -160 62 -167 168
c-1 14 6 21 19 21h99c12 0 18 -7 21 -20c3 -26 13 -39 28 -39c19 0 30 13 30 34v83c-12 -9 -29 -15 -49 -15c-84 0 -149 69 -149 173v287c0 13 7 20 20 20h98c13 0 20 -7 20 -20v-296c0 -21 11 -34 30 -34s30 13 30 34v296c0 13 7 20 20 20h98z" />
    <glyph glyph-name="ydieresis" unicode="&#xff;" horiz-adv-x="406" 
d="M130 568c-35 0 -57 23 -57 57s22 57 57 57c33 0 56 -23 56 -57s-23 -57 -56 -57zM280 568c-33 0 -56 23 -56 57s23 57 56 57c35 0 57 -23 57 -57s-22 -57 -57 -57zM349 500c13 0 20 -7 20 -20v-519c0 -109 -62 -173 -168 -173c-99 0 -160 62 -167 168c-1 14 6 21 19 21
h99c12 0 18 -7 21 -20c3 -26 13 -39 28 -39c19 0 30 13 30 34v83c-12 -9 -29 -15 -49 -15c-84 0 -149 69 -149 173v287c0 13 7 20 20 20h98c13 0 20 -7 20 -20v-296c0 -21 11 -34 30 -34s30 13 30 34v296c0 13 7 20 20 20h98z" />
    <glyph glyph-name="ygrave" unicode="&#x1ef3;" horiz-adv-x="406" 
d="M161 571l-72 90c-10 13 -6 24 11 24h78c11 0 19 -5 24 -14l53 -88c8 -14 3 -24 -13 -24h-57c-10 0 -18 4 -24 12zM349 500c13 0 20 -7 20 -20v-519c0 -109 -62 -173 -168 -173c-99 0 -160 62 -167 168c-1 14 6 21 19 21h99c12 0 18 -7 21 -20c3 -26 13 -39 28 -39
c19 0 30 13 30 34v83c-12 -9 -29 -15 -49 -15c-84 0 -149 69 -149 173v287c0 13 7 20 20 20h98c13 0 20 -7 20 -20v-296c0 -21 11 -34 30 -34s30 13 30 34v296c0 13 7 20 20 20h98z" />
    <glyph glyph-name="z" unicode="z" horiz-adv-x="350" 
d="M185 129h125c13 0 20 -7 20 -20v-89c0 -13 -7 -20 -20 -20h-238c-33 0 -52 20 -52 54v22c0 20 2 41 15 63l134 232h-118c-13 0 -20 7 -20 20v89c0 13 7 20 20 20h228c33 0 51 -18 51 -51v-28c0 -15 0 -39 -13 -62z" />
    <glyph glyph-name="zacute" unicode="&#x17a;" horiz-adv-x="350" 
d="M264 684c17 0 21 -11 11 -24l-72 -90c-6 -8 -14 -12 -24 -12h-57c-16 0 -21 10 -13 24l53 88c5 9 13 14 24 14h78zM185 129h125c13 0 20 -7 20 -20v-89c0 -13 -7 -20 -20 -20h-238c-33 0 -52 20 -52 54v22c0 20 2 41 15 63l134 232h-118c-13 0 -20 7 -20 20v89
c0 13 7 20 20 20h228c33 0 51 -18 51 -51v-28c0 -15 0 -39 -13 -62z" />
    <glyph glyph-name="zcaron" unicode="&#x17e;" horiz-adv-x="350" 
d="M71 685h54c10 0 18 -3 24 -12l31 -42l30 42c6 9 14 12 24 12h54c16 0 22 -11 14 -24l-57 -89c-6 -10 -14 -13 -24 -13h-83c-10 0 -18 3 -24 13l-57 89c-8 13 -2 24 14 24zM185 129h125c13 0 20 -7 20 -20v-89c0 -13 -7 -20 -20 -20h-238c-33 0 -52 20 -52 54v22
c0 20 2 41 15 63l134 232h-118c-13 0 -20 7 -20 20v89c0 13 7 20 20 20h228c33 0 51 -18 51 -51v-28c0 -15 0 -39 -13 -62z" />
    <glyph glyph-name="zdotaccent" unicode="&#x17c;" horiz-adv-x="350" 
d="M180 558c-44 0 -75 33 -75 75c0 43 31 75 75 75c42 0 75 -32 75 -75c0 -40 -33 -75 -75 -75zM185 129h125c13 0 20 -7 20 -20v-89c0 -13 -7 -20 -20 -20h-238c-33 0 -52 20 -52 54v22c0 20 2 41 15 63l134 232h-118c-13 0 -20 7 -20 20v89c0 13 7 20 20 20h228
c33 0 51 -18 51 -51v-28c0 -15 0 -39 -13 -62z" />
    <glyph glyph-name="uni0163.ss01" horiz-adv-x="316" 
d="M261 -5c-11 0 -22 1 -33 2l-6 -41h5c39 -3 70 -33 70 -75c0 -59 -44 -93 -102 -93c-49 0 -88 28 -96 76c-3 13 6 21 19 21h26c11 0 15 -6 22 -16c6 -8 17 -13 29 -13c18 0 32 9 32 25c0 15 -14 25 -32 25c-13 0 -24 -1 -35 -3c-5 -1 -9 0 -13 4l-5 4c-4 4 -5 7 -4 13
l18 97c-53 31 -83 88 -83 167v188h-45c-13 0 -20 7 -20 20v84c0 13 7 20 20 20h45v128c0 13 7 20 20 20h98c13 0 20 -7 20 -20v-128h60c13 0 20 -7 20 -20v-84c0 -13 -7 -20 -20 -20h-60v-190c0 -42 19 -61 62 -61h9c13 0 20 -7 20 -20v-90c0 -13 -7 -20 -20 -20h-21z" />
    <glyph glyph-name="uni0410" unicode="&#x410;" horiz-adv-x="444" 
d="M58 0c-13 0 -20 7 -20 20v499c0 116 74 193 184 193s184 -77 184 -193v-499c0 -13 -7 -20 -20 -20h-107c-13 0 -20 7 -20 20v182h-74v-182c0 -13 -7 -20 -20 -20h-107zM185 337h74v194c0 27 -14 43 -37 43s-37 -16 -37 -43v-194z" />
    <glyph glyph-name="uni0411" unicode="&#x411;" horiz-adv-x="417" 
d="M98 -5c-39 0 -60 21 -60 60v451c0 119 81 199 203 199h115c11 0 20 -9 20 -20v-95c0 -11 -9 -20 -20 -20h-115c-35 0 -56 -24 -56 -64v-72h41c125 0 178 -92 178 -202v-36c0 -132 -53 -201 -178 -201h-128zM185 130h29c29 0 42 25 42 66v35c0 42 -13 68 -42 68h-29v-169z
" />
    <glyph glyph-name="uni0412" unicode="&#x412;" horiz-adv-x="426" 
d="M348 362c36 -33 57 -78 57 -131v-40c0 -119 -74 -196 -183 -196h-123c-35 0 -61 26 -61 61v463c0 116 72 193 178 193c107 0 179 -77 179 -193v-37c1 -48 -17 -89 -47 -120zM185 534v-116h33c18 0 30 17 30 45v71c0 25 -13 41 -33 41c-19 0 -30 -16 -30 -41zM256 178v58
c0 33 -14 52 -38 52h-33v-160h33c24 0 38 19 38 50z" />
    <glyph glyph-name="uni0413" unicode="&#x413;" horiz-adv-x="370" 
d="M58 0c-13 0 -20 7 -20 20v471c0 134 76 213 205 213h99c11 0 20 -9 20 -20v-95c0 -11 -9 -20 -20 -20h-95c-42 0 -61 -22 -61 -67v-482c0 -13 -7 -20 -20 -20h-108z" />
    <glyph glyph-name="uni0403" unicode="&#x403;" horiz-adv-x="370" 
d="M183 769c-16 0 -22 11 -13 24l58 89c6 9 14 13 24 13h77c17 0 22 -12 11 -25l-76 -90c-7 -8 -15 -11 -25 -11h-56zM58 0c-13 0 -20 7 -20 20v471c0 134 76 213 205 213h99c11 0 20 -9 20 -20v-95c0 -11 -9 -20 -20 -20h-95c-42 0 -61 -22 -61 -67v-482
c0 -13 -7 -20 -20 -20h-108z" />
    <glyph glyph-name="uni0490" unicode="&#x490;" horiz-adv-x="375" 
d="M347 800c13 0 20 -7 20 -20v-190c0 -11 -9 -20 -20 -20h-104c-36 0 -57 -24 -57 -64v-486c0 -13 -7 -20 -20 -20h-108c-13 0 -20 7 -20 20v486c0 119 82 199 205 199h8v75c0 13 7 20 20 20h76z" />
    <glyph glyph-name="uni0414" unicode="&#x414;" horiz-adv-x="531" 
d="M30 -119c-13 0 -20 7 -20 20v174c0 34 21 56 47 76c29 23 42 58 42 210v153c0 115 75 191 187 191h115c39 0 60 -21 60 -60v-510c39 0 62 -31 62 -76v-158c0 -13 -7 -20 -20 -20h-103c-13 0 -20 7 -20 20v99h-227v-99c0 -13 -7 -20 -20 -20h-103zM199 135h116v435h-24
c-29 0 -45 -22 -45 -55v-190c0 -111 -10 -163 -47 -190z" />
    <glyph glyph-name="uni0415" unicode="&#x415;" horiz-adv-x="362" 
d="M218 -5c-111 0 -185 77 -185 193v324c0 116 74 193 185 193h106c13 0 20 -7 20 -20v-95c0 -13 -7 -20 -20 -20h-86c-36 0 -57 -23 -57 -63v-90h118c13 0 20 -7 20 -20v-90c0 -13 -7 -20 -20 -20h-118v-94c0 -40 21 -63 57 -63h86c13 0 20 -7 20 -20v-95
c0 -13 -7 -20 -20 -20h-106z" />
    <glyph glyph-name="uni0401" unicode="&#x401;" horiz-adv-x="362" 
d="M129 768c-35 0 -57 23 -57 57s22 57 57 57c33 0 56 -23 56 -57s-23 -57 -56 -57zM279 768c-33 0 -56 23 -56 57s23 57 56 57c35 0 57 -23 57 -57s-22 -57 -57 -57zM218 -5c-111 0 -185 77 -185 193v324c0 116 74 193 185 193h106c13 0 20 -7 20 -20v-95
c0 -13 -7 -20 -20 -20h-86c-36 0 -57 -23 -57 -63v-90h118c13 0 20 -7 20 -20v-90c0 -13 -7 -20 -20 -20h-118v-94c0 -40 21 -63 57 -63h86c13 0 20 -7 20 -20v-95c0 -13 -7 -20 -20 -20h-106z" />
    <glyph glyph-name="uni0416" unicode="&#x416;" horiz-adv-x="656" 
d="M59 0c-13 0 -20 7 -20 20v201c0 62 18 115 53 146l-58 311c-3 13 4 22 18 22h104c12 0 20 -5 22 -18l41 -268h37v266c0 13 7 20 20 20h104c13 0 20 -7 20 -20v-266h37l41 268c2 13 10 18 22 18h104c14 0 21 -9 18 -22l-58 -311c35 -31 53 -84 53 -146v-201
c0 -13 -7 -20 -20 -20h-107c-13 0 -20 7 -20 20v206c0 37 -14 53 -47 53h-23v-259c0 -13 -7 -20 -20 -20h-104c-13 0 -20 7 -20 20v259h-23c-33 0 -47 -16 -47 -53v-206c0 -13 -7 -20 -20 -20h-107z" />
    <glyph glyph-name="uni0417" unicode="&#x417;" horiz-adv-x="423" 
d="M204 -5c-110 0 -179 68 -187 175c-1 14 6 21 19 21h109c12 0 18 -7 20 -20c4 -27 18 -40 43 -40c32 0 46 19 46 50v53c0 33 -14 56 -48 56h-63c-13 0 -20 7 -20 20v90c0 13 7 20 20 20h53c28 0 40 21 40 47v70c0 25 -13 41 -32 41c-18 0 -29 -14 -32 -49
c-1 -14 -9 -21 -21 -21h-107c-13 0 -20 7 -19 21c7 111 77 183 179 183c106 0 178 -77 178 -193v-37c0 -48 -16 -91 -43 -118c43 -28 63 -79 63 -133v-40c0 -119 -73 -196 -198 -196z" />
    <glyph glyph-name="uni0418" unicode="&#x418;" horiz-adv-x="445" 
d="M257 680c0 13 7 20 20 20h106c13 0 20 -7 20 -20v-625c0 -39 -21 -60 -60 -60h-115c-133 0 -190 88 -190 204v481c0 13 7 20 20 20h108c13 0 20 -7 20 -20v-486c0 -38 17 -64 46 -64h25v550z" />
    <glyph glyph-name="uni0419" unicode="&#x419;" horiz-adv-x="445" 
d="M222 767c-68 0 -115 41 -124 105c-1 14 7 21 20 21h50c12 0 16 -6 21 -18c6 -11 17 -18 33 -18s27 7 33 18c5 12 9 18 21 18h50c13 0 21 -8 20 -21c-9 -64 -56 -105 -124 -105zM257 680c0 13 7 20 20 20h106c13 0 20 -7 20 -20v-625c0 -39 -21 -60 -60 -60h-115
c-133 0 -190 88 -190 204v481c0 13 7 20 20 20h108c13 0 20 -7 20 -20v-486c0 -38 17 -64 46 -64h25v550z" />
    <glyph glyph-name="uni040D" unicode="&#x40d;" horiz-adv-x="445" 
d="M295 769h-56c-10 0 -18 3 -25 11l-76 90c-11 13 -6 25 11 25h77c10 0 18 -4 24 -13l58 -89c9 -13 3 -24 -13 -24zM257 680c0 13 7 20 20 20h106c13 0 20 -7 20 -20v-625c0 -39 -21 -60 -60 -60h-115c-133 0 -190 88 -190 204v481c0 13 7 20 20 20h108c13 0 20 -7 20 -20
v-486c0 -38 17 -64 46 -64h25v550z" />
    <glyph glyph-name="uni041A" unicode="&#x41a;" horiz-adv-x="447" 
d="M62 0c-13 0 -20 7 -20 20v660c0 13 7 20 20 20h106c13 0 20 -7 20 -20v-266h37l42 268c2 13 10 18 22 18h106c14 0 21 -9 18 -22l-62 -311c38 -31 56 -84 56 -146v-201c0 -13 -7 -20 -20 -20h-108c-13 0 -20 7 -20 20v206c0 37 -14 53 -48 53h-23v-259
c0 -13 -7 -20 -20 -20h-106z" />
    <glyph glyph-name="uni040C" unicode="&#x40c;" horiz-adv-x="447" 
d="M172 769c-16 0 -22 11 -13 24l58 89c6 9 14 13 24 13h77c17 0 22 -12 11 -25l-76 -90c-7 -8 -15 -11 -25 -11h-56zM62 0c-13 0 -20 7 -20 20v660c0 13 7 20 20 20h106c13 0 20 -7 20 -20v-266h37l42 268c2 13 10 18 22 18h106c14 0 21 -9 18 -22l-62 -311
c38 -31 56 -84 56 -146v-201c0 -13 -7 -20 -20 -20h-108c-13 0 -20 7 -20 20v206c0 37 -14 53 -48 53h-23v-259c0 -13 -7 -20 -20 -20h-106z" />
    <glyph glyph-name="uni041B" unicode="&#x41b;" horiz-adv-x="486" 
d="M29 -4c-14 -1 -21 6 -21 19v96c0 12 7 18 19 21c37 5 54 31 54 83v299c0 115 75 191 188 191h115c39 0 60 -21 60 -60v-626c0 -13 -7 -20 -20 -20h-106c-13 0 -20 7 -20 20v551h-24c-28 0 -45 -20 -45 -55v-319c0 -118 -74 -193 -200 -200z" />
    <glyph glyph-name="uni041C" unicode="&#x41c;" horiz-adv-x="654" 
d="M62 0c-13 0 -20 7 -20 20v620c0 42 20 65 60 65h88c32 0 46 -20 56 -55l50 -169c10 -35 24 -91 30 -127h2c6 36 20 92 30 127l50 169c10 35 24 55 56 55h88c40 0 60 -23 60 -65v-620c0 -13 -7 -20 -20 -20h-103c-14 0 -20 7 -20 20v301c0 66 3 127 6 186h-3
c-6 -40 -18 -99 -28 -138l-36 -140c-9 -34 -29 -53 -65 -53h-32c-36 0 -56 19 -65 53l-36 140c-10 39 -22 98 -28 138h-3c3 -59 6 -120 6 -186v-301c0 -13 -6 -20 -20 -20h-103z" />
    <glyph glyph-name="uni041D" unicode="&#x41d;" horiz-adv-x="444" 
d="M256 680c0 13 7 20 20 20h106c13 0 20 -7 20 -20v-660c0 -13 -7 -20 -20 -20h-106c-13 0 -20 7 -20 20v265h-68v-265c0 -13 -7 -20 -20 -20h-106c-13 0 -20 7 -20 20v660c0 13 7 20 20 20h106c13 0 20 -7 20 -20v-260h68v260z" />
    <glyph glyph-name="uni041E" unicode="&#x41e;" horiz-adv-x="442" 
d="M221 -12c-112 0 -188 77 -188 193v338c0 116 76 193 188 193s188 -77 188 -193v-338c0 -116 -76 -193 -188 -193zM221 125c25 0 40 16 40 44v362c0 28 -15 44 -40 44s-40 -16 -40 -44v-362c0 -28 15 -44 40 -44z" />
    <glyph glyph-name="uni041F" unicode="&#x41f;" horiz-adv-x="452" 
d="M62 0c-13 0 -20 7 -20 20v620c0 39 21 60 60 60h248c39 0 60 -21 60 -60v-620c0 -13 -7 -20 -20 -20h-110c-13 0 -20 7 -20 20v545h-68v-545c0 -13 -7 -20 -20 -20h-110z" />
    <glyph glyph-name="uni0420" unicode="&#x420;" horiz-adv-x="423" 
d="M58 0c-13 0 -20 7 -20 20v499c0 116 73 193 181 193c112 0 188 -77 188 -193v-91c0 -116 -74 -193 -185 -193h-37v-215c0 -13 -7 -20 -20 -20h-107zM185 370h27c33 0 47 16 47 53v108c0 27 -14 43 -38 43c-22 0 -36 -16 -36 -43v-161z" />
    <glyph glyph-name="uni0421" unicode="&#x421;" horiz-adv-x="413" 
d="M218 -12c-111 0 -185 77 -185 193v338c0 116 74 193 185 193c105 0 174 -75 178 -203c0 -14 -6 -21 -19 -21h-108c-12 0 -20 7 -20 20c-1 46 -14 66 -35 66c-20 0 -33 -16 -33 -43v-362c0 -27 13 -43 33 -43c23 0 37 24 39 76c1 13 8 20 20 20h108c13 0 20 -8 19 -23
c-5 -133 -72 -211 -182 -211z" />
    <glyph glyph-name="uni0422" unicode="&#x422;" horiz-adv-x="376" 
d="M348 700c13 0 20 -7 20 -20v-95c0 -13 -7 -20 -20 -20h-87v-545c0 -13 -7 -20 -20 -20h-106c-13 0 -20 7 -20 20v545h-87c-13 0 -20 7 -20 20v95c0 13 7 20 20 20h320z" />
    <glyph glyph-name="uni0423" unicode="&#x423;" horiz-adv-x="421" 
d="M49 -5c-13 0 -20 7 -20 20v95c0 13 7 20 20 20h140c31 0 47 22 47 64v41h-29c-122 0 -189 82 -189 204v241c0 13 7 20 20 20h107c13 0 20 -7 20 -20v-246c0 -40 17 -64 46 -64h25v310c0 13 7 20 20 20h107c13 0 20 -7 20 -20v-481c0 -122 -66 -204 -190 -204h-144z" />
    <glyph glyph-name="uni040E" unicode="&#x40e;" horiz-adv-x="421" 
d="M201 767c-68 0 -115 41 -124 105c-1 14 7 21 20 21h50c12 0 16 -6 21 -18c6 -11 17 -18 33 -18s27 7 33 18c5 12 9 18 21 18h50c13 0 21 -8 20 -21c-9 -64 -56 -105 -124 -105zM49 -5c-13 0 -20 7 -20 20v95c0 13 7 20 20 20h140c31 0 47 22 47 64v41h-29
c-122 0 -189 82 -189 204v241c0 13 7 20 20 20h107c13 0 20 -7 20 -20v-246c0 -40 17 -64 46 -64h25v310c0 13 7 20 20 20h107c13 0 20 -7 20 -20v-481c0 -122 -66 -204 -190 -204h-144z" />
    <glyph glyph-name="uni0424" unicode="&#x424;" horiz-adv-x="618" 
d="M257 -55c-12 0 -20 8 -20 20v80h-29c-114 0 -187 77 -187 199v223c0 121 73 198 187 198h29v67c0 12 8 20 20 20h104c12 0 20 -8 20 -20v-67h29c114 0 187 -77 187 -198v-223c0 -122 -73 -199 -187 -199h-29v-80c0 -12 -8 -20 -20 -20h-104zM218 180h19v350h-19
c-34 0 -51 -20 -51 -53v-244c0 -33 17 -53 51 -53zM381 180h19c34 0 51 20 51 53v244c0 33 -17 53 -51 53h-19v-350z" />
    <glyph glyph-name="uni0425" unicode="&#x425;" horiz-adv-x="430" 
d="M397 680v-202c0 -49 -17 -92 -49 -124c32 -32 49 -75 49 -124v-210c0 -13 -7 -20 -20 -20h-107c-13 0 -20 7 -20 20v222c0 27 -13 43 -35 43s-35 -16 -35 -43v-222c0 -13 -7 -20 -20 -20h-107c-13 0 -20 7 -20 20v210c0 49 17 92 49 124c-32 32 -49 75 -49 124v202
c0 13 7 20 20 20h107c13 0 20 -7 20 -20v-214c0 -27 13 -43 35 -43s35 16 35 43v214c0 13 7 20 20 20h107c13 0 20 -7 20 -20z" />
    <glyph glyph-name="uni0427" unicode="&#x427;" horiz-adv-x="415" 
d="M247 0c-13 0 -20 7 -20 20v200h-29c-124 0 -190 82 -190 204v256c0 13 7 20 20 20h108c13 0 20 -7 20 -20v-261c0 -40 17 -64 46 -64h25v325c0 13 7 20 20 20h106c13 0 20 -7 20 -20v-660c0 -13 -7 -20 -20 -20h-106z" />
    <glyph glyph-name="uni0426" unicode="&#x426;" horiz-adv-x="472" 
d="M344 -116c-13 0 -20 7 -20 20v96h-96c-134 0 -190 88 -190 204v476c0 13 7 20 20 20h108c13 0 20 -7 20 -20v-481c0 -38 17 -64 46 -64h25v545c0 13 7 20 20 20h107c13 0 20 -7 20 -20v-545c39 0 60 -21 60 -60v-171c0 -13 -7 -20 -20 -20h-100z" />
    <glyph glyph-name="uni0428" unicode="&#x428;" horiz-adv-x="647" 
d="M226 0c-133 0 -188 88 -188 204v476c0 13 7 20 20 20h106c13 0 20 -7 20 -20v-481c0 -38 17 -64 46 -64h22v545c0 13 7 20 20 20h104c13 0 20 -7 20 -20v-545h64v545c0 13 7 20 20 20h105c13 0 20 -7 20 -20v-620c0 -39 -21 -60 -60 -60h-319z" />
    <glyph glyph-name="uni0429" unicode="&#x429;" horiz-adv-x="681" 
d="M553 -116c-13 0 -20 7 -20 20v96h-307c-133 0 -188 88 -188 204v476c0 13 7 20 20 20h106c13 0 20 -7 20 -20v-481c0 -38 17 -64 46 -64h24v545c0 13 7 20 20 20h104c13 0 20 -7 20 -20v-545h70v545c0 13 7 20 20 20h105c13 0 20 -7 20 -20v-545c39 0 60 -21 60 -60v-171
c0 -13 -7 -20 -20 -20h-100z" />
    <glyph glyph-name="uni040F" unicode="&#x40f;" horiz-adv-x="444" 
d="M172 -116c-13 0 -20 7 -20 20v96h-50c-39 0 -60 21 -60 60v620c0 13 7 20 20 20h106c13 0 20 -7 20 -20v-545h68v545c0 13 7 20 20 20h106c13 0 20 -7 20 -20v-620c0 -39 -21 -60 -60 -60h-49v-96c0 -13 -7 -20 -20 -20h-101z" />
    <glyph glyph-name="uni042C" unicode="&#x42c;" horiz-adv-x="423" 
d="M102 -5c-39 0 -60 21 -60 60v625c0 13 7 20 20 20h106c13 0 20 -7 20 -20v-236h41c107 0 179 -81 179 -202v-46c0 -121 -72 -201 -179 -201h-127zM188 130h29c28 0 43 19 43 56v65c0 38 -15 58 -43 58h-29v-179z" />
    <glyph glyph-name="uni042A" unicode="&#x42a;" horiz-adv-x="483" 
d="M289 444c113 0 179 -75 179 -202v-46c0 -126 -66 -201 -179 -201h-127c-39 0 -60 21 -60 60v510h-74c-13 0 -20 7 -20 20v95c0 13 7 20 20 20h164c39 0 56 -21 56 -60v-196h41zM320 186v65c0 32 -13 58 -43 58h-29v-179h29c30 0 43 25 43 56z" />
    <glyph glyph-name="uni042B" unicode="&#x42b;" horiz-adv-x="636" 
d="M468 0c-13 0 -20 7 -20 20v664c0 13 7 20 20 20h106c13 0 20 -7 20 -20v-664c0 -13 -7 -20 -20 -20h-106zM102 -5c-39 0 -60 21 -60 60v625c0 13 7 20 20 20h106c13 0 20 -7 20 -20v-236h41c111 0 177 -75 177 -202v-46c0 -126 -65 -201 -177 -201h-127zM188 130h29
c29 0 42 22 42 49v79c0 28 -13 51 -42 51h-29v-179z" />
    <glyph glyph-name="uni0409" unicode="&#x409;" horiz-adv-x="677" 
d="M29 -4c-14 -1 -21 6 -21 19v96c0 12 7 18 19 21c38 5 55 31 55 83v299c0 115 75 191 187 191h114c39 0 60 -21 60 -60v-201h41c125 0 178 -92 178 -202v-46c0 -132 -53 -201 -178 -201h-126c-39 0 -60 21 -60 60v515h-24c-28 0 -45 -20 -45 -55v-321
c0 -116 -74 -191 -200 -198zM443 130h29c29 0 42 25 42 66v45c0 42 -13 68 -42 68h-29v-179z" />
    <glyph glyph-name="uni040A" unicode="&#x40a;" horiz-adv-x="637" 
d="M444 432c125 0 178 -92 178 -202v-34c0 -132 -53 -201 -178 -201h-126c-39 0 -60 21 -60 60v242h-68v-277c0 -13 -7 -20 -20 -20h-108c-13 0 -20 7 -20 20v660c0 13 7 20 20 20h108c13 0 20 -7 20 -20v-248h68v248c0 13 7 20 20 20h105c13 0 20 -7 20 -20v-248h41z
M474 196v33c0 42 -13 68 -42 68h-29v-167h29c29 0 42 25 42 66z" />
    <glyph glyph-name="uni0405" unicode="&#x405;" horiz-adv-x="412" 
d="M206 -12c-113 0 -182 79 -186 213c0 14 6 21 19 21h107c12 0 19 -7 20 -20c2 -53 16 -77 43 -77c23 0 35 17 35 42c0 127 -218 191 -218 377c0 107 71 168 174 168c110 0 178 -75 182 -203c0 -14 -6 -21 -19 -21h-106c-12 0 -20 7 -20 21c-1 46 -13 67 -34 67
c-19 0 -31 -10 -31 -32c0 -110 220 -177 220 -377c0 -112 -75 -179 -186 -179z" />
    <glyph glyph-name="uni0404" unicode="&#x404;" horiz-adv-x="413" 
d="M381 222c13 0 20 -8 19 -23c-5 -133 -72 -211 -182 -211c-111 0 -185 77 -185 193v338c0 116 74 193 185 193c105 0 174 -75 178 -203c0 -14 -6 -21 -19 -21h-108c-12 0 -20 7 -20 20c-1 46 -14 66 -35 66c-20 0 -33 -16 -33 -43v-118h107c13 0 20 -7 20 -20v-76
c0 -13 -7 -20 -20 -20h-107v-128c0 -27 13 -43 33 -43c23 0 37 24 39 76c1 13 8 20 20 20h108z" />
    <glyph glyph-name="uni042D" unicode="&#x42d;" horiz-adv-x="413" 
d="M195 712c111 0 185 -77 185 -193v-338c0 -116 -74 -193 -185 -193c-110 0 -177 78 -182 211c-1 15 6 23 19 23h108c12 0 19 -7 20 -20c2 -52 16 -76 39 -76c20 0 33 16 33 43v128h-107c-13 0 -20 7 -20 20v76c0 13 7 20 20 20h107v118c0 27 -13 43 -33 43
c-21 0 -34 -20 -35 -66c0 -13 -8 -20 -20 -20h-108c-13 0 -19 7 -19 21c4 128 73 203 178 203z" />
    <glyph glyph-name="uni0406" unicode="&#x406;" horiz-adv-x="230" 
d="M42 680c0 13 7 20 20 20h106c13 0 20 -7 20 -20v-660c0 -13 -7 -20 -20 -20h-106c-13 0 -20 7 -20 20v660z" />
    <glyph glyph-name="uni0407" unicode="&#x407;" horiz-adv-x="230" 
d="M41 768c-35 0 -57 23 -57 57s22 57 57 57c33 0 56 -23 56 -57s-23 -57 -56 -57zM191 768c-33 0 -56 23 -56 57s23 57 56 57c35 0 57 -23 57 -57s-22 -57 -57 -57zM42 680c0 13 7 20 20 20h106c13 0 20 -7 20 -20v-660c0 -13 -7 -20 -20 -20h-106c-13 0 -20 7 -20 20v660z
" />
    <glyph glyph-name="uni0408" unicode="&#x408;" horiz-adv-x="412" 
d="M190 -12c-114 0 -179 83 -182 213c0 14 6 21 19 21h108c12 0 19 -7 20 -20c2 -51 15 -77 37 -77s35 15 35 48v508c0 13 7 20 20 20h107c13 0 20 -7 20 -20v-493c0 -124 -62 -200 -184 -200z" />
    <glyph glyph-name="uni040B" unicode="&#x40b;" horiz-adv-x="499" 
d="M135 0c-13 0 -20 7 -20 20v545h-87c-13 0 -20 7 -20 20v95c0 13 7 20 20 20h320c13 0 20 -7 20 -20v-95c0 -13 -7 -20 -20 -20h-87v-73c16 6 32 10 46 10c96 0 159 -69 159 -173v-309c0 -13 -7 -20 -20 -20h-105c-13 0 -20 7 -20 20v315c0 24 -11 37 -30 37
s-30 -13 -30 -37v-315c0 -13 -7 -20 -20 -20h-106z" />
    <glyph glyph-name="uni042E" unicode="&#x42e;" horiz-adv-x="653" 
d="M434 712c111 0 186 -77 186 -193v-338c0 -116 -75 -193 -186 -193s-186 77 -186 193v104h-60v-265c0 -13 -7 -20 -20 -20h-106c-13 0 -20 7 -20 20v660c0 13 7 20 20 20h106c13 0 20 -7 20 -20v-260h60v99c0 116 75 193 186 193zM472 169v362c0 27 -14 43 -38 43
s-38 -16 -38 -43v-362c0 -27 14 -43 38 -43s38 16 38 43z" />
    <glyph glyph-name="uni042F" unicode="&#x42f;" horiz-adv-x="456" 
d="M236 712c109 0 182 -77 182 -193v-499c0 -13 -7 -20 -20 -20h-108c-13 0 -20 7 -20 20v205h-25l-69 -205c-4 -12 -7 -20 -20 -20h-117c-13 0 -25 8 -20 20l93 244c-41 34 -65 87 -65 154v101c0 116 76 193 189 193zM270 360v171c0 27 -14 43 -36 43
c-24 0 -38 -16 -38 -43v-118c0 -37 14 -53 47 -53h27z" />
    <glyph glyph-name="uni0402" unicode="&#x402;" horiz-adv-x="496" 
d="M301 -3c-13 0 -20 7 -20 20v90c0 13 7 20 20 20s21 13 21 34v180c0 28 -12 41 -31 41c-22 0 -33 -13 -33 -41v-321c0 -13 -7 -20 -20 -20h-103c-13 0 -20 7 -20 20v545h-87c-13 0 -20 7 -20 20v95c0 13 7 20 20 20h320c13 0 20 -7 20 -20v-95c0 -13 -7 -20 -20 -20h-90
v-63c18 6 36 10 52 10c93 0 157 -69 157 -173v-169c0 -104 -66 -173 -166 -173z" />
    <glyph glyph-name="uni0414.loclBGR" horiz-adv-x="512" 
d="M22 -119c-13 0 -20 7 -20 20v158c0 42 22 76 59 76h2l71 514c5 36 27 56 64 56h116c37 0 59 -19 64 -56l70 -514h2c39 0 60 -34 60 -76v-158c0 -13 -7 -20 -20 -20h-105c-13 0 -20 7 -20 20v99h-218v-99c0 -13 -7 -20 -20 -20h-105zM208 135h96l-48 419z" />
    <glyph glyph-name="uni0418.loclBGR" horiz-adv-x="448" 
d="M202 -12c-103 0 -164 76 -164 190v502c0 13 7 20 20 20h107c13 0 20 -7 20 -20v-514c0 -27 11 -43 33 -43c24 0 41 16 41 44v513c0 13 7 20 20 20h107c13 0 20 -7 20 -20v-660c0 -13 -7 -20 -20 -20h-43c-11 0 -18 5 -23 15l-11 21c-26 -30 -62 -48 -107 -48z" />
    <glyph glyph-name="uni0419.loclBGR" horiz-adv-x="448" 
d="M222 767c-68 0 -115 41 -124 105c-1 14 7 21 20 21h50c12 0 16 -6 21 -18c6 -11 17 -18 33 -18s27 7 33 18c5 12 9 18 21 18h50c13 0 21 -8 20 -21c-9 -64 -56 -105 -124 -105zM202 -12c-103 0 -164 76 -164 190v502c0 13 7 20 20 20h107c13 0 20 -7 20 -20v-514
c0 -27 11 -43 33 -43c24 0 41 16 41 44v513c0 13 7 20 20 20h107c13 0 20 -7 20 -20v-660c0 -13 -7 -20 -20 -20h-43c-11 0 -18 5 -23 15l-11 21c-26 -30 -62 -48 -107 -48z" />
    <glyph glyph-name="uni040D.loclBGR" horiz-adv-x="448" 
d="M295 769h-56c-10 0 -18 3 -25 11l-76 90c-11 13 -6 25 11 25h77c10 0 18 -4 24 -13l58 -89c9 -13 3 -24 -13 -24zM202 -12c-103 0 -164 76 -164 190v502c0 13 7 20 20 20h107c13 0 20 -7 20 -20v-514c0 -27 11 -43 33 -43c24 0 41 16 41 44v513c0 13 7 20 20 20h107
c13 0 20 -7 20 -20v-660c0 -13 -7 -20 -20 -20h-43c-11 0 -18 5 -23 15l-11 21c-26 -30 -62 -48 -107 -48z" />
    <glyph glyph-name="uni041B.loclBGR" horiz-adv-x="422" 
d="M422 21c2 -14 -5 -21 -18 -21h-111c-12 0 -19 6 -21 19l-61 492l-61 -492c-1 -13 -9 -19 -21 -19h-111c-13 0 -20 7 -18 21l104 628c5 36 27 56 64 56h87c37 0 59 -19 64 -56z" />
    <glyph glyph-name="uni041F.loclBGR" horiz-adv-x="444" 
d="M58 0c-13 0 -20 7 -20 20v500c0 115 73 192 184 192s184 -77 184 -192v-500c0 -13 -7 -20 -20 -20h-107c-13 0 -20 7 -20 20v512c0 27 -13 43 -37 43s-37 -16 -37 -43v-512c0 -13 -7 -20 -20 -20h-107z" />
    <glyph glyph-name="uni0422.loclBGR" horiz-adv-x="376" 
d="M348 700c13 0 20 -7 20 -20v-95c0 -13 -7 -20 -20 -20h-87v-545c0 -13 -7 -20 -20 -20h-106c-13 0 -20 7 -20 20v545h-87c-13 0 -20 7 -20 20v95c0 13 7 20 20 20h320z" />
    <glyph glyph-name="uni0423.loclBGR" horiz-adv-x="414" 
d="M361 701c13 0 20 -7 20 -20v-482c0 -122 -66 -204 -190 -204h-148c-13 0 -20 7 -20 20v95c0 13 7 20 20 20h136c39 0 55 22 55 64v43c-14 -8 -30 -12 -46 -12c-102 0 -175 77 -175 193v263c0 13 7 20 20 20h107c13 0 20 -7 20 -20v-275c0 -27 13 -43 37 -43s37 16 37 43
v275c0 13 7 20 20 20h107z" />
    <glyph glyph-name="uni040E.loclBGR" horiz-adv-x="414" 
d="M207 767c-68 0 -115 41 -124 105c-1 14 7 21 20 21h50c12 0 16 -6 21 -18c6 -11 17 -18 33 -18s27 7 33 18c5 12 9 18 21 18h50c13 0 21 -8 20 -21c-9 -64 -56 -105 -124 -105zM361 701c13 0 20 -7 20 -20v-482c0 -122 -66 -204 -190 -204h-148c-13 0 -20 7 -20 20v95
c0 13 7 20 20 20h136c39 0 55 22 55 64v43c-14 -8 -30 -12 -46 -12c-102 0 -175 77 -175 193v263c0 13 7 20 20 20h107c13 0 20 -7 20 -20v-275c0 -27 13 -43 37 -43s37 16 37 43v275c0 13 7 20 20 20h107z" />
    <glyph glyph-name="uni0424.loclBGR" horiz-adv-x="634" 
d="M429 712c104 0 172 -77 172 -193v-338c0 -116 -68 -193 -172 -193c-14 0 -27 1 -40 4v-102c0 -13 -7 -20 -20 -20h-104c-13 0 -20 7 -20 20v102c-13 -3 -26 -4 -40 -4c-104 0 -172 76 -172 192v339c0 116 68 193 172 193c14 0 27 -1 40 -4v81c0 13 7 20 20 20h104
c13 0 20 -7 20 -20v-81c13 3 26 4 40 4zM212 124c21 0 33 16 33 43v366c0 27 -12 43 -33 43c-22 0 -35 -16 -35 -43v-366c0 -27 13 -43 35 -43zM457 167v366c0 27 -13 43 -35 43c-21 0 -33 -16 -33 -43v-366c0 -27 12 -43 33 -43c22 0 35 16 35 43z" />
    <glyph glyph-name="uni0427.loclBGR" horiz-adv-x="428" 
d="M259 0c-13 0 -20 7 -20 20v206c-14 -8 -30 -12 -46 -12c-102 0 -175 77 -175 193v274c0 13 8 20 20 20h107c14 0 20 -7 20 -20v-286c0 -27 13 -43 37 -43s37 16 37 43v286c0 13 7 20 20 20h107c13 0 20 -7 20 -20v-661c0 -13 -7 -20 -20 -20h-107z" />
    <glyph glyph-name="uni0426.loclBGR" horiz-adv-x="508" 
d="M382 -116c-13 0 -20 7 -20 20v96c-20 8 -37 24 -44 40c-25 -30 -66 -52 -117 -52c-101 0 -163 76 -163 190v502c0 13 8 20 20 20h107c14 0 20 -7 20 -20v-514c0 -27 11 -43 33 -43c23 0 41 16 41 43v514c0 13 7 20 20 20h107c13 0 20 -7 20 -20v-499
c0 -102 94 -26 94 -138v-139c0 -13 -7 -20 -20 -20h-98z" />
    <glyph glyph-name="uni0428.loclBGR" horiz-adv-x="657" 
d="M218 -12c-109 0 -180 77 -180 192v500c0 13 7 20 20 20h105c13 0 20 -7 20 -20v-512c0 -27 12 -43 35 -43s36 16 36 43v512c0 13 7 20 20 20h105c13 0 20 -7 20 -20v-514c0 -27 13 -43 35 -43c21 0 36 16 36 43v514c0 13 7 20 20 20h104c14 0 21 -7 21 -20v-660
c0 -13 -6 -20 -17 -20h-30c-11 0 -18 5 -23 15l-11 21c-28 -30 -66 -48 -118 -48c-38 0 -74 15 -94 43c-25 -28 -63 -43 -104 -43z" />
    <glyph glyph-name="uni0429.loclBGR" horiz-adv-x="715" 
d="M592 -116c-13 0 -20 7 -20 20v96c-20 8 -37 23 -44 39c-21 -30 -55 -51 -105 -51c-42 0 -75 11 -102 31c-27 -20 -63 -31 -104 -31c-108 0 -179 77 -179 192v500c0 13 7 20 20 20h104c13 0 20 -7 20 -20v-512c0 -27 12 -43 35 -43s36 16 36 43v512c0 13 7 20 20 20h105
c14 0 20 -7 20 -20v-514c0 -27 15 -43 38 -43c21 0 33 16 33 43v514c0 13 7 20 20 20h104c13 0 20 -7 20 -20v-499c0 -94 94 -24 94 -128v-149c0 -13 -7 -20 -20 -20h-95z" />
    <glyph glyph-name="uni041B.ss01" horiz-adv-x="488" 
d="M29 -5c-14 0 -21 6 -21 20v96c0 12 7 19 19 21c38 6 55 31 55 83v305c0 115 73 192 184 192s184 -77 184 -192v-500c0 -13 -7 -20 -20 -20h-107c-13 0 -20 7 -20 20v512c0 27 -13 43 -37 43s-37 -16 -37 -43v-336c0 -119 -74 -201 -200 -201z" />
    <glyph glyph-name="uni0430" unicode="&#x430;" horiz-adv-x="390" 
d="M198 -12c-106 0 -176 69 -176 171c0 91 68 154 167 154h34v35c0 21 -10 34 -29 34c-22 0 -28 -13 -29 -28c-1 -12 -7 -14 -20 -14h-97c-13 0 -20 7 -19 20c8 92 73 152 167 152c99 0 165 -69 165 -173v-187c0 -99 -59 -164 -163 -164zM196 119c18 0 27 12 27 32v43h-25
c-24 0 -37 -13 -37 -35c0 -25 13 -40 35 -40z" />
    <glyph glyph-name="uni0431" unicode="&#x431;" horiz-adv-x="402" 
d="M202 -12c-101 0 -169 60 -169 150v354c0 95 60 168 168 194c50 12 84 19 113 26c14 3 22 -4 22 -18v-89c0 -12 -6 -19 -18 -22c-33 -6 -66 -11 -88 -17c-42 -11 -58 -34 -59 -71v-20c24 11 43 15 72 15c78 0 130 -60 130 -164v-188c0 -90 -68 -150 -171 -150zM202 118
c21 0 33 15 33 40v162c0 25 -12 40 -33 40c-19 0 -31 -15 -31 -40v-162c0 -25 12 -40 31 -40z" />
    <glyph glyph-name="uni0432" unicode="&#x432;" horiz-adv-x="396" 
d="M312 267c38 -18 63 -69 63 -127c0 -87 -54 -145 -136 -145h-146c-39 0 -60 21 -60 59v282c0 105 65 176 163 176c97 0 161 -59 161 -148c0 -40 -18 -79 -45 -97zM170 357v-46h25c21 0 32 15 32 45c0 24 -10 36 -30 36c-16 0 -27 -13 -27 -35zM204 123c22 0 34 12 34 36
c0 25 -12 38 -34 38h-34v-74h34z" />
    <glyph glyph-name="uni0433" unicode="&#x433;" horiz-adv-x="296" 
d="M53 0c-13 0 -20 7 -20 20v277c0 135 64 205 187 205h42c13 0 20 -7 20 -20v-90c0 -13 -7 -20 -20 -20h-37c-37 0 -54 -18 -54 -56v-296c0 -13 -7 -20 -20 -20h-98z" />
    <glyph glyph-name="uni0453" unicode="&#x453;" horiz-adv-x="295" 
d="M272 684c17 0 21 -11 11 -24l-72 -90c-6 -8 -14 -12 -24 -12h-57c-16 0 -21 10 -13 24l53 88c5 9 13 14 24 14h78zM53 0c-13 0 -20 7 -20 20v277c0 135 64 205 187 205h42c13 0 20 -7 20 -20v-90c0 -13 -7 -20 -20 -20h-37c-37 0 -54 -18 -54 -56v-296
c0 -13 -7 -20 -20 -20h-98z" />
    <glyph glyph-name="uni0491" unicode="&#x491;" horiz-adv-x="311" 
d="M53 0c-13 0 -20 7 -20 20v302c0 111 58 179 157 179v59c0 13 7 20 20 20h67c13 0 20 -7 20 -20v-125c0 -39 -21 -60 -60 -60h-26c-26 0 -40 -15 -40 -44v-311c0 -13 -7 -20 -20 -20h-98z" />
    <glyph glyph-name="uni0434" unicode="&#x434;" horiz-adv-x="464" 
d="M29 -116c-13 0 -20 7 -20 20v162c0 33 16 47 31 60c22 18 35 34 35 69v158c0 79 64 150 152 150h108c39 0 65 -20 65 -58v-323c32 0 50 -20 50 -57v-161c0 -13 -7 -20 -20 -20h-88c-13 0 -20 7 -20 20v96h-184v-96c0 -13 -7 -20 -20 -20h-89zM177 122h88v260h-20
c-22 0 -35 -18 -35 -48v-111c0 -43 -10 -73 -33 -101z" />
    <glyph glyph-name="uni0435" unicode="&#x435;" horiz-adv-x="392" 
d="M195 -12c-99 0 -166 69 -166 173v184c3 101 70 167 170 167c97 2 171 -65 171 -167c0 -95 -68 -158 -168 -158h-34v-35c0 -21 10 -34 29 -34c14 0 23 8 28 22c3 13 9 19 21 19h99c13 0 20 -7 19 -20c-8 -91 -74 -151 -169 -151zM168 308h34c18 0 29 11 29 34
c0 28 -12 40 -32 40s-31 -13 -31 -34v-40z" />
    <glyph glyph-name="uni0451" unicode="&#x451;" horiz-adv-x="392" 
d="M116 568c-35 0 -57 23 -57 57s22 57 57 57c33 0 56 -23 56 -57s-23 -57 -56 -57zM266 568c-33 0 -56 23 -56 57s23 57 56 57c35 0 57 -23 57 -57s-22 -57 -57 -57zM195 -12c-99 0 -166 69 -166 173v184c3 101 70 167 170 167c97 2 171 -65 171 -167
c0 -95 -68 -158 -168 -158h-34v-35c0 -21 10 -34 29 -34c14 0 23 8 28 22c3 13 9 19 21 19h99c13 0 20 -7 19 -20c-8 -91 -74 -151 -169 -151zM168 308h34c18 0 29 11 29 34c0 28 -12 40 -32 40s-31 -13 -31 -34v-40z" />
    <glyph glyph-name="uni0436" unicode="&#x436;" horiz-adv-x="578" 
d="M49 0c-13 0 -20 7 -20 20v126c0 63 21 108 57 138l-66 193c-5 14 3 23 17 23h100c11 0 19 -5 23 -17l50 -164h12v162c0 13 7 20 20 20h94c13 0 20 -7 20 -20v-162h12l50 164c4 12 12 17 23 17h100c14 0 22 -9 17 -23l-66 -193c36 -30 57 -75 57 -138v-126
c0 -13 -7 -20 -20 -20h-96c-13 0 -20 7 -20 20v135c0 21 -11 34 -30 34h-27v-169c0 -13 -7 -20 -20 -20h-94c-13 0 -20 7 -20 20v169h-27c-19 0 -30 -13 -30 -34v-135c0 -13 -7 -20 -20 -20h-96z" />
    <glyph glyph-name="uni0437" unicode="&#x437;" horiz-adv-x="374" 
d="M182 -12c-98 0 -164 60 -173 152c-1 14 6 21 19 21h100c12 0 18 -6 22 -19c5 -15 17 -24 34 -24c19 0 30 15 30 40s-15 39 -40 39h-26c-13 0 -20 7 -20 20v74c0 13 7 20 20 20h23c23 0 37 17 37 45c0 20 -11 32 -29 32c-12 0 -21 -7 -24 -23c-3 -13 -9 -20 -21 -20h-98
c-13 0 -20 7 -19 21c8 88 71 146 161 146c96 0 160 -59 160 -148c0 -41 -20 -80 -50 -97c39 -14 65 -58 65 -109c0 -102 -68 -170 -171 -170z" />
    <glyph glyph-name="uni0438" unicode="&#x438;" horiz-adv-x="404" 
d="M201 0c-101 0 -168 69 -168 173v308c0 13 7 20 20 20h98c13 0 20 -7 20 -20v-317c0 -21 11 -34 30 -34h28v351c0 13 7 20 20 20h98c13 0 20 -7 20 -20v-421c0 -39 -21 -60 -60 -60h-106z" />
    <glyph glyph-name="uni0439" unicode="&#x439;" horiz-adv-x="404" 
d="M201 559c-68 0 -115 41 -124 105c-1 14 7 21 20 21h50c12 0 16 -6 21 -18c6 -11 17 -18 33 -18s27 7 33 18c5 12 9 18 21 18h50c13 0 21 -8 20 -21c-9 -64 -56 -105 -124 -105zM201 0c-101 0 -168 69 -168 173v308c0 13 7 20 20 20h98c13 0 20 -7 20 -20v-317
c0 -21 11 -34 30 -34h28v351c0 13 7 20 20 20h98c13 0 20 -7 20 -20v-421c0 -39 -21 -60 -60 -60h-106z" />
    <glyph glyph-name="uni045D" unicode="&#x45d;" horiz-adv-x="404" 
d="M96 685h78c11 0 19 -5 24 -14l53 -88c8 -14 3 -24 -13 -24h-57c-10 0 -18 4 -24 12l-72 90c-10 13 -6 24 11 24zM201 0c-101 0 -168 69 -168 173v308c0 13 7 20 20 20h98c13 0 20 -7 20 -20v-317c0 -21 11 -34 30 -34h28v351c0 13 7 20 20 20h98c13 0 20 -7 20 -20v-421
c0 -39 -21 -60 -60 -60h-106z" />
    <glyph glyph-name="uni043A" unicode="&#x43a;" horiz-adv-x="404" 
d="M315 284c36 -30 57 -78 57 -138v-126c0 -13 -7 -20 -20 -20h-99c-13 0 -20 7 -20 20v135c0 21 -10 34 -29 34h-29v-169c0 -13 -7 -20 -20 -20h-98c-13 0 -20 7 -20 20v461c0 13 7 20 20 20h98c13 0 20 -7 20 -20v-162h16l53 164c4 12 12 17 23 17h100c14 0 22 -9 17 -23z
" />
    <glyph glyph-name="uni045C" unicode="&#x45c;" horiz-adv-x="404" 
d="M295 684c17 0 21 -11 11 -24l-72 -90c-6 -8 -14 -12 -24 -12h-57c-16 0 -21 10 -13 24l53 88c5 9 13 14 24 14h78zM315 284c36 -30 57 -78 57 -138v-126c0 -13 -7 -20 -20 -20h-99c-13 0 -20 7 -20 20v135c0 21 -10 34 -29 34h-29v-169c0 -13 -7 -20 -20 -20h-98
c-13 0 -20 7 -20 20v461c0 13 7 20 20 20h98c13 0 20 -7 20 -20v-162h16l53 164c4 12 12 17 23 17h100c14 0 22 -9 17 -23z" />
    <glyph glyph-name="uni043B" unicode="&#x43b;" horiz-adv-x="426" 
d="M29 -5c-12 0 -20 8 -20 20v90c0 12 8 20 20 20c21 0 34 14 34 36v171c0 104 66 173 166 173h100c38 0 60 -22 60 -60v-425c0 -12 -8 -20 -20 -20h-96c-12 0 -20 8 -20 20v355h-24c-19 0 -30 -13 -30 -34v-173c0 -104 -64 -173 -170 -173z" />
    <glyph glyph-name="uni043C" unicode="&#x43c;" horiz-adv-x="560" 
d="M57 0c-13 0 -20 7 -20 20v420c0 39 21 60 60 60h46c34 0 57 -14 70 -47l35 -89c10 -27 24 -73 31 -100h2c7 27 21 73 31 100l35 89c13 33 36 47 70 47h46c39 0 60 -21 60 -60v-420c0 -13 -7 -20 -20 -20h-93c-14 0 -21 7 -20 20v121c0 53 1 103 3 146h-2
c-7 -31 -16 -63 -26 -93l-11 -33c-10 -31 -35 -46 -69 -46h-10c-34 0 -59 15 -69 46l-11 33c-10 30 -19 62 -26 93h-2c2 -43 3 -93 3 -146v-121c1 -13 -6 -20 -20 -20h-93z" />
    <glyph glyph-name="uni043D" unicode="&#x43d;" horiz-adv-x="404" 
d="M230 480c0 13 7 20 20 20h97c13 0 20 -7 20 -20v-460c0 -13 -7 -20 -20 -20h-97c-13 0 -20 7 -20 20v167h-56v-167c0 -13 -7 -20 -20 -20h-97c-13 0 -20 7 -20 20v460c0 13 7 20 20 20h97c13 0 20 -7 20 -20v-164h56v164z" />
    <glyph glyph-name="uni043E" unicode="&#x43e;" horiz-adv-x="400" 
d="M200 -12c-102 0 -171 69 -171 173v178c0 104 69 173 171 173s171 -69 171 -173v-178c0 -104 -69 -173 -171 -173zM200 118c20 0 32 13 32 34v196c0 21 -12 34 -32 34s-32 -13 -32 -34v-196c0 -21 12 -34 32 -34z" />
    <glyph glyph-name="uni043F" unicode="&#x43f;" horiz-adv-x="406" 
d="M309 500c39 0 60 -21 60 -60v-420c0 -13 -7 -20 -20 -20h-98c-13 0 -20 7 -20 20v351h-56v-351c0 -13 -7 -20 -20 -20h-98c-13 0 -20 7 -20 20v420c0 39 21 60 60 60h212z" />
    <glyph glyph-name="uni0440" unicode="&#x440;" horiz-adv-x="404" 
d="M204 512c102 0 171 -69 171 -173v-178c0 -104 -68 -173 -147 -173c-19 0 -38 4 -56 13v-181c0 -13 -7 -20 -20 -20h-99c-13 0 -20 7 -20 20v519c0 104 69 173 171 173zM236 152v196c0 21 -12 34 -32 34s-32 -13 -32 -34v-196c0 -21 12 -34 32 -34s32 13 32 34z" />
    <glyph glyph-name="uni0441" unicode="&#x441;" horiz-adv-x="388" 
d="M200 -12c-102 0 -171 69 -171 173v178c0 104 68 173 168 173c96 0 161 -61 169 -162c1 -14 -6 -21 -19 -21h-101c-12 0 -18 7 -20 20c-4 25 -14 33 -29 33c-18 0 -29 -13 -29 -34v-196c0 -21 11 -34 30 -34c16 0 27 9 31 36c2 13 8 20 20 20h101c13 0 20 -8 19 -23
c-8 -102 -74 -163 -169 -163z" />
    <glyph glyph-name="uni0442" unicode="&#x442;" horiz-adv-x="354" 
d="M128 0c-13 0 -20 7 -20 20v351h-79c-13 0 -20 7 -20 20v89c0 13 7 20 20 20h296c13 0 20 -7 20 -20v-89c0 -13 -7 -20 -20 -20h-79v-351c0 -13 -7 -20 -20 -20h-98z" />
    <glyph glyph-name="uni0443" unicode="&#x443;" horiz-adv-x="406" 
d="M349 500c13 0 20 -7 20 -20v-519c0 -109 -62 -173 -168 -173c-99 0 -160 62 -167 168c-1 14 6 21 19 21h99c12 0 18 -7 21 -20c3 -26 13 -39 28 -39c19 0 30 13 30 34v83c-12 -9 -29 -15 -49 -15c-84 0 -149 69 -149 173v287c0 13 7 20 20 20h98c13 0 20 -7 20 -20v-296
c0 -21 11 -34 30 -34s30 13 30 34v296c0 13 7 20 20 20h98z" />
    <glyph glyph-name="uni045E" unicode="&#x45e;" horiz-adv-x="406" 
d="M196 559c-68 0 -115 41 -124 105c-1 14 7 21 20 21h50c12 0 16 -6 21 -18c6 -11 17 -18 33 -18s27 7 33 18c5 12 9 18 21 18h50c13 0 21 -8 20 -21c-9 -64 -56 -105 -124 -105zM349 500c13 0 20 -7 20 -20v-519c0 -109 -62 -173 -168 -173c-99 0 -160 62 -167 168
c-1 14 6 21 19 21h99c12 0 18 -7 21 -20c3 -26 13 -39 28 -39c19 0 30 13 30 34v83c-12 -9 -29 -15 -49 -15c-84 0 -149 69 -149 173v287c0 13 7 20 20 20h98c13 0 20 -7 20 -20v-296c0 -21 11 -34 30 -34s30 13 30 34v296c0 13 7 20 20 20h98z" />
    <glyph glyph-name="uni0444" unicode="&#x444;" horiz-adv-x="589" 
d="M247 -200c-13 0 -20 7 -20 20v175h-28c-101 0 -170 69 -170 173v164c0 104 69 173 170 173h28v175c0 13 7 20 20 20h95c13 0 20 -7 20 -20v-175h30c101 0 168 -69 168 -173v-164c0 -104 -67 -173 -168 -173h-30v-175c0 -13 -7 -20 -20 -20h-95zM197 125h30v250h-30
c-19 0 -30 -13 -30 -34v-182c0 -21 11 -34 30 -34zM362 125h30c19 0 30 13 30 34v182c0 21 -11 34 -30 34h-30v-250z" />
    <glyph glyph-name="uni0445" unicode="&#x445;" horiz-adv-x="396" 
d="M49 0c-13 0 -20 7 -20 20v119c0 43 18 79 52 108c-34 29 -52 65 -52 108v125c0 13 7 20 20 20h99c13 0 20 -7 20 -20v-134c0 -21 11 -34 30 -34s30 13 30 34v134c0 13 7 20 20 20h99c13 0 20 -7 20 -20v-125c0 -43 -18 -79 -52 -108c34 -29 52 -65 52 -108v-119
c0 -13 -7 -20 -20 -20h-99c-13 0 -20 7 -20 20v128c0 21 -11 34 -30 34s-30 -13 -30 -34v-128c0 -13 -7 -20 -20 -20h-99z" />
    <glyph glyph-name="uni0447" unicode="&#x447;" horiz-adv-x="390" 
d="M239 0c-13 0 -20 7 -20 20v105h-30c-101 0 -168 69 -168 173v183c0 13 7 20 20 20h98c13 0 20 -7 20 -20v-192c0 -21 11 -34 30 -34h30v226c0 13 7 20 20 20h98c13 0 20 -7 20 -20v-461c0 -13 -7 -20 -20 -20h-98z" />
    <glyph glyph-name="uni0446" unicode="&#x446;" horiz-adv-x="443" 
d="M316 -116c-13 0 -20 7 -20 20v91h-95c-101 0 -168 69 -168 173v313c0 13 7 20 20 20h98c13 0 20 -7 20 -20v-322c0 -21 11 -34 30 -34h30v356c0 13 7 20 20 20h98c13 0 20 -7 20 -20v-356c39 0 60 -21 60 -60v-161c0 -13 -7 -20 -20 -20h-93z" />
    <glyph glyph-name="uni0448" unicode="&#x448;" horiz-adv-x="588" 
d="M201 -5c-101 0 -168 69 -168 173v313c0 13 7 20 20 20h96c13 0 20 -7 20 -20v-322c0 -21 11 -34 30 -34h28v356c0 13 7 20 20 20h96c13 0 20 -7 20 -20v-356h56v356c0 13 7 20 20 20h96c13 0 20 -7 20 -20v-426c0 -39 -21 -60 -60 -60h-294z" />
    <glyph glyph-name="uni0449" unicode="&#x449;" horiz-adv-x="623" 
d="M502 -116c-13 0 -20 7 -20 20v91h-281c-101 0 -168 69 -168 173v313c0 13 7 20 20 20h96c13 0 20 -7 20 -20v-322c0 -21 11 -34 30 -34h28v356c0 13 7 20 20 20h96c13 0 20 -7 20 -20v-356h56v356c0 13 7 20 20 20h96c13 0 20 -7 20 -20v-356c39 0 60 -21 60 -60v-161
c0 -13 -7 -20 -20 -20h-93z" />
    <glyph glyph-name="uni045F" unicode="&#x45f;" horiz-adv-x="406" 
d="M164 -116c-13 0 -20 7 -20 20v96h-47c-39 0 -60 21 -60 60v420c0 13 7 20 20 20h98c13 0 20 -7 20 -20v-351h56v351c0 13 7 20 20 20h98c13 0 20 -7 20 -20v-420c0 -39 -21 -60 -60 -60h-47v-96c0 -13 -7 -20 -20 -20h-78z" />
    <glyph glyph-name="uni044C" unicode="&#x44c;" horiz-adv-x="388" 
d="M97 -5c-39 0 -60 21 -60 60v425c0 13 7 20 20 20h97c13 0 20 -7 20 -20v-152h33c99 0 167 -67 167 -164c0 -105 -74 -169 -170 -169h-107zM174 124h30c19 0 32 12 32 43c0 27 -13 40 -32 40h-30v-83z" />
    <glyph glyph-name="uni044A" unicode="&#x44a;" horiz-adv-x="450" 
d="M261 328c105 0 167 -68 167 -165c0 -104 -68 -168 -170 -168h-106c-39 0 -60 21 -60 60v319h-63c-13 0 -20 7 -20 20v86c0 13 7 20 20 20h142c38 0 56 -21 56 -60v-112h34zM258 125c19 0 32 12 32 41c0 28 -13 41 -32 41h-31v-82h31z" />
    <glyph glyph-name="uni044B" unicode="&#x44b;" horiz-adv-x="586" 
d="M97 -5c-39 0 -60 21 -60 60v425c0 13 7 20 20 20h97c13 0 20 -7 20 -20v-160h34c99 0 167 -59 167 -158c0 -98 -74 -167 -170 -167h-108zM431 0c-13 0 -20 7 -20 20v460c0 13 7 20 20 20h98c13 0 20 -7 20 -20v-460c0 -13 -7 -20 -20 -20h-98zM174 125h31
c19 0 32 11 32 38c0 24 -13 36 -32 36h-31v-74z" />
    <glyph glyph-name="uni0459" unicode="&#x459;" horiz-adv-x="599" 
d="M420 320c98 0 165 -66 165 -165c0 -98 -73 -160 -168 -160h-104c-39 0 -60 21 -60 60v320h-26c-19 0 -30 -13 -30 -34v-173c0 -104 -64 -173 -168 -173c-12 0 -20 8 -20 20v90c0 12 8 20 20 20c20 0 32 14 32 36v171c0 104 67 173 166 173h99c38 0 60 -22 60 -60v-125h34
zM417 125c19 0 32 11 32 38c0 24 -13 36 -32 36h-31v-74h31z" />
    <glyph glyph-name="uni045A" unicode="&#x45a;" horiz-adv-x="582" 
d="M57 0c-13 0 -20 7 -20 20v460c0 13 7 20 20 20h97c13 0 20 -7 20 -20v-164h56v164c0 13 7 20 20 20h97c13 0 20 -7 20 -20v-160h34c99 0 167 -66 167 -165c0 -98 -74 -160 -170 -160h-108c-39 0 -60 21 -60 60v132h-56v-167c0 -13 -7 -20 -20 -20h-97zM367 125h31
c19 0 32 11 32 38c0 24 -13 36 -32 36h-31v-74z" />
    <glyph glyph-name="uni0455" unicode="&#x455;" horiz-adv-x="392" 
d="M201 -12c-119 0 -178 87 -179 162c0 11 1 24 19 24h98c9 0 18 -4 22 -18c5 -19 12 -38 36 -38c21 0 34 15 34 31c0 63 -203 56 -203 214c0 93 70 149 166 149c121 0 165 -90 166 -146c0 -9 -1 -21 -19 -21h-98c-13 0 -18 8 -21 19c-4 12 -13 19 -28 19
c-17 0 -27 -10 -27 -24c0 -61 203 -54 203 -215c0 -94 -69 -156 -169 -156z" />
    <glyph glyph-name="uni0454" unicode="&#x454;" horiz-adv-x="393" 
d="M200 -12c-102 0 -171 69 -171 173v178c0 104 68 173 169 173c97 0 163 -61 171 -162c1 -14 -6 -21 -19 -21h-101c-12 0 -18 7 -20 20c-4 25 -15 33 -31 33c-19 0 -30 -13 -30 -34v-54h114c13 0 20 -7 20 -20v-45c0 -13 -7 -20 -20 -20h-114v-57c0 -21 11 -34 30 -34
c16 0 27 8 31 33c2 13 8 20 20 20h101c13 0 20 -8 19 -23c-8 -100 -74 -160 -169 -160z" />
    <glyph glyph-name="uni044D" unicode="&#x44d;" horiz-adv-x="393" 
d="M193 -12c-95 0 -161 60 -169 160c-1 15 6 23 19 23h101c12 0 18 -7 20 -20c4 -25 15 -33 31 -33c19 0 30 13 30 34v57h-114c-13 0 -20 7 -20 20v45c0 13 7 20 20 20h114v54c0 21 -11 34 -30 34c-16 0 -27 -8 -31 -33c-2 -13 -8 -20 -20 -20h-101c-13 0 -20 7 -19 21
c8 101 74 162 171 162c101 0 169 -69 169 -173v-178c0 -104 -69 -173 -171 -173z" />
    <glyph glyph-name="uni0456" unicode="&#x456;" horiz-adv-x="212" 
d="M106 558c-44 0 -75 33 -75 75c0 43 31 75 75 75c42 0 75 -32 75 -75c0 -40 -33 -75 -75 -75zM57 0c-13 0 -20 7 -20 20v460c0 13 7 20 20 20h98c13 0 20 -7 20 -20v-460c0 -13 -7 -20 -20 -20h-98z" />
    <glyph glyph-name="uni0457" unicode="&#x457;" horiz-adv-x="248" 
d="M55 570c-33 0 -54 21 -55 55c1 34 22 55 55 55c32 0 54 -21 54 -55s-22 -55 -54 -55zM193 570c-32 0 -54 21 -54 55s22 55 54 55c33 0 54 -21 55 -55c-1 -34 -22 -55 -55 -55zM76 0c-13 0 -20 7 -20 20v460c0 13 7 20 20 20h98c13 0 20 -7 20 -20v-460
c0 -13 -7 -20 -20 -20h-98z" />
    <glyph glyph-name="uni0458" unicode="&#x458;" horiz-adv-x="279" 
d="M167 558c-44 0 -75 33 -75 75c0 43 31 75 75 75c42 0 75 -32 75 -75c0 -40 -33 -75 -75 -75zM20 -205c-13 0 -20 7 -20 20v90c0 13 7 20 20 20h19c39 0 62 24 62 64v491c0 13 7 20 20 20h98c13 0 20 -7 20 -20v-472c0 -136 -74 -213 -195 -213h-24z" />
    <glyph glyph-name="uni045B" unicode="&#x45b;" horiz-adv-x="441" 
d="M91 0c-13 0 -20 7 -20 20v538h-42c-13 0 -20 7 -20 20v41c0 13 7 20 20 20h42v41c0 13 7 20 20 20h98c13 0 20 -7 20 -20v-41h104c13 0 20 -7 20 -20v-41c0 -13 -7 -20 -20 -20h-104v-68c13 7 32 12 46 12c90 0 153 -69 153 -173v-309c0 -13 -7 -20 -20 -20h-99
c-13 0 -20 7 -20 20v318c0 21 -11 34 -30 34s-30 -13 -30 -34v-318c0 -13 -7 -20 -20 -20h-98z" />
    <glyph glyph-name="uni044E" unicode="&#x44e;" horiz-adv-x="575" 
d="M380 -12c-99 0 -166 69 -166 173v26h-42v-167c0 -13 -7 -20 -20 -20h-95c-13 0 -20 7 -20 20v460c0 13 7 20 20 20h95c13 0 20 -7 20 -20v-164h42v23c0 104 67 173 166 173s166 -69 166 -173v-178c0 -104 -67 -173 -166 -173zM380 118c19 0 30 13 30 34v196
c0 21 -11 34 -30 34s-30 -13 -30 -34v-196c0 -21 11 -34 30 -34z" />
    <glyph glyph-name="uni044F" unicode="&#x44f;" horiz-adv-x="406" 
d="M206 512c98 0 167 -66 167 -167v-325c0 -13 -7 -20 -20 -20h-96c-13 0 -20 7 -20 20v148h-19l-59 -148c-6 -15 -15 -20 -27 -20h-99c-15 0 -22 10 -15 24l85 178c-43 29 -68 78 -68 139c0 104 74 171 171 171zM237 294v46c0 28 -11 42 -31 42c-21 0 -33 -15 -33 -43
s12 -45 36 -45h28z" />
    <glyph glyph-name="uni0452" unicode="&#x452;" horiz-adv-x="439" 
d="M254 502c89 0 152 -69 152 -173v-321c0 -148 -76 -213 -219 -213c-13 0 -20 7 -20 20v90c0 13 7 20 20 20c56 0 81 15 81 64v349c0 21 -11 34 -30 34s-30 -13 -30 -34v-318c0 -13 -7 -20 -20 -20h-98c-13 0 -20 7 -20 20v538h-42c-13 0 -20 7 -20 20v41c0 13 7 20 20 20
h42v41c0 13 7 20 20 20h98c13 0 20 -7 20 -20v-41h104c13 0 20 -7 20 -20v-41c0 -13 -7 -20 -20 -20h-104v-66c16 6 32 10 46 10z" />
    <glyph glyph-name="uni0432.loclBGR" horiz-adv-x="403" 
d="M328 361c33 -28 51 -70 51 -119v-81c0 -104 -70 -173 -173 -173s-173 69 -173 173v378c0 104 67 173 167 173s167 -69 167 -173v-76c0 -40 -13 -75 -39 -102zM172 548v-133h28c18 0 28 14 28 37v96c0 21 -10 34 -28 34c-17 0 -28 -13 -28 -34zM240 154v98
c0 25 -13 39 -34 39h-34v-137c0 -23 13 -36 34 -36s34 13 34 36z" />
    <glyph glyph-name="uni0433.loclBGR" horiz-adv-x="392" 
d="M194 -12c-108 0 -172 62 -172 154c0 164 203 157 203 216c0 16 -10 25 -27 25c-15 0 -24 -7 -28 -19c-3 -12 -9 -19 -21 -19h-98c-13 0 -20 7 -19 21c7 88 66 146 162 146c108 0 170 -60 170 -145c0 -166 -203 -156 -203 -216c0 -20 13 -33 35 -33c18 0 30 13 35 35
c4 12 10 18 22 18h98c13 0 20 -7 19 -21c-8 -98 -71 -162 -176 -162z" />
    <glyph glyph-name="uni0434.loclBGR" horiz-adv-x="404" 
d="M200 512c102 0 171 -69 171 -173v-378c0 -109 -64 -173 -171 -173c-100 0 -163 62 -170 168c-1 14 6 21 19 21h100c12 0 18 -7 21 -20c3 -26 14 -39 30 -39c20 0 32 13 32 34v80c-15 -8 -33 -13 -51 -13c-85 0 -152 69 -152 173v147c0 104 69 173 171 173zM200 149
c20 0 32 13 32 34v164c0 22 -12 35 -32 35s-32 -13 -32 -35v-164c0 -21 12 -34 32 -34z" />
    <glyph glyph-name="uni0436.loclBGR" horiz-adv-x="578" 
d="M541 500c14 0 22 -9 17 -23l-66 -193c36 -30 57 -75 57 -138v-126c0 -13 -7 -20 -20 -20h-96c-13 0 -20 7 -20 20v135c0 21 -11 34 -30 34h-27v-169c0 -13 -7 -20 -20 -20h-94c-13 0 -20 7 -20 20v169h-27c-19 0 -30 -13 -30 -34v-135c0 -13 -7 -20 -20 -20h-96
c-13 0 -20 7 -20 20v126c0 63 21 108 57 138l-66 193c-5 14 3 23 17 23h100c11 0 19 -5 23 -17l50 -164h12v361c0 13 7 20 20 20h94c13 0 20 -7 20 -20v-361h12l50 164c4 12 12 17 23 17h100z" />
    <glyph glyph-name="uni0437.loclBGR" horiz-adv-x="382" 
d="M294 167c38 -28 59 -74 59 -125v-65c0 -111 -63 -189 -171 -189c-121 0 -174 75 -178 218c0 14 6 21 19 21h98c13 0 20 -6 20 -17c2 -67 14 -92 38 -92c27 0 36 19 36 53v88c0 33 -15 49 -45 49h-36c-13 0 -20 7 -20 20v84c0 13 7 20 20 20h30c30 0 41 14 41 41v75
c0 21 -10 34 -26 34c-19 0 -26 -12 -28 -33c-1 -13 -8 -20 -20 -20h-99c-13 0 -20 7 -19 21c8 107 71 162 163 162c100 0 167 -69 167 -173v-76c0 -38 -17 -71 -49 -96z" />
    <glyph glyph-name="uni0438.loclBGR" horiz-adv-x="406" 
d="M191 -12c-95 0 -158 69 -158 173v319c0 13 7 20 20 20h98c13 0 20 -7 20 -20v-328c0 -21 11 -34 30 -34s30 13 30 34v328c0 13 7 20 20 20h98c13 0 20 -7 20 -20v-460c0 -13 -7 -20 -20 -20h-37c-11 0 -19 4 -24 15l-7 16c-23 -27 -55 -43 -90 -43z" />
    <glyph glyph-name="uni0439.loclBGR" horiz-adv-x="406" 
d="M205 559c-68 0 -115 41 -124 105c-1 14 7 21 20 21h50c12 0 16 -6 21 -18c6 -11 17 -18 33 -18s27 7 33 18c5 12 9 18 21 18h50c13 0 21 -8 20 -21c-9 -64 -56 -105 -124 -105zM191 -12c-95 0 -158 69 -158 173v319c0 13 7 20 20 20h98c13 0 20 -7 20 -20v-328
c0 -21 11 -34 30 -34s30 13 30 34v328c0 13 7 20 20 20h98c13 0 20 -7 20 -20v-460c0 -13 -7 -20 -20 -20h-37c-11 0 -19 4 -24 15l-7 16c-23 -27 -55 -43 -90 -43z" />
    <glyph glyph-name="uni045D.loclBGR" horiz-adv-x="402" 
d="M95 685h78c11 0 19 -5 24 -14l53 -88c8 -14 3 -24 -13 -24h-57c-10 0 -18 4 -24 12l-72 90c-10 13 -6 24 11 24zM191 -12c-95 0 -158 69 -158 173v319c0 13 7 20 20 20h98c13 0 20 -7 20 -20v-328c0 -21 11 -34 30 -34s30 13 30 34v328c0 13 7 20 20 20h98
c13 0 20 -7 20 -20v-460c0 -13 -7 -20 -20 -20h-37c-11 0 -19 4 -24 15l-7 16c-23 -27 -55 -43 -90 -43z" />
    <glyph glyph-name="uni043A.loclBGR" horiz-adv-x="400" 
d="M311 284c39 -30 61 -78 61 -138v-126c0 -13 -7 -20 -20 -20h-99c-13 0 -20 7 -20 20v135c0 21 -11 34 -30 34h-28v-169c0 -13 -7 -20 -20 -20h-98c-13 0 -20 7 -20 20v660c0 13 7 20 20 20h98c13 0 20 -7 20 -20v-361h12l53 164c4 12 12 17 23 17h100c14 0 22 -9 17 -23z
" />
    <glyph glyph-name="uni043B.loclBGR" horiz-adv-x="407" 
d="M260 18l-57 355l-55 -355c-2 -13 -10 -18 -22 -18h-105c-14 0 -20 9 -17 22l100 430c8 35 29 53 65 53h70c36 0 57 -17 65 -53l99 -430c3 -13 -3 -22 -17 -22h-104c-12 0 -20 5 -22 18z" />
    <glyph glyph-name="uni043F.loclBGR" horiz-adv-x="402" 
d="M53 0c-13 0 -20 7 -20 20v319c0 104 67 173 168 173s168 -69 168 -173v-319c0 -13 -7 -20 -20 -20h-98c-13 0 -20 7 -20 20v328c0 21 -11 34 -30 34s-30 -13 -30 -34v-328c0 -13 -7 -20 -20 -20h-98z" />
    <glyph glyph-name="uni0442.loclBGR" horiz-adv-x="586" 
d="M389 512c98 0 164 -69 164 -173v-319c0 -13 -7 -20 -20 -20h-96c-13 0 -20 7 -20 20v328c0 21 -10 34 -28 34s-28 -13 -28 -34v-328c0 -13 -7 -20 -20 -20h-96c-13 0 -20 7 -20 20v328c0 21 -10 34 -28 34s-28 -13 -28 -34v-328c0 -13 -7 -20 -20 -20h-96
c-13 0 -20 7 -20 20v319c0 104 66 173 164 173c37 0 70 -12 96 -33c26 21 59 33 96 33z" />
    <glyph glyph-name="uni0443.loclBGR" horiz-adv-x="406" 
d="M349 500c13 0 20 -7 20 -20v-519c0 -109 -62 -173 -168 -173c-99 0 -160 62 -167 168c-1 14 6 21 19 21h99c12 0 18 -7 21 -20c3 -26 13 -39 28 -39c19 0 30 13 30 34v83c-12 -9 -29 -15 -49 -15c-84 0 -149 69 -149 173v287c0 13 7 20 20 20h98c13 0 20 -7 20 -20v-296
c0 -21 11 -34 30 -34s30 13 30 34v296c0 13 7 20 20 20h98z" />
    <glyph glyph-name="uni0444.loclBGR" horiz-adv-x="601" 
d="M411 512c96 0 161 -69 161 -173v-178c0 -104 -65 -173 -161 -173c-15 0 -29 3 -42 10v-178c0 -13 -7 -20 -20 -20h-97c-13 0 -20 7 -20 20v178c-13 -7 -28 -10 -42 -10c-96 0 -161 69 -161 173v178c0 104 65 173 161 173c15 0 29 -3 42 -9v177c0 13 7 20 20 20h97
c13 0 20 -7 20 -20v-177c13 6 27 9 42 9zM200 118c20 0 32 13 32 34v196c0 21 -12 34 -32 34s-32 -13 -32 -34v-196c0 -21 12 -34 32 -34zM433 152v196c0 21 -12 34 -32 34s-32 -13 -32 -34v-196c0 -21 12 -34 32 -34s32 13 32 34z" />
    <glyph glyph-name="uni0447.loclBGR" horiz-adv-x="394" 
d="M239 0c-13 0 -20 7 -20 20v119c-14 -7 -34 -11 -53 -11c-82 0 -145 59 -145 173v179c0 13 7 20 20 20h98c13 0 20 -7 20 -20v-188c0 -21 11 -34 30 -34s30 3 30 34v188c0 13 7 20 20 20h98c13 0 20 -7 20 -20v-460c0 -13 -7 -20 -20 -20h-98z" />
    <glyph glyph-name="uni0446.loclBGR" horiz-adv-x="461" 
d="M333 -116c-13 0 -20 7 -20 20v98c-7 4 -14 10 -19 17c-25 -20 -56 -31 -92 -31c-101 0 -169 69 -169 173v319c1 13 8 20 20 20h98c14 0 21 -7 20 -20v-328c0 -21 11 -34 31 -34c18 0 29 13 29 34v328c0 13 7 20 20 20h97c13 0 20 -7 20 -20v-336c0 -69 79 -23 79 -95
v-145c0 -13 -7 -20 -20 -20h-94z" />
    <glyph glyph-name="uni0448.loclBGR" horiz-adv-x="596" 
d="M198 -12c-99 0 -165 69 -165 173v319c0 13 7 20 20 20h97c13 0 20 -7 20 -20v-328c0 -21 10 -34 28 -34c19 0 30 13 30 34v328c0 13 7 20 20 20h96c13 0 20 -7 20 -20v-328c0 -21 11 -34 30 -34c18 0 28 13 28 34v328c0 13 7 20 20 20h96c13 0 20 -7 21 -20v-460
c1 -13 -6 -20 -19 -20h-35c-11 0 -19 4 -24 15l-7 16c-23 -27 -55 -43 -90 -43s-65 12 -90 32c-27 -20 -58 -32 -96 -32z" />
    <glyph glyph-name="uni0449.loclBGR" horiz-adv-x="652" 
d="M524 -116c-13 0 -20 7 -20 20v98c-7 4 -14 10 -19 17c-25 -20 -56 -31 -92 -31c-39 0 -70 12 -97 34c-27 -22 -58 -34 -97 -34c-100 0 -166 69 -166 173v319c0 13 7 20 20 20h97c13 0 20 -7 20 -20v-328c0 -21 11 -34 29 -34s29 13 29 34v328c0 13 7 20 20 20h96
c13 0 20 -7 20 -20v-328c0 -21 11 -34 29 -34s29 13 29 34v328c0 13 7 20 20 20h97c13 0 20 -7 20 -20v-336c0 -69 79 -23 79 -95v-145c0 -13 -7 -20 -20 -20h-94z" />
    <glyph glyph-name="uni044C.loclBGR" horiz-adv-x="387" 
d="M236 362c85 0 137 -69 137 -173v-28c0 -104 -68 -173 -170 -173s-170 69 -170 173v319c0 11 9 20 20 20h98c11 0 20 -9 20 -20v-136c16 11 37 18 65 18zM235 152v46c0 21 -12 34 -32 34s-32 -13 -32 -34v-46c0 -21 12 -34 32 -34s32 13 32 34z" />
    <glyph glyph-name="uni044A.loclBGR" horiz-adv-x="441" 
d="M285 362c87 0 142 -69 142 -173v-28c0 -104 -68 -173 -170 -173s-170 69 -170 173v213h-63c-13 0 -20 7 -20 20v86c0 13 7 20 20 20h140c35 0 61 -26 61 -61v-92c14 10 33 15 60 15zM289 152v46c0 21 -12 34 -32 34s-32 -13 -32 -34v-46c0 -21 12 -34 32 -34s32 13 32 34
z" />
    <glyph glyph-name="uni044E.loclBGR" horiz-adv-x="575" 
d="M380 -12c-99 0 -166 69 -166 173v26h-42v-167c0 -13 -7 -20 -20 -20h-95c-13 0 -20 7 -20 20v660c0 13 7 20 20 20h95c13 0 20 -7 20 -20v-364h42v23c0 104 67 173 166 173s166 -69 166 -173v-178c0 -104 -67 -173 -166 -173zM380 118c19 0 30 13 30 34v196
c0 21 -11 34 -30 34s-30 -13 -30 -34v-196c0 -21 11 -34 30 -34z" />
    <glyph glyph-name="uni043B.ss01" horiz-adv-x="429" 
d="M229 512c100 0 167 -69 167 -173v-319c0 -13 -7 -20 -20 -20h-97c-13 0 -20 7 -20 20v328c0 21 -11 34 -30 34s-30 -13 -30 -34v-180c0 -104 -64 -173 -170 -173c-12 0 -20 8 -20 20v90c0 12 8 20 20 20c20 0 33 14 33 36v178c0 104 67 173 167 173z" />
    <glyph glyph-name="zero" unicode="0" horiz-adv-x="422" 
d="M211 -12c-105 0 -176 77 -176 193v338c0 116 71 193 176 193s176 -77 176 -193v-338c0 -116 -71 -193 -176 -193zM175 300l71 245c-4 22 -16 35 -35 35c-22 0 -36 -16 -36 -43v-225v-12zM211 120c23 0 36 16 36 43v227v14l-71 -246c3 -24 16 -38 35 -38z" />
    <glyph glyph-name="one" unicode="1" horiz-adv-x="266" 
d="M164 700c39 0 60 -21 60 -60v-620c0 -13 -7 -20 -20 -20h-100c-13 0 -20 7 -20 20v550h-56c-13 0 -20 7 -20 20v90c0 13 7 20 20 20h136z" />
    <glyph glyph-name="two" unicode="2" horiz-adv-x="383" 
d="M363 548c0 -195 -200 -283 -200 -418h180c13 0 20 -7 20 -20v-90c0 -13 -7 -20 -20 -20h-263c-39 0 -60 21 -60 60v24c0 252 208 337 208 458c0 21 -4 42 -30 42c-24 0 -34 -20 -36 -55c-1 -14 -9 -21 -21 -21h-88c-13 0 -20 7 -19 21c5 118 62 183 164 183
c109 0 165 -76 165 -164z" />
    <glyph glyph-name="three" unicode="3" horiz-adv-x="413" 
d="M204 -12c-105 0 -176 77 -176 193c0 13 7 20 20 20h100c13 0 20 -7 20 -20c0 -44 14 -61 36 -61c23 0 36 18 36 49v117c0 28 -13 44 -36 44h-53c-16 0 -25 9 -25 25v39c0 18 2 33 11 49l75 136h-149c-13 0 -20 7 -20 20v86c0 13 7 20 20 20h276c25 0 35 -10 35 -31v-8
c0 -13 -2 -21 -8 -34l-93 -188l9 -2c67 -20 98 -92 98 -168v-93c0 -116 -71 -193 -176 -193z" />
    <glyph glyph-name="four" unicode="4" horiz-adv-x="432" 
d="M395 289c13 0 20 -7 20 -20v-90c0 -13 -7 -20 -20 -20h-31v-139c0 -13 -7 -20 -20 -20h-98c-13 0 -20 7 -20 20v139h-190c-16 0 -25 9 -25 25v55c0 18 5 36 9 56l86 387c3 11 10 18 22 18h98c14 0 21 -9 18 -22l-85 -389h71l14 213c1 12 8 19 20 19h80c13 0 20 -7 20 -20
v-212h31z" />
    <glyph glyph-name="five" unicode="5" horiz-adv-x="412" 
d="M228 484c89 0 154 -76 154 -190v-113c0 -116 -72 -193 -179 -193c-106 0 -177 77 -177 193c0 13 7 20 20 20h98c13 0 20 -7 20 -20c0 -44 15 -61 39 -61c25 0 39 18 39 49v137c0 31 -13 48 -36 48c-22 0 -34 -14 -36 -46c-1 -13 -7 -20 -20 -20h-87c-19 0 -30 11 -30 32
v325c0 39 21 60 60 60h255c13 0 20 -7 20 -20v-80c0 -13 -7 -20 -20 -20h-179v-118c17 10 37 17 59 17z" />
    <glyph glyph-name="six" unicode="6" horiz-adv-x="417" 
d="M211 -12c-105 0 -176 77 -176 193v338c0 116 70 193 174 193s174 -73 174 -183c0 -13 -7 -20 -20 -20h-100c-13 0 -20 7 -20 20c0 37 -13 51 -34 51c-22 0 -34 -18 -34 -49v-89c17 11 36 16 64 16c85 0 148 -76 148 -178v-99c0 -116 -71 -193 -176 -193zM211 120
c23 0 36 16 36 50v112c0 28 -13 46 -36 46c-22 0 -36 -13 -36 -46v-112c0 -35 14 -50 36 -50z" />
    <glyph glyph-name="seven" unicode="7" horiz-adv-x="362" 
d="M8 680c0 13 7 20 20 20h274c25 0 39 -13 40 -38c0 -27 -2 -46 -8 -73l-128 -571c-3 -11 -10 -18 -22 -18h-103c-14 0 -21 9 -18 22l125 542h-160c-13 0 -20 7 -20 20v96z" />
    <glyph glyph-name="eight" unicode="8" horiz-adv-x="426" 
d="M338 367c35 -30 56 -73 56 -127v-69c0 -106 -73 -183 -181 -183s-181 77 -181 183v69c0 54 21 97 56 127c-30 32 -48 74 -48 122v40c0 106 70 183 173 183s173 -77 173 -183v-40c0 -48 -18 -90 -48 -122zM180 537v-70c0 -28 13 -44 33 -44c21 0 33 16 33 44v70
c0 28 -12 44 -33 44c-20 0 -33 -16 -33 -44zM254 165v90c0 28 -15 44 -41 44c-25 0 -41 -16 -41 -44v-90c0 -28 16 -44 41 -44c26 0 41 16 41 44z" />
    <glyph glyph-name="nine" unicode="9" horiz-adv-x="417" 
d="M206 712c105 0 176 -77 176 -193v-338c0 -116 -70 -193 -174 -193s-174 73 -174 183c0 13 7 20 20 20h100c13 0 20 -7 20 -20c0 -37 13 -51 34 -51c22 0 34 18 34 49v89c-17 -11 -36 -16 -64 -16c-85 0 -148 76 -148 178v99c0 116 71 193 176 193zM206 580
c-23 0 -36 -16 -36 -50v-112c0 -28 13 -46 36 -46c22 0 36 13 36 46v112c0 35 -14 50 -36 50z" />
    <glyph glyph-name="asterisk" unicode="*" horiz-adv-x="342" 
d="M104 488l-38 27c-10 7 -11 18 -4 28l31 43l-51 17c-12 4 -17 12 -13 25l15 44c4 13 13 17 25 13l51 -17v54c0 13 7 20 20 20h46c13 0 20 -7 20 -20v-54l51 17c12 4 21 0 25 -13l15 -44c4 -13 -1 -21 -13 -25l-51 -16l31 -44c7 -10 6 -20 -4 -28l-38 -27
c-10 -7 -21 -6 -28 4l-31 43l-31 -43c-7 -10 -18 -11 -28 -4z" />
    <glyph glyph-name="backslash" unicode="\" horiz-adv-x="439" 
d="M123 700c11 0 19 -6 23 -16l264 -661c5 -14 -1 -23 -16 -23h-78c-11 0 -19 6 -23 16l-264 661c-5 14 1 23 16 23h78z" />
    <glyph glyph-name="periodcentered" unicode="&#xb7;" horiz-adv-x="190" 
d="M85 175c-45 0 -75 30 -75 75s30 75 75 75s75 -30 75 -75s-30 -75 -75 -75z" />
    <glyph glyph-name="bullet" unicode="&#x2022;" horiz-adv-x="240" 
d="M118 151c-54 0 -98 42 -98 98s44 102 98 102c56 0 102 -46 102 -102s-46 -98 -102 -98z" />
    <glyph glyph-name="colon" unicode=":" horiz-adv-x="190" 
d="M85 328c-45 0 -75 30 -75 75s30 75 75 75s75 -30 75 -75s-30 -75 -75 -75zM85 -10c-45 0 -75 30 -75 75s30 75 75 75s75 -30 75 -75s-30 -75 -75 -75z" />
    <glyph glyph-name="comma" unicode="," horiz-adv-x="148" 
d="M20 107c1 12 8 19 20 19h79c13 0 21 -9 18 -22l-40 -201c-2 -12 -9 -18 -21 -18h-46c-13 0 -21 7 -20 21z" />
    <glyph glyph-name="ellipsis" unicode="&#x2026;" horiz-adv-x="570" 
d="M95 -10c-45 0 -75 30 -75 75s30 75 75 75s75 -30 75 -75s-30 -75 -75 -75zM285 -10c-45 0 -75 30 -75 75s30 75 75 75s75 -30 75 -75s-30 -75 -75 -75zM475 -10c-45 0 -75 30 -75 75s30 75 75 75s75 -30 75 -75s-30 -75 -75 -75z" />
    <glyph glyph-name="exclam" unicode="!" horiz-adv-x="234" 
d="M68 176c-13 0 -20 7 -20 20v484c0 13 7 20 20 20h97c13 0 20 -7 20 -20v-484c0 -13 -7 -20 -20 -20h-97zM117 -12c-45 0 -75 30 -75 75s30 75 75 75s75 -30 75 -75s-30 -75 -75 -75z" />
    <glyph glyph-name="exclamdown" unicode="&#xa1;" horiz-adv-x="224" 
d="M112 512c45 0 75 -30 75 -75s-30 -75 -75 -75s-75 30 -75 75s30 75 75 75zM63 324h97c13 0 20 -7 20 -20v-484c0 -13 -7 -20 -20 -20h-97c-13 0 -20 7 -20 20v484c0 13 7 20 20 20z" />
    <glyph glyph-name="numbersign" unicode="#" horiz-adv-x="673" 
d="M104 0c-14 0 -21 9 -18 22l31 137h-83c-14 0 -21 9 -18 22l14 60c3 11 10 17 22 17h88l37 163h-83c-14 0 -21 9 -18 22l14 60c3 11 10 17 22 17h88l37 162c3 11 10 18 22 18h83c14 0 21 -9 18 -22l-36 -158h108l37 162c3 11 10 18 22 18h84c14 0 21 -9 18 -22l-36 -158
h82c14 0 21 -9 18 -22l-14 -60c-3 -11 -10 -17 -22 -17h-87l-37 -163h82c14 0 21 -9 18 -22l-14 -60c-3 -11 -10 -17 -22 -17h-87l-32 -141c-3 -11 -10 -18 -22 -18h-84c-14 0 -21 9 -18 22l31 137h-108l-32 -141c-3 -11 -10 -18 -22 -18h-83zM264 258h108l37 163h-108z" />
    <glyph glyph-name="period" unicode="." horiz-adv-x="170" 
d="M85 -10c-45 0 -75 30 -75 75s30 75 75 75s75 -30 75 -75s-30 -75 -75 -75z" />
    <glyph glyph-name="question" unicode="?" horiz-adv-x="367" 
d="M129 185c-13 0 -20 7 -20 20v13c0 196 119 203 119 310c0 27 -9 57 -47 57c-32 0 -46 -26 -50 -67c-1 -13 -9 -20 -21 -20h-91c-13 0 -20 7 -19 21c7 115 76 191 176 191c112 0 186 -69 186 -173c0 -159 -118 -179 -118 -316v-16c0 -13 -7 -20 -20 -20h-95zM177 -12
c-45 0 -75 30 -75 75s30 75 75 75s75 -30 75 -75s-30 -75 -75 -75z" />
    <glyph glyph-name="questiondown" unicode="&#xbf;" horiz-adv-x="367" 
d="M190 512c45 0 75 -30 75 -75s-30 -75 -75 -75s-75 30 -75 75s30 75 75 75zM238 315c13 0 20 -7 20 -20v-13c0 -196 -119 -203 -119 -310c0 -27 9 -57 47 -57c32 0 46 26 50 67c1 13 9 20 21 20h91c13 0 20 -7 19 -21c-7 -115 -76 -191 -176 -191c-112 0 -186 69 -186 173
c0 159 118 179 118 316v16c0 13 7 20 20 20h95z" />
    <glyph glyph-name="quotedbl" unicode="&#x22;" horiz-adv-x="302" 
d="M20 681c1 12 8 19 20 19h79c13 0 21 -9 18 -22l-40 -201c-2 -12 -9 -18 -21 -18h-46c-13 0 -21 7 -20 21zM160 681c1 12 8 19 20 19h79c13 0 21 -9 18 -22l-40 -201c-2 -12 -9 -18 -21 -18h-46c-13 0 -21 7 -20 21z" />
    <glyph glyph-name="quotesingle" unicode="'" horiz-adv-x="162" 
d="M25 681c1 12 8 19 20 19h79c13 0 21 -9 18 -22l-40 -201c-2 -12 -9 -18 -21 -18h-46c-13 0 -21 7 -20 21z" />
    <glyph glyph-name="semicolon" unicode=";" horiz-adv-x="190" 
d="M105 330c-45 0 -75 30 -75 75s30 75 75 75s75 -30 75 -75s-30 -75 -75 -75zM47 107c1 12 8 19 20 19h79c13 0 21 -9 18 -22l-40 -201c-2 -12 -9 -18 -21 -18h-46c-13 0 -21 7 -20 21z" />
    <glyph glyph-name="slash" unicode="/" horiz-adv-x="439" 
d="M294 687c3 9 9 13 18 13h87c12 0 17 -8 13 -19l-267 -669c-3 -9 -9 -12 -18 -12h-87c-12 0 -17 8 -13 19z" />
    <glyph glyph-name="underscore" unicode="_" horiz-adv-x="360" 
d="M5 -32c0 13 7 20 20 20h310c13 0 20 -7 20 -20v-92c0 -13 -7 -20 -20 -20h-310c-13 0 -20 7 -20 20v92z" />
    <glyph glyph-name="braceleft" unicode="{" horiz-adv-x="314" 
d="M217 498c0 -62 -20 -112 -57 -148c37 -36 57 -86 57 -148v-128c0 -40 23 -64 62 -64c13 0 20 -7 20 -20v-90c0 -13 -8 -20 -23 -20c-122 0 -197 77 -197 213v128c0 40 -18 64 -49 64c-13 0 -20 7 -20 20v90c0 13 7 20 20 20c31 0 49 24 49 64v128c0 136 75 213 197 213
c15 0 23 -7 23 -20v-90c0 -13 -7 -20 -20 -20c-39 0 -62 -24 -62 -64v-128z" />
    <glyph glyph-name="braceright" unicode="}" horiz-adv-x="314" 
d="M284 415c13 0 20 -7 20 -20v-90c0 -13 -7 -20 -20 -20c-31 0 -49 -24 -49 -64v-128c0 -136 -75 -213 -197 -213c-15 0 -23 7 -23 20v90c0 13 7 20 20 20c39 0 62 24 62 64v128c0 62 20 112 57 148c-37 36 -57 86 -57 148v128c0 40 -23 64 -62 64c-13 0 -20 7 -20 20v90
c0 13 8 20 23 20c122 0 197 -77 197 -213v-128c0 -40 18 -64 49 -64z" />
    <glyph glyph-name="bracketleft" unicode="[" horiz-adv-x="281" 
d="M266 710c0 -13 -7 -20 -20 -20h-70v-680h70c13 0 20 -7 20 -20v-90c0 -13 -7 -20 -20 -20h-149c-39 0 -60 21 -60 60v820c0 39 21 60 60 60h149c13 0 20 -7 20 -20v-90z" />
    <glyph glyph-name="bracketright" unicode="]" horiz-adv-x="281" 
d="M15 710v90c0 13 7 20 20 20h149c39 0 60 -21 60 -60v-820c0 -39 -21 -60 -60 -60h-149c-13 0 -20 7 -20 20v90c0 13 7 20 20 20h70v680h-70c-13 0 -20 7 -20 20z" />
    <glyph glyph-name="parenleft" unicode="(" horiz-adv-x="273" 
d="M238 -124c-126 0 -200 77 -200 213v518c0 136 74 213 200 213c13 0 20 -7 20 -20v-90c0 -13 -7 -20 -20 -20c-39 0 -62 -24 -62 -64v-556c0 -40 23 -64 62 -64c13 0 20 -7 20 -20v-90c0 -13 -7 -20 -20 -20z" />
    <glyph glyph-name="parenright" unicode=")" horiz-adv-x="274" 
d="M36 -124c-13 0 -20 7 -20 20v90c0 13 7 20 20 20c39 0 62 24 62 64v556c0 40 -23 64 -62 64c-13 0 -20 7 -20 20v90c0 13 7 20 20 20c126 0 200 -77 200 -213v-518c0 -136 -74 -213 -200 -213z" />
    <glyph glyph-name="emdash" unicode="&#x2014;" horiz-adv-x="530" 
d="M10 295c0 13 7 20 20 20h470c13 0 20 -7 20 -20v-76c0 -13 -7 -20 -20 -20h-470c-13 0 -20 7 -20 20v76z" />
    <glyph glyph-name="endash" unicode="&#x2013;" horiz-adv-x="390" 
d="M30 199c-13 0 -20 7 -20 20v76c0 13 7 20 20 20h330c13 0 20 -7 20 -20v-76c0 -13 -7 -20 -20 -20h-330z" />
    <glyph glyph-name="hyphen" unicode="-" horiz-adv-x="270" 
d="M30 199c-13 0 -20 7 -20 20v76c0 13 7 20 20 20h210c13 0 20 -7 20 -20v-76c0 -13 -7 -20 -20 -20h-210z" />
    <glyph glyph-name="emdash.case" horiz-adv-x="530" 
d="M10 395c0 13 7 20 20 20h470c13 0 20 -7 20 -20v-76c0 -13 -7 -20 -20 -20h-470c-13 0 -20 7 -20 20v76z" />
    <glyph glyph-name="endash.case" horiz-adv-x="390" 
d="M30 299c-13 0 -20 7 -20 20v76c0 13 7 20 20 20h330c13 0 20 -7 20 -20v-76c0 -13 -7 -20 -20 -20h-330z" />
    <glyph glyph-name="hyphen.case" horiz-adv-x="270" 
d="M30 299c-13 0 -20 7 -20 20v76c0 13 7 20 20 20h210c13 0 20 -7 20 -20v-76c0 -13 -7 -20 -20 -20h-210z" />
    <glyph glyph-name="guillemotleft" unicode="&#xab;" horiz-adv-x="480" 
d="M134 83c-10 0 -18 3 -24 12l-90 120c-21 29 -21 55 0 84l90 120c6 9 14 12 24 12h98c17 0 22 -11 12 -24l-115 -150l115 -150c10 -13 5 -24 -12 -24h-98zM335 83c-10 0 -18 3 -24 12l-90 120c-21 29 -21 55 0 84l90 120c6 9 14 12 24 12h98c17 0 22 -11 12 -24l-115 -150
l115 -150c10 -13 5 -24 -12 -24h-98z" />
    <glyph glyph-name="guillemotright" unicode="&#xbb;" horiz-adv-x="481" 
d="M145 83h-98c-17 0 -22 11 -12 24l115 150l-115 150c-10 13 -5 24 12 24h98c10 0 18 -3 24 -12l90 -120c21 -29 21 -55 0 -84l-90 -120c-6 -9 -14 -12 -24 -12zM346 83h-98c-17 0 -22 11 -12 24l115 150l-115 150c-10 13 -5 24 12 24h98c10 0 18 -3 24 -12l90 -120
c21 -29 21 -55 0 -84l-90 -120c-6 -9 -14 -12 -24 -12z" />
    <glyph glyph-name="guilsinglleft" unicode="&#x2039;" horiz-adv-x="280" 
d="M145 83c-10 0 -18 3 -24 12l-90 120c-21 29 -21 55 0 84l90 120c6 9 14 12 24 12h98c17 0 22 -11 12 -24l-115 -150l115 -150c10 -13 5 -24 -12 -24h-98z" />
    <glyph glyph-name="guilsinglright" unicode="&#x203a;" horiz-adv-x="280" 
d="M135 83h-98c-17 0 -22 11 -12 24l115 150l-115 150c-10 13 -5 24 12 24h98c10 0 18 -3 24 -12l90 -120c21 -29 21 -55 0 -84l-90 -120c-6 -9 -14 -12 -24 -12z" />
    <glyph glyph-name="quotedblbase" unicode="&#x201e;" horiz-adv-x="156" 
d="M20 107c1 12 8 19 20 19h79c13 0 21 -9 18 -22l-40 -201c-2 -12 -9 -18 -21 -18h-46c-13 0 -21 7 -20 21z" />
    <glyph glyph-name="quotedblleft" unicode="&#x201c;" horiz-adv-x="277" 
d="M115 478c-1 -12 -8 -19 -20 -19h-79c-13 0 -21 9 -18 22l40 201c2 12 9 18 21 18h46c13 0 21 -7 20 -21zM255 478c-1 -12 -8 -19 -20 -19h-79c-13 0 -21 9 -18 22l40 201c2 12 9 18 21 18h46c13 0 21 -7 20 -21z" />
    <glyph glyph-name="quotedblright" unicode="&#x201d;" horiz-adv-x="278" 
d="M22 681c1 12 8 19 20 19h79c13 0 21 -9 18 -22l-40 -201c-2 -12 -9 -18 -21 -18h-46c-13 0 -21 7 -20 21zM162 681c1 12 8 19 20 19h79c13 0 21 -9 18 -22l-40 -201c-2 -12 -9 -18 -21 -18h-46c-13 0 -21 7 -20 21z" />
    <glyph glyph-name="quoteleft" unicode="&#x2018;" horiz-adv-x="138" 
d="M116 478c-1 -12 -8 -19 -20 -19h-79c-13 0 -21 9 -18 22l40 201c2 12 9 18 21 18h46c13 0 21 -7 20 -21z" />
    <glyph glyph-name="quoteright" unicode="&#x2019;" horiz-adv-x="138" 
d="M22 681c1 12 8 19 20 19h79c13 0 21 -9 18 -22l-40 -201c-2 -12 -9 -18 -21 -18h-46c-13 0 -21 7 -20 21z" />
    <glyph glyph-name="quotesinglbase" unicode="&#x201a;" horiz-adv-x="153" 
d="M20 107c1 12 8 19 20 19h79c13 0 21 -9 18 -22l-40 -201c-2 -12 -9 -18 -21 -18h-46c-13 0 -21 7 -20 21z" />
    <glyph glyph-name="guillemotleft.case" horiz-adv-x="503" 
d="M134 143c-10 0 -18 3 -24 12l-90 120c-21 29 -21 55 0 84l90 120c6 9 14 12 24 12h98c17 0 22 -11 12 -24l-115 -150l115 -150c10 -13 5 -24 -12 -24h-98zM335 143c-10 0 -18 3 -24 12l-90 120c-21 29 -21 55 0 84l90 120c6 9 14 12 24 12h98c17 0 22 -11 12 -24
l-115 -150l115 -150c10 -13 5 -24 -12 -24h-98z" />
    <glyph glyph-name="guillemotright.case" horiz-adv-x="503" 
d="M145 143h-98c-17 0 -22 11 -12 24l115 150l-115 150c-10 13 -5 24 12 24h98c10 0 18 -3 24 -12l90 -120c21 -29 21 -55 0 -84l-90 -120c-6 -9 -14 -12 -24 -12zM346 143h-98c-17 0 -22 11 -12 24l115 150l-115 150c-10 13 -5 24 12 24h98c10 0 18 -3 24 -12l90 -120
c21 -29 21 -55 0 -84l-90 -120c-6 -9 -14 -12 -24 -12z" />
    <glyph glyph-name="guilsinglleft.case" horiz-adv-x="273" 
d="M142 143c-10 0 -18 3 -24 12l-90 120c-21 29 -21 55 0 84l90 120c6 9 14 12 24 12h98c17 0 22 -11 12 -24l-115 -150l115 -150c10 -13 5 -24 -12 -24h-98z" />
    <glyph glyph-name="guilsinglright.case" horiz-adv-x="304" 
d="M135 143h-98c-17 0 -22 11 -12 24l115 150l-115 150c-10 13 -5 24 12 24h98c10 0 18 -3 24 -12l90 -120c21 -29 21 -55 0 -84l-90 -120c-6 -9 -14 -12 -24 -12z" />
    <glyph glyph-name="space" unicode=" " horiz-adv-x="200" 
 />
    <glyph glyph-name="cent" unicode="&#xa2;" horiz-adv-x="388" 
d="M166 -85c-13 0 -20 7 -20 20v60c-72 20 -117 82 -117 166v178c0 85 45 147 117 166v60c0 13 7 20 20 20h65c13 0 20 -7 20 -20v-60c68 -18 112 -74 118 -155c1 -14 -6 -21 -19 -21h-101c-12 0 -18 7 -20 20c-4 25 -15 33 -31 33c-19 0 -30 -13 -30 -34v-196
c0 -21 11 -34 30 -34c16 0 27 8 31 33c2 13 8 20 20 20h101c13 0 20 -8 19 -23c-6 -81 -51 -136 -118 -154v-59c0 -13 -7 -20 -20 -20h-65z" />
    <glyph glyph-name="currency" unicode="&#xa4;" horiz-adv-x="460" 
d="M230 78c-37 0 -69 9 -95 25l-34 -40c-8 -10 -18 -11 -28 -2l-46 39c-10 9 -10 18 -2 28l46 54c-8 21 -12 44 -12 69v88c0 25 4 48 12 69l-46 54c-8 10 -8 19 2 28l46 39c10 9 20 8 28 -2l34 -40c26 16 59 25 95 25c37 0 69 -9 96 -25l33 40c8 10 18 11 28 2l46 -39
c10 -9 10 -18 2 -28l-46 -54c8 -21 12 -44 12 -69v-88c0 -25 -4 -48 -11 -68l45 -55c8 -10 8 -19 -2 -28l-46 -39c-10 -9 -20 -8 -28 2l-34 40c-26 -16 -58 -25 -95 -25zM230 208c20 0 32 13 32 34v106c0 21 -12 34 -32 34s-32 -13 -32 -34v-106c0 -21 12 -34 32 -34z" />
    <glyph glyph-name="dollar" unicode="$" horiz-adv-x="412" 
d="M392 167c0 -92 -50 -153 -129 -172v-60c0 -13 -7 -20 -20 -20h-80c-13 0 -20 7 -20 20v62c-74 23 -117 88 -123 184c-1 14 6 21 19 21h107c12 0 19 -7 20 -20c4 -38 20 -57 43 -57s35 17 35 42c0 127 -218 191 -218 377c0 86 46 142 117 161v60c0 13 7 20 20 20h80
c13 0 20 -7 20 -20v-62c72 -21 114 -83 119 -174c1 -14 -6 -21 -19 -21h-106c-12 0 -20 7 -20 21c-3 33 -13 47 -34 47c-19 0 -31 -10 -31 -32c0 -110 220 -177 220 -377z" />
    <glyph glyph-name="Euro" unicode="&#x20ac;" horiz-adv-x="478" 
d="M441 222c13 0 20 -8 19 -23c-5 -133 -72 -211 -182 -211c-111 0 -185 77 -185 193v76h-55c-13 0 -20 7 -20 20v35c0 13 7 20 20 20h55v45h-55c-13 0 -20 7 -20 20v35c0 13 7 20 20 20h55v67c0 116 74 193 185 193c105 0 174 -75 178 -203c0 -14 -6 -21 -19 -21h-108
c-12 0 -20 7 -20 20c-1 46 -14 66 -35 66c-20 0 -33 -16 -33 -43v-79h134c13 0 20 -7 20 -20v-35c0 -13 -7 -20 -20 -20h-134v-45h134c13 0 20 -7 20 -20v-35c0 -13 -7 -20 -20 -20h-134v-88c0 -27 13 -43 33 -43c23 0 37 24 39 76c1 13 8 20 20 20h108z" />
    <glyph glyph-name="sterling" unicode="&#xa3;" horiz-adv-x="455" 
d="M422 129c13 0 20 -7 20 -20v-89c0 -13 -7 -20 -20 -20h-394c-12 0 -20 8 -20 20v90c0 12 8 20 20 20c22 0 36 14 36 36v114h-36c-13 0 -20 7 -20 20v79c0 13 7 20 20 20h36v120c0 116 72 193 182 193c104 0 175 -75 182 -193c1 -14 -6 -21 -19 -21h-108
c-12 0 -19 7 -20 20c-4 38 -18 56 -39 56c-22 0 -35 -16 -35 -43v-132h125c13 0 20 -7 20 -20v-79c0 -13 -7 -20 -20 -20h-125v-107c0 -15 -3 -30 -9 -44h224z" />
    <glyph glyph-name="yen" unicode="&#xa5;" horiz-adv-x="526" 
d="M473 219h-137v-50h137c13 0 20 -7 20 -20v-70c0 -13 -7 -20 -20 -20h-137v-39c0 -13 -7 -20 -20 -20h-106c-13 0 -20 7 -20 20v39h-137c-13 0 -20 7 -20 20v70c0 13 7 20 20 20h137v50h-137c-13 0 -20 7 -20 20v70c0 13 7 20 20 20h42c-9 24 -14 51 -14 81v270
c0 13 7 20 20 20h106c13 0 20 -7 20 -20v-282c0 -27 13 -43 36 -43s36 16 36 43v282c0 13 7 20 20 20h106c13 0 20 -7 20 -20v-270c0 -30 -5 -57 -14 -81h42c13 0 20 -7 20 -20v-70c0 -13 -7 -20 -20 -20z" />
    <glyph glyph-name="approxequal" unicode="&#x2248;" horiz-adv-x="480" 
d="M384 487c10 11 18 11 26 0l40 -64c7 -9 7 -19 -1 -28c-32 -38 -69 -51 -109 -51c-63 0 -139 42 -188 42c-22 0 -42 -10 -56 -23c-10 -11 -18 -11 -26 0l-40 64c-7 9 -7 19 1 28c32 38 69 51 109 51c63 0 139 -42 188 -42c22 0 42 10 56 23zM384 310c10 11 18 11 26 0
l40 -64c7 -9 7 -19 -1 -28c-32 -38 -69 -51 -109 -51c-63 0 -139 42 -188 42c-22 0 -42 -10 -56 -23c-10 -11 -18 -11 -26 0l-40 64c-7 9 -7 19 1 28c32 38 69 51 109 51c63 0 139 -42 188 -42c22 0 42 10 56 23z" />
    <glyph glyph-name="asciitilde" unicode="~" horiz-adv-x="470" 
d="M379 426c10 11 18 11 26 0l40 -64c7 -9 7 -19 -1 -28c-32 -38 -69 -51 -109 -51c-63 0 -139 42 -188 42c-22 0 -42 -10 -56 -23c-10 -11 -18 -11 -26 0l-40 64c-7 9 -7 19 1 28c32 38 69 51 109 51c63 0 139 -42 188 -42c22 0 42 10 56 23z" />
    <glyph glyph-name="divide" unicode="&#xf7;" horiz-adv-x="480" 
d="M242 445c-45 0 -75 30 -75 75s30 75 75 75s75 -30 75 -75s-30 -75 -75 -75zM50 295c-13 0 -20 7 -20 20v85c0 13 7 20 20 20h380c13 0 20 -7 20 -20v-85c0 -13 -7 -20 -20 -20h-380zM242 115c-45 0 -75 30 -75 75s30 75 75 75s75 -30 75 -75s-30 -75 -75 -75z" />
    <glyph glyph-name="emptyset" unicode="&#x2205;" horiz-adv-x="765" 
d="M733 723l-86 -118c56 -63 88 -150 88 -255c0 -218 -141 -362 -353 -362c-60 0 -115 12 -162 33l-36 -49c-7 -9 -15 -17 -26 -17h-109c-14 0 -25 11 -17 22l86 118c-57 63 -89 151 -89 255c0 218 141 362 353 362c61 0 116 -12 163 -33l36 49c7 9 15 17 26 17h109
c14 0 25 -11 17 -22zM159 350c0 -57 14 -106 40 -145l268 367c-25 10 -54 15 -85 15c-134 0 -223 -95 -223 -237zM605 350c0 56 -14 105 -39 144l-268 -367c25 -9 53 -14 84 -14c134 0 223 95 223 237z" />
    <glyph glyph-name="equal" unicode="=" horiz-adv-x="450" 
d="M35 365c-13 0 -20 7 -20 20v85c0 13 7 20 20 20h380c13 0 20 -7 20 -20v-85c0 -13 -7 -20 -20 -20h-380zM35 175c-13 0 -20 7 -20 20v85c0 13 7 20 20 20h380c13 0 20 -7 20 -20v-85c0 -13 -7 -20 -20 -20h-380z" />
    <glyph glyph-name="greater" unicode="&#x3e;" horiz-adv-x="340" 
d="M310 429c6 -3 10 -9 10 -16v-113c0 -7 -4 -13 -10 -16l-255 -126c-17 -8 -35 3 -35 22v84c0 7 4 14 10 17l170 76l-169 75c-6 3 -11 10 -11 17v84c0 19 18 30 35 22z" />
    <glyph glyph-name="greaterequal" unicode="&#x2265;" horiz-adv-x="380" 
d="M330 456c6 -3 10 -9 10 -16v-103c0 -7 -4 -13 -10 -16l-255 -116c-17 -8 -35 3 -35 22v79c0 7 4 15 10 17l171 66l-170 65c-6 2 -11 10 -11 17v79c0 19 18 30 35 22zM319 168c13 0 20 -7 20 -20v-80c0 -13 -7 -20 -20 -20h-259c-13 0 -20 7 -20 20v80c0 13 7 20 20 20
h259z" />
    <glyph glyph-name="infinity" unicode="&#x221e;" horiz-adv-x="604" 
d="M421 418c92 0 154 -67 154 -166c0 -96 -57 -164 -149 -164c-58 0 -97 27 -124 65c-27 -38 -66 -65 -124 -65c-92 0 -149 68 -149 164c0 99 62 166 154 166c56 0 92 -23 119 -54c27 31 63 54 119 54zM195 211c19 0 29 17 39 42c-10 25 -20 42 -39 42
c-17 0 -36 -15 -36 -42c0 -28 19 -42 36 -42zM409 211c17 0 36 14 36 42c0 27 -19 42 -36 42c-19 0 -29 -17 -39 -42c10 -25 20 -42 39 -42z" />
    <glyph glyph-name="integral" unicode="&#x222b;" horiz-adv-x="350" 
d="M325 705c13 0 20 -7 20 -20v-90c0 -13 -7 -20 -20 -20h-19c-39 0 -62 -24 -62 -64v-503c0 -136 -74 -213 -195 -213h-24c-13 0 -20 7 -20 20v90c0 13 7 20 20 20h19c39 0 62 24 62 64v503c0 136 74 213 195 213h24z" />
    <glyph glyph-name="less" unicode="&#x3c;" horiz-adv-x="480" 
d="M410 449c0 -7 -5 -14 -11 -17l-169 -75l170 -76c6 -3 10 -10 10 -17v-84c0 -19 -18 -30 -35 -22l-255 126c-6 3 -10 9 -10 16v113c0 7 4 13 10 16l255 126c17 8 35 -3 35 -22v-84z" />
    <glyph glyph-name="lessequal" unicode="&#x2264;" horiz-adv-x="480" 
d="M380 471c0 -7 -5 -15 -11 -17l-170 -65l171 -66c6 -2 10 -10 10 -17v-79c0 -19 -18 -30 -35 -22l-255 116c-6 3 -10 9 -10 16v103c0 7 4 13 10 16l255 116c17 8 35 -3 35 -22v-79zM360 168c13 0 20 -7 20 -20v-80c0 -13 -7 -20 -20 -20h-259c-13 0 -20 7 -20 20v80
c0 13 7 20 20 20h259z" />
    <glyph glyph-name="logicalnot" unicode="&#xac;" horiz-adv-x="480" 
d="M430 423c13 0 20 -7 20 -20v-159c0 -13 -7 -20 -20 -20h-83c-13 0 -20 7 -20 20v54h-277c-13 0 -20 7 -20 20v85c0 13 7 20 20 20h380z" />
    <glyph glyph-name="minus" unicode="&#x2212;" horiz-adv-x="480" 
d="M50 298c-13 0 -20 7 -20 20v85c0 13 7 20 20 20h380c13 0 20 -7 20 -20v-85c0 -13 -7 -20 -20 -20h-380z" />
    <glyph glyph-name="multiply" unicode="&#xd7;" horiz-adv-x="480" 
d="M97 144l-60 60c-9 10 -9 19 0 29l115 115l-115 114c-9 10 -9 19 0 29l60 60c9 9 19 9 28 0l115 -115l115 115c9 9 19 9 28 0l60 -60c9 -10 9 -19 0 -29l-114 -114l114 -115c9 -10 9 -19 0 -29l-60 -60c-9 -9 -19 -9 -28 0l-115 115l-115 -115c-9 -9 -19 -9 -28 0z" />
    <glyph glyph-name="notequal" unicode="&#x2260;" horiz-adv-x="480" 
d="M430 365h-112l-28 -65h140c13 0 20 -7 20 -20v-85c0 -13 -7 -20 -20 -20h-193l-26 -60c-4 -10 -13 -15 -24 -15h-85c-15 0 -22 9 -16 23l22 52h-58c-13 0 -20 7 -20 20v85c0 13 7 20 20 20h112l28 65h-140c-13 0 -20 7 -20 20v85c0 13 7 20 20 20h193l26 60
c4 10 13 15 24 15h85c15 0 22 -9 16 -23l-22 -52h58c13 0 20 -7 20 -20v-85c0 -13 -7 -20 -20 -20z" />
    <glyph glyph-name="partialdiff" unicode="&#x2202;" horiz-adv-x="402" 
d="M154 712c133 0 214 -75 215 -219v-332c0 -104 -68 -173 -170 -173s-170 69 -170 173v168c0 104 55 173 142 173c27 0 46 -5 60 -15v21c0 54 -29 84 -82 84h-29c-13 0 -20 7 -20 20v80c0 13 7 20 20 20h34zM231 152v186c0 21 -12 34 -32 34s-32 -13 -32 -34v-186
c0 -21 12 -34 32 -34s32 13 32 34z" />
    <glyph glyph-name="percent" unicode="%" horiz-adv-x="601" 
d="M111 386c-59 0 -97 38 -97 90v145c0 52 38 91 97 91c58 0 96 -39 96 -91v-145c0 -52 -38 -90 -96 -90zM31 -5c-14 0 -24 12 -17 22l482 671c7 9 12 17 23 17h50c14 0 25 -12 17 -22l-482 -671c-6 -9 -12 -17 -23 -17h-50zM111 453c12 0 17 10 17 21v149
c0 12 -5 22 -17 22s-18 -10 -18 -22v-149c0 -11 6 -21 18 -21zM491 -10c-59 0 -97 38 -97 90v145c0 52 38 91 97 91c58 0 96 -39 96 -91v-145c0 -52 -38 -90 -96 -90zM491 57c12 0 17 10 17 21v149c0 12 -5 22 -17 22s-18 -10 -18 -22v-149c0 -11 6 -21 18 -21z" />
    <glyph glyph-name="perthousand" unicode="&#x2030;" horiz-adv-x="804" 
d="M121 386c-59 0 -97 38 -97 90v145c0 52 38 91 97 91c58 0 96 -39 96 -91v-145c0 -52 -38 -90 -96 -90zM31 -5c-14 0 -24 12 -17 22l472 671c7 9 12 17 23 17h50c14 0 24 -12 17 -22l-472 -671c-6 -9 -12 -17 -23 -17h-50zM121 453c12 0 17 10 17 21v149
c0 12 -5 22 -17 22s-18 -10 -18 -22v-149c0 -11 6 -21 18 -21zM471 -10c-59 0 -97 38 -97 90v145c0 52 38 91 97 91c58 0 96 -39 96 -91v-145c0 -52 -38 -90 -96 -90zM701 -10c-59 0 -97 38 -97 90v145c0 52 38 91 97 91c58 0 96 -39 96 -91v-145c0 -52 -38 -90 -96 -90z
M471 57c12 0 17 10 17 21v149c0 12 -5 22 -17 22s-18 -10 -18 -22v-149c0 -11 6 -21 18 -21zM701 57c12 0 17 10 17 21v149c0 12 -5 22 -17 22s-18 -10 -18 -22v-149c0 -11 6 -21 18 -21z" />
    <glyph glyph-name="plus" unicode="+" horiz-adv-x="480" 
d="M430 423c13 0 20 -7 20 -20v-85c0 -13 -7 -20 -20 -20h-127v-132c0 -12 -7 -19 -20 -20h-85c-13 0 -20 7 -20 20v132h-128c-13 0 -20 7 -20 20v85c0 13 7 20 20 20h128v132c0 13 6 19 20 20l84 -1c14 1 20 -6 20 -20v-131h128z" />
    <glyph glyph-name="plusminus" unicode="&#xb1;" horiz-adv-x="480" 
d="M430 474c13 0 20 -7 20 -20v-85c0 -13 -7 -20 -20 -20h-127v-112c0 -12 -7 -19 -20 -20h-85c-13 0 -20 7 -20 20v112h-128c-13 0 -20 7 -20 20v85c0 13 7 20 20 20h128v112c0 13 6 19 20 20l84 -1c14 1 20 -6 20 -20v-111h128zM430 183c13 0 20 -7 20 -20v-85
c0 -13 -7 -20 -20 -20h-380c-13 0 -20 7 -20 20v85c0 13 7 20 20 20h380z" />
    <glyph glyph-name="product" unicode="&#x220f;" horiz-adv-x="462" 
d="M62 -100c-13 0 -20 7 -20 20v720c0 39 21 60 60 60h258c39 0 60 -21 60 -60v-720c0 -13 -7 -20 -20 -20h-110c-13 0 -20 7 -20 20v645h-78v-645c0 -13 -7 -20 -20 -20h-110z" />
    <glyph glyph-name="radical" unicode="&#x221a;" horiz-adv-x="532" 
d="M514 800c14 0 20 -9 17 -22l-153 -730c-8 -36 -29 -53 -65 -53h-70c-36 0 -57 18 -65 53l-75 332h-75c-13 0 -20 7 -20 20v80c0 13 7 20 20 20h138c37 0 59 -19 64 -55l47 -318l111 655c2 13 10 18 22 18h104z" />
    <glyph glyph-name="summation" unicode="&#x2211;" horiz-adv-x="361" 
d="M57 -5c-25 0 -41 13 -41 38c0 27 -4 48 9 73l124 244l-124 244c-13 25 -9 46 -9 73c0 25 16 38 41 38h274c13 0 20 -7 20 -20v-96c0 -13 -7 -20 -20 -20h-161l90 -167c4 -8 6 -16 6 -25v-54c0 -9 -2 -17 -6 -25l-90 -167h161c13 0 20 -7 20 -20v-96c0 -13 -7 -20 -20 -20
h-274z" />
    <glyph glyph-name="lozenge" unicode="&#x25ca;" horiz-adv-x="467" 
d="M190 -5c-37 0 -52 21 -64 56l-90 261c-10 29 -10 49 0 78l90 259c12 35 27 56 64 56h87c37 0 51 -20 64 -56l89 -259c10 -29 10 -49 0 -78l-89 -261c-13 -36 -27 -56 -64 -56h-87zM233 138l61 213l-61 211l-61 -211z" />
    <glyph glyph-name="bar" unicode="|" horiz-adv-x="214" 
d="M37 780c0 13 7 20 20 20h100c13 0 20 -7 20 -20v-829c0 -13 -7 -20 -20 -20h-100c-13 0 -20 7 -20 20v829z" />
    <glyph glyph-name="brokenbar" unicode="&#xa6;" horiz-adv-x="194" 
d="M47 492c-13 0 -20 7 -20 20v268c0 13 7 20 20 20h100c13 0 20 -7 20 -20v-268c0 -13 -7 -20 -20 -20h-100zM47 -69c-13 0 -20 7 -20 20v267c0 13 7 20 20 20h100c13 0 20 -7 20 -20v-267c0 -13 -7 -20 -20 -20h-100z" />
    <glyph glyph-name="at" unicode="@" horiz-adv-x="679" 
d="M305 -100c-185 0 -276 105 -276 279v68c0 172 91 291 276 291h18c111 0 169 -63 169 -158v-198c0 -62 -55 -113 -151 -113c-103 0 -158 50 -158 143c0 100 55 155 144 155h47v13c0 34 -18 53 -51 53h-13c-128 0 -171 -66 -171 -187v-66c0 -124 43 -175 171 -175h62
c117 0 168 53 168 176v245c0 121 -51 174 -165 174h-221c-13 0 -20 7 -20 20v65c0 13 7 20 20 20h221c176 0 275 -105 275 -279v-247c0 -174 -99 -279 -273 -279h-72zM340 173c23 0 34 12 34 32v43h-34c-25 0 -38 -12 -38 -36s13 -39 38 -39z" />
    <glyph glyph-name="ampersand" unicode="&#x26;" horiz-adv-x="451" 
d="M209 -5c-106 0 -176 75 -176 182v63c0 60 22 100 52 123c-35 35 -52 86 -52 132v24c0 116 71 193 176 193c102 0 169 -75 173 -203c0 -14 -6 -21 -19 -21h-101c-12 0 -20 7 -20 20c-1 49 -15 71 -37 71c-20 0 -33 -16 -33 -43v-67c0 -29 11 -49 37 -49h198
c13 0 20 -7 20 -20v-80c0 -13 -7 -20 -20 -20h-30v-245c0 -39 -21 -60 -60 -60h-108zM209 129l31 1v170h-31c-19 0 -34 -10 -34 -51v-67c0 -37 10 -53 34 -53z" />
    <glyph glyph-name="paragraph" unicode="&#xb6;" horiz-adv-x="546" 
d="M444 705c39 0 60 -21 60 -60v-725c0 -13 -7 -20 -20 -20h-98c-13 0 -20 7 -20 20v656h-56v-656c0 -13 -7 -20 -20 -20h-98c-13 0 -20 7 -20 20v455c-99 0 -167 63 -167 165s68 165 167 165h272z" />
    <glyph glyph-name="copyright" unicode="&#xa9;" horiz-adv-x="635" 
d="M263 -5c-139 0 -230 88 -230 219v272c0 131 91 219 230 219h109c139 0 230 -88 230 -219v-272c0 -131 -91 -219 -230 -219h-109zM263 78h109c88 0 140 52 140 136v272c0 84 -52 136 -140 136h-109c-87 0 -140 -52 -140 -136v-272c0 -84 53 -136 140 -136zM316 139
c-81 0 -133 54 -133 137v150c0 83 52 137 130 137c76 0 127 -47 133 -127c1 -12 -5 -19 -17 -19h-72c-10 0 -16 7 -18 18c-3 21 -13 29 -26 29c-15 0 -25 -12 -25 -29v-169c0 -15 10 -27 25 -27c13 0 23 7 26 30c2 11 8 17 18 17h75c12 0 17 -7 16 -20
c-5 -80 -58 -127 -132 -127z" />
    <glyph glyph-name="registered" unicode="&#xae;" horiz-adv-x="414" 
d="M147 256c-71 0 -119 48 -119 119v211c0 71 48 119 119 119h120c71 0 119 -48 119 -119v-211c0 -71 -48 -119 -119 -119h-120zM147 298h120c45 0 71 28 71 76v211c0 48 -26 76 -71 76h-120c-45 0 -71 -28 -71 -76v-211c0 -48 26 -76 71 -76zM138 340c-5 0 -8 3 -8 8v204
c0 49 30 81 76 81c47 0 78 -32 78 -81v-34c0 -28 -10 -50 -27 -64l38 -106c2 -5 -3 -8 -8 -8h-48c-5 0 -7 3 -8 8l-29 90h-10v-90c0 -5 -3 -8 -9 -8h-45zM192 492h11c14 0 19 7 19 22v41c0 12 -5 18 -15 18s-15 -6 -15 -18v-63z" />
    <glyph glyph-name="section" unicode="&#xa7;" horiz-adv-x="385" 
d="M319 251c27 -23 44 -59 44 -106c0 -95 -68 -154 -165 -154c-117 0 -175 87 -175 163c0 10 1 23 19 23h98c9 0 18 -4 22 -18c5 -19 11 -38 33 -38c19 0 28 13 28 27c0 64 -203 66 -203 208c0 44 20 77 50 97c-28 25 -48 59 -48 108c0 93 70 149 166 149
c121 0 165 -90 166 -146c0 -9 -1 -21 -19 -21h-98c-13 0 -18 8 -21 19c-4 12 -13 19 -28 19c-17 0 -27 -10 -27 -23c0 -60 204 -60 204 -211c0 -44 -17 -74 -46 -96zM208 314c10 5 18 19 18 32c0 18 -15 29 -37 40c-19 -1 -30 -13 -30 -28c0 -19 18 -31 49 -44z" />
    <glyph glyph-name="trademark" unicode="&#x2122;" horiz-adv-x="437" 
d="M345 705c47 0 79 -32 79 -80v-194c0 -5 -2 -8 -8 -8h-46c-5 0 -8 3 -8 8v194c0 13 -6 21 -17 21c-10 0 -16 -8 -16 -21v-194c0 -5 -3 -8 -8 -8h-47c-6 0 -8 3 -8 8v194c0 13 -6 21 -16 21c-11 0 -17 -8 -17 -21v-194c0 -5 -3 -8 -8 -8h-47c-5 0 -8 3 -8 8v194
c0 48 32 80 80 80c18 0 34 -5 47 -14c13 9 29 14 48 14zM146 700c4 0 7 -2 7 -8v-37c0 -5 -3 -8 -7 -8h-35v-216c0 -5 -3 -8 -8 -8h-46c-5 0 -8 3 -8 8v216h-34c-5 0 -8 3 -8 8v37c0 5 3 8 8 8h131z" />
    <glyph glyph-name="degree" unicode="&#xb0;" horiz-adv-x="292" 
d="M9 573c0 83 54 139 137 139s137 -56 137 -139c0 -84 -54 -140 -137 -140s-137 56 -137 140zM98 573c0 -32 19 -53 48 -53s48 21 48 53s-19 53 -48 53s-48 -21 -48 -53z" />
    <glyph glyph-name="asciicircum" unicode="^" horiz-adv-x="361" 
d="M356 486c7 -14 1 -24 -14 -24h-83c-11 0 -18 4 -23 14l-55 113l-56 -113c-5 -10 -12 -14 -23 -14h-83c-15 0 -21 10 -14 24l109 200c5 9 13 14 24 14h85c11 0 19 -5 24 -14z" />
    <glyph glyph-name="dagger" unicode="&#x2020;" horiz-adv-x="370" 
d="M335 520c13 0 20 -7 20 -20v-80c0 -13 -7 -20 -20 -20h-87v-480c0 -13 -7 -20 -20 -20h-86c-13 0 -20 7 -20 20v480h-87c-13 0 -20 7 -20 20v80c0 13 7 20 20 20h87v160c0 13 7 20 20 20h86c13 0 20 -7 20 -20v-160h87z" />
    <glyph glyph-name="daggerdbl" unicode="&#x2021;" horiz-adv-x="376" 
d="M338 400h-87v-155h87c13 0 20 -7 20 -20v-80c0 -13 -7 -20 -20 -20h-87v-205c0 -13 -7 -20 -20 -20h-86c-13 0 -20 7 -20 20v205h-87c-13 0 -20 7 -20 20v80c0 13 7 20 20 20h87v155h-87c-13 0 -20 7 -20 20v80c0 13 7 20 20 20h87v160c0 13 7 20 20 20h86
c13 0 20 -7 20 -20v-160h87c13 0 20 -7 20 -20v-80c0 -13 -7 -20 -20 -20z" />
    <glyph glyph-name="uni0308" unicode="&#x308;" 
d="M-207 568c-35 0 -57 23 -57 57s22 57 57 57c33 0 56 -23 56 -57s-23 -57 -56 -57zM-57 568c-33 0 -56 23 -56 57s23 57 56 57c35 0 57 -23 57 -57s-22 -57 -57 -57z" />
    <glyph glyph-name="uni0307" unicode="&#x307;" 
d="M-75 558c-44 0 -75 33 -75 75c0 43 31 75 75 75c42 0 75 -32 75 -75c0 -40 -33 -75 -75 -75z" />
    <glyph glyph-name="gravecomb" unicode="&#x300;" 
d="M-159 685h78c11 0 19 -5 24 -14l53 -88c8 -14 3 -24 -13 -24h-57c-10 0 -18 4 -24 12l-72 90c-10 13 -6 24 11 24z" />
    <glyph glyph-name="acutecomb" unicode="&#x301;" 
d="M-16 685c17 0 21 -11 11 -24l-72 -90c-6 -8 -14 -12 -24 -12h-57c-16 0 -21 10 -13 24l53 88c5 9 13 14 24 14h78z" />
    <glyph glyph-name="uni030B" unicode="&#x30b;" 
d="M-157 685c17 0 21 -11 11 -24l-72 -90c-6 -8 -14 -12 -24 -12h-44c-16 0 -21 10 -13 24l53 88c5 9 13 14 24 14h65zM-16 685c17 0 21 -11 11 -24l-72 -90c-6 -8 -14 -12 -24 -12h-44c-16 0 -21 10 -13 24l53 88c5 9 13 14 24 14h65z" />
    <glyph glyph-name="uni0302" unicode="&#x302;" 
d="M-235 559c-16 0 -22 11 -14 24l57 89c6 10 14 13 24 13h83c10 0 18 -3 24 -13l57 -89c8 -13 2 -24 -14 -24h-54c-10 0 -18 3 -24 12l-30 42l-31 -42c-6 -9 -14 -12 -24 -12h-54z" />
    <glyph glyph-name="uni030C" unicode="&#x30c;" 
d="M-235 685h54c10 0 18 -3 24 -12l31 -42l30 42c6 9 14 12 24 12h54c16 0 22 -11 14 -24l-57 -89c-6 -10 -14 -13 -24 -13h-83c-10 0 -18 3 -24 13l-57 89c-8 13 -2 24 14 24z" />
    <glyph glyph-name="uni0306" unicode="&#x306;" 
d="M-125 559c-68 0 -115 41 -124 105c-1 14 7 21 20 21h50c12 0 16 -6 21 -18c6 -11 17 -18 33 -18s27 7 33 18c5 12 9 18 21 18h50c13 0 21 -8 20 -21c-9 -64 -56 -105 -124 -105z" />
    <glyph glyph-name="uni030A" unicode="&#x30a;" 
d="M-167 628c0 49 34 82 86 82s86 -33 86 -82c0 -51 -34 -84 -86 -84s-86 33 -86 84zM-104 627c0 -14 9 -23 23 -23s23 9 23 23s-9 23 -23 23s-23 -9 -23 -23z" />
    <glyph glyph-name="tildecomb" unicode="&#x303;" 
d="M-164 591c-5 0 -9 -2 -12 -7c-6 -11 -11 -17 -22 -17h-38c-13 0 -21 8 -20 21c1 20 21 79 84 79c41 0 61 -25 77 -25c6 0 11 3 14 7c4 6 7 17 21 17h39c12 0 20 -5 19 -21c-2 -29 -27 -79 -83 -79c-39 0 -60 25 -79 25z" />
    <glyph glyph-name="uni0304" unicode="&#x304;" 
d="M-191 639c0 13 7 20 20 20h151c13 0 20 -7 20 -20v-40c0 -13 -7 -20 -20 -20h-151c-13 0 -20 7 -20 20v40z" />
    <glyph glyph-name="uni0312" unicode="&#x312;" 
d="M-123 581l-10 201c-1 14 7 21 20 21h46c12 0 19 -6 21 -18l40 -201c3 -13 -5 -22 -18 -22h-79c-12 0 -19 7 -20 19z" />
    <glyph glyph-name="uni0326" unicode="&#x326;" 
d="M-123 -71c1 12 8 19 20 19h79c13 0 21 -9 18 -22l-40 -201c-2 -12 -9 -18 -21 -18h-46c-13 0 -21 7 -20 21z" />
    <glyph glyph-name="uni0327" unicode="&#x327;" 
d="M-102 -212c-49 0 -88 28 -96 76c-3 13 6 21 19 21h26c11 0 15 -6 22 -16c6 -8 17 -13 29 -13c18 0 32 9 32 25c0 15 -14 25 -32 25c-13 0 -24 -1 -35 -3c-5 -1 -9 0 -13 4l-5 4c-4 4 -5 7 -4 13l16 76h76l-8 -44h5c39 -3 70 -33 70 -75c0 -59 -44 -93 -102 -93z" />
    <glyph glyph-name="uni0328" unicode="&#x328;" 
d="M0 -190c0 -12 -7 -20 -19 -20c-8 -1 -16 -1 -24 -1c-99 0 -150 19 -150 93c0 46 20 86 50 118h125c-32 -24 -51 -54 -51 -76c0 -20 14 -34 40 -34h9c13 0 20 -6 20 -19v-61z" />
    <glyph glyph-name="uni0335" unicode="&#x335;" 
d="M-210 372v66h200v-66h-200z" />
    <glyph glyph-name="uni0336" unicode="&#x336;" 
d="M-330 438h320v-66h-320v66z" />
    <glyph glyph-name="uni0337" unicode="&#x337;" 
d="M-281 -45c-14 0 -21 9 -17 22l153 551c3 12 12 17 23 17h119c14 0 21 -9 17 -22l-153 -551c-3 -12 -12 -17 -23 -17h-119z" />
    <glyph glyph-name="uni0338" unicode="&#x338;" 
d="M-352 -45c-14 0 -21 9 -17 22l209 751c3 12 12 17 23 17h119c14 0 21 -9 17 -22l-209 -751c-3 -12 -12 -17 -23 -17h-119z" />
    <glyph glyph-name="uni0308.case" 
d="M-207 768c-35 0 -57 23 -57 57s22 57 57 57c33 0 56 -23 56 -57s-23 -57 -56 -57zM-57 768c-33 0 -56 23 -56 57s23 57 56 57c35 0 57 -23 57 -57s-22 -57 -57 -57z" />
    <glyph glyph-name="uni0307.case" 
d="M-75 764c-44 0 -75 33 -75 75c0 43 31 75 75 75c42 0 75 -32 75 -75c0 -40 -33 -75 -75 -75z" />
    <glyph glyph-name="gravecomb.case" 
d="M-17 769h-56c-10 0 -18 3 -25 11l-76 90c-11 13 -6 25 11 25h77c10 0 18 -4 24 -13l58 -89c9 -13 3 -24 -13 -24z" />
    <glyph glyph-name="acutecomb.case" 
d="M-163 769c-16 0 -22 11 -13 24l58 89c6 9 14 13 24 13h77c17 0 22 -12 11 -25l-76 -90c-7 -8 -15 -11 -25 -11h-56z" />
    <glyph glyph-name="uni030B.case" 
d="M-323 769c-16 0 -22 11 -13 24l58 89c6 9 14 13 24 13h77c17 0 22 -12 11 -25l-76 -90c-7 -8 -15 -11 -25 -11h-56zM-163 769c-16 0 -22 11 -13 24l58 89c6 9 14 13 24 13h77c17 0 22 -12 11 -25l-76 -90c-7 -8 -15 -11 -25 -11h-56z" />
    <glyph glyph-name="uni0302.case" 
d="M-4 793c9 -13 3 -24 -13 -24h-54c-10 0 -18 4 -24 12l-33 42l-34 -42c-6 -8 -14 -12 -24 -12h-54c-16 0 -22 11 -13 24l58 89c6 9 15 13 25 13h83c10 0 19 -4 25 -13z" />
    <glyph glyph-name="uni030C.case" 
d="M-4 871l-58 -89c-6 -9 -15 -13 -25 -13h-83c-10 0 -19 4 -25 13l-58 89c-9 13 -3 24 13 24h54c10 0 18 -4 24 -12l34 -42l33 42c6 8 14 12 24 12h54c16 0 22 -11 13 -24z" />
    <glyph glyph-name="uni0306.case" 
d="M-124 767c-68 0 -115 41 -124 105c-1 14 7 21 20 21h50c12 0 16 -6 21 -18c6 -11 17 -18 33 -18s27 7 33 18c5 12 9 18 21 18h50c13 0 21 -8 20 -21c-9 -64 -56 -105 -124 -105z" />
    <glyph glyph-name="uni030A.case" 
d="M-167 832c0 49 34 82 86 82s86 -33 86 -82c0 -51 -34 -84 -86 -84s-86 33 -86 84zM-104 831c0 -14 9 -23 23 -23s23 9 23 23s-9 23 -23 23s-23 -9 -23 -23z" />
    <glyph glyph-name="tildecomb.case" 
d="M-164 791c-5 0 -9 -2 -12 -7c-6 -11 -11 -17 -22 -17h-38c-13 0 -21 8 -20 21c1 20 21 79 84 79c41 0 61 -25 77 -25c6 0 11 3 14 7c4 6 7 17 21 17h39c12 0 20 -5 19 -21c-2 -29 -27 -79 -83 -79c-39 0 -60 25 -79 25z" />
    <glyph glyph-name="uni0304.case" 
d="M-191 842c0 13 7 20 20 20h151c13 0 20 -7 20 -20v-40c0 -13 -7 -20 -20 -20h-151c-13 0 -20 7 -20 20v40z" />
    <glyph glyph-name="uni0312.case" 
d="M-123 777l-10 201c-1 14 7 21 20 21h46c12 0 19 -6 21 -18l40 -201c3 -13 -5 -22 -18 -22h-79c-12 0 -19 7 -20 19z" />
    <glyph glyph-name="uni0326.case" 
d="M-123 -71c1 12 8 19 20 19h79c13 0 21 -9 18 -22l-40 -201c-2 -12 -9 -18 -21 -18h-46c-13 0 -21 7 -20 21z" />
    <glyph glyph-name="uni0327.case" 
d="M-102 -212c-49 0 -88 28 -96 76c-3 13 6 21 19 21h26c11 0 15 -6 22 -16c6 -8 17 -13 29 -13c18 0 32 9 32 25c0 15 -14 25 -32 25c-13 0 -24 -1 -35 -3c-5 -1 -9 0 -13 4l-5 4c-4 4 -5 7 -4 13l16 76h76l-8 -44h5c39 -3 70 -33 70 -75c0 -59 -44 -93 -102 -93z" />
    <glyph glyph-name="uni0328.case" 
d="M0 -190c0 -12 -7 -20 -19 -20c-8 -1 -16 -1 -24 -1c-99 0 -150 19 -150 93c0 46 20 86 50 118h125c-32 -24 -51 -54 -51 -76c0 -20 14 -34 40 -34h9c13 0 20 -6 20 -19v-61z" />
    <glyph glyph-name="uni0337.case" 
d="M-296 -45c-14 0 -21 9 -17 22l153 551c3 12 12 17 23 17h119c14 0 21 -9 17 -22l-153 -551c-3 -12 -12 -17 -23 -17h-119z" />
    <glyph glyph-name="uni0338.case" 
d="M-562 -45c-14 0 -21 9 -17 22l209 751c3 12 12 17 23 17h119c14 0 21 -9 17 -22l-209 -751c-3 -12 -12 -17 -23 -17h-119z" />
    <glyph glyph-name="brevecombcy" 
d="M-125 559c-68 0 -115 41 -124 105c-1 14 7 21 20 21h50c12 0 16 -6 21 -18c6 -11 17 -18 33 -18s27 7 33 18c5 12 9 18 21 18h50c13 0 21 -8 20 -21c-9 -64 -56 -105 -124 -105z" />
    <glyph glyph-name="brevecombcy.case" 
d="M-124 767c-68 0 -115 41 -124 105c-1 14 7 21 20 21h50c12 0 16 -6 21 -18c6 -11 17 -18 33 -18s27 7 33 18c5 12 9 18 21 18h50c13 0 21 -8 20 -21c-9 -64 -56 -105 -124 -105z" />
    </font>
</defs>
</svg>
